<svg width="275" height="275" viewBox="0 0 275 275" fill="none" xmlns="http://www.w3.org/2000/svg">
<path d="M0.25 16C0.25 7.16344 7.41344 0 16.25 0H259C267.837 0 275 7.16344 275 16V258.5C275 267.337 267.837 274.5 259 274.5H16.25C7.41344 274.5 0.25 267.337 0.25 258.5V16Z" fill="white"/>
<path d="M32.386 51.288C30.258 51.288 28.602 50.568 27.418 49.128C26.234 47.672 25.642 45.536 25.642 42.72C25.642 39.904 26.234 37.744 27.418 36.24C28.602 34.72 30.258 33.96 32.386 33.96C33.794 33.96 34.97 34.28 35.914 34.92C36.874 35.56 37.618 36.464 38.146 37.632L36.514 38.616C36.178 37.752 35.666 37.064 34.978 36.552C34.29 36.024 33.426 35.76 32.386 35.76C31.666 35.76 31.018 35.896 30.442 36.168C29.882 36.44 29.402 36.832 29.002 37.344C28.618 37.84 28.322 38.44 28.114 39.144C27.906 39.832 27.802 40.608 27.802 41.472V43.968C27.802 45.696 28.202 47.048 29.002 48.024C29.802 49 30.93 49.488 32.386 49.488C33.458 49.488 34.354 49.216 35.074 48.672C35.794 48.112 36.322 47.376 36.658 46.464L38.266 47.472C37.738 48.656 36.978 49.592 35.986 50.28C34.994 50.952 33.794 51.288 32.386 51.288ZM50.1963 51C49.4763 51 48.9563 50.808 48.6363 50.424C48.3323 50.04 48.1403 49.56 48.0603 48.984H47.9403C47.6683 49.752 47.2203 50.328 46.5963 50.712C45.9723 51.096 45.2283 51.288 44.3643 51.288C43.0523 51.288 42.0283 50.952 41.2923 50.28C40.5723 49.608 40.2123 48.696 40.2123 47.544C40.2123 46.376 40.6363 45.48 41.4843 44.856C42.3483 44.232 43.6843 43.92 45.4922 43.92H47.9403V42.696C47.9403 41.816 47.7003 41.144 47.2203 40.68C46.7403 40.216 46.0043 39.984 45.0123 39.984C44.2603 39.984 43.6283 40.152 43.1163 40.488C42.6203 40.824 42.2043 41.272 41.8683 41.832L40.7163 40.752C41.0523 40.08 41.5883 39.512 42.3242 39.048C43.0603 38.568 43.9883 38.328 45.1083 38.328C46.6123 38.328 47.7803 38.696 48.6123 39.432C49.4443 40.168 49.8603 41.192 49.8603 42.504V49.32H51.2762V51H50.1963ZM44.6763 49.656C45.1563 49.656 45.5963 49.6 45.9963 49.488C46.3963 49.376 46.7403 49.216 47.0283 49.008C47.3163 48.8 47.5403 48.56 47.7003 48.288C47.8603 48.016 47.9403 47.72 47.9403 47.4V45.36H45.3963C44.2923 45.36 43.4843 45.52 42.9723 45.84C42.4763 46.16 42.2283 46.624 42.2283 47.232V47.736C42.2283 48.344 42.4443 48.816 42.8763 49.152C43.3243 49.488 43.9243 49.656 44.6763 49.656ZM54.0166 51V38.616H55.9366V40.632H56.0326C56.3366 39.928 56.7606 39.368 57.3046 38.952C57.8646 38.536 58.6086 38.328 59.5366 38.328C60.8166 38.328 61.8246 38.744 62.5606 39.576C63.3126 40.392 63.6886 41.552 63.6886 43.056V51H61.7686V43.392C61.7686 41.168 60.8326 40.056 58.9606 40.056C58.5766 40.056 58.2006 40.104 57.8326 40.2C57.4806 40.296 57.1606 40.44 56.8726 40.632C56.5846 40.824 56.3526 41.072 56.1766 41.376C56.0166 41.664 55.9366 42.008 55.9366 42.408V51H54.0166ZM77.9371 51.288C77.0731 51.288 76.2971 51.136 75.6091 50.832C74.9211 50.528 74.3371 50.096 73.8571 49.536C73.3931 48.976 73.0331 48.296 72.7771 47.496C72.5371 46.696 72.4171 45.8 72.4171 44.808C72.4171 43.816 72.5371 42.92 72.7771 42.12C73.0331 41.32 73.3931 40.64 73.8571 40.08C74.3371 39.52 74.9211 39.088 75.6091 38.784C76.2971 38.48 77.0731 38.328 77.9371 38.328C79.1691 38.328 80.1531 38.6 80.8891 39.144C81.6411 39.672 82.2011 40.368 82.5691 41.232L80.9611 42.048C80.7371 41.408 80.3691 40.912 79.8571 40.56C79.3451 40.208 78.7051 40.032 77.9371 40.032C77.3611 40.032 76.8571 40.128 76.4251 40.32C75.9931 40.496 75.6331 40.752 75.3451 41.088C75.0571 41.408 74.8411 41.8 74.6971 42.264C74.5531 42.712 74.4811 43.208 74.4811 43.752V45.864C74.4811 46.952 74.7691 47.848 75.3451 48.552C75.9371 49.24 76.8011 49.584 77.9371 49.584C79.4891 49.584 80.6091 48.864 81.2971 47.424L82.6891 48.36C82.2891 49.256 81.6891 49.968 80.8891 50.496C80.1051 51.024 79.1211 51.288 77.9371 51.288ZM87.4394 51C86.7674 51 86.2554 50.816 85.9034 50.448C85.5674 50.064 85.3994 49.584 85.3994 49.008V33.24H87.3194V49.32H89.1434V51H87.4394ZM99.5704 48.984H99.4744C99.3464 49.272 99.1864 49.56 98.9944 49.848C98.8184 50.12 98.5944 50.368 98.3224 50.592C98.0504 50.8 97.7224 50.968 97.3384 51.096C96.9544 51.224 96.5064 51.288 95.9944 51.288C94.7144 51.288 93.6984 50.88 92.9464 50.064C92.1944 49.232 91.8184 48.064 91.8184 46.56V38.616H93.7384V46.224C93.7384 48.448 94.6824 49.56 96.5704 49.56C96.9544 49.56 97.3224 49.512 97.6744 49.416C98.0424 49.32 98.3624 49.176 98.6344 48.984C98.9224 48.792 99.1464 48.552 99.3064 48.264C99.4824 47.96 99.5704 47.6 99.5704 47.184V38.616H101.49V51H99.5704V48.984ZM105.579 33.24H107.499V40.632H107.595C107.915 39.848 108.379 39.272 108.987 38.904C109.611 38.52 110.355 38.328 111.219 38.328C111.987 38.328 112.683 38.48 113.307 38.784C113.931 39.088 114.459 39.52 114.891 40.08C115.339 40.64 115.675 41.32 115.899 42.12C116.139 42.92 116.259 43.816 116.259 44.808C116.259 45.8 116.139 46.696 115.899 47.496C115.675 48.296 115.339 48.976 114.891 49.536C114.459 50.096 113.931 50.528 113.307 50.832C112.683 51.136 111.987 51.288 111.219 51.288C109.539 51.288 108.331 50.52 107.595 48.984H107.499V51H105.579V33.24ZM110.691 49.56C111.779 49.56 112.635 49.224 113.259 48.552C113.883 47.864 114.195 46.968 114.195 45.864V43.752C114.195 42.648 113.883 41.76 113.259 41.088C112.635 40.4 111.779 40.056 110.691 40.056C110.259 40.056 109.843 40.12 109.443 40.248C109.059 40.36 108.723 40.52 108.435 40.728C108.147 40.936 107.915 41.192 107.739 41.496C107.579 41.784 107.499 42.096 107.499 42.432V47.04C107.499 47.44 107.579 47.8 107.739 48.12C107.915 48.424 108.147 48.688 108.435 48.912C108.723 49.12 109.059 49.28 109.443 49.392C109.843 49.504 110.259 49.56 110.691 49.56ZM120.032 40.296H118.016V38.616H120.032V36.12C120.032 35.256 120.256 34.56 120.704 34.032C121.152 33.504 121.832 33.24 122.744 33.24H124.616V34.92H121.952V38.616H124.616V40.296H121.952V51H120.032V40.296ZM136.142 51C135.422 51 134.902 50.808 134.582 50.424C134.278 50.04 134.086 49.56 134.006 48.984H133.886C133.614 49.752 133.166 50.328 132.542 50.712C131.918 51.096 131.174 51.288 130.31 51.288C128.998 51.288 127.974 50.952 127.238 50.28C126.518 49.608 126.158 48.696 126.158 47.544C126.158 46.376 126.582 45.48 127.43 44.856C128.294 44.232 129.63 43.92 131.438 43.92H133.886V42.696C133.886 41.816 133.646 41.144 133.166 40.68C132.686 40.216 131.95 39.984 130.958 39.984C130.206 39.984 129.574 40.152 129.062 40.488C128.566 40.824 128.15 41.272 127.814 41.832L126.662 40.752C126.998 40.08 127.534 39.512 128.27 39.048C129.006 38.568 129.934 38.328 131.054 38.328C132.558 38.328 133.726 38.696 134.558 39.432C135.39 40.168 135.806 41.192 135.806 42.504V49.32H137.222V51H136.142ZM130.622 49.656C131.102 49.656 131.542 49.6 131.942 49.488C132.342 49.376 132.686 49.216 132.974 49.008C133.262 48.8 133.486 48.56 133.646 48.288C133.806 48.016 133.886 47.72 133.886 47.4V45.36H131.342C130.238 45.36 129.43 45.52 128.918 45.84C128.422 46.16 128.174 46.624 128.174 47.232V47.736C128.174 48.344 128.39 48.816 128.822 49.152C129.27 49.488 129.87 49.656 130.622 49.656ZM144.57 51.288C143.706 51.288 142.93 51.136 142.242 50.832C141.554 50.528 140.97 50.096 140.49 49.536C140.026 48.976 139.666 48.296 139.41 47.496C139.17 46.696 139.05 45.8 139.05 44.808C139.05 43.816 139.17 42.92 139.41 42.12C139.666 41.32 140.026 40.64 140.49 40.08C140.97 39.52 141.554 39.088 142.242 38.784C142.93 38.48 143.706 38.328 144.57 38.328C145.802 38.328 146.786 38.6 147.522 39.144C148.274 39.672 148.834 40.368 149.202 41.232L147.594 42.048C147.37 41.408 147.002 40.912 146.49 40.56C145.978 40.208 145.338 40.032 144.57 40.032C143.994 40.032 143.49 40.128 143.058 40.32C142.626 40.496 142.266 40.752 141.978 41.088C141.69 41.408 141.474 41.8 141.33 42.264C141.186 42.712 141.114 43.208 141.114 43.752V45.864C141.114 46.952 141.402 47.848 141.978 48.552C142.57 49.24 143.434 49.584 144.57 49.584C146.122 49.584 147.242 48.864 147.93 47.424L149.322 48.36C148.922 49.256 148.322 49.968 147.522 50.496C146.738 51.024 145.754 51.288 144.57 51.288ZM156.548 51.288C155.7 51.288 154.932 51.136 154.244 50.832C153.572 50.528 152.988 50.096 152.492 49.536C152.012 48.96 151.636 48.28 151.364 47.496C151.108 46.696 150.98 45.8 150.98 44.808C150.98 43.832 151.108 42.944 151.364 42.144C151.636 41.344 152.012 40.664 152.492 40.104C152.988 39.528 153.572 39.088 154.244 38.784C154.932 38.48 155.7 38.328 156.548 38.328C157.38 38.328 158.124 38.48 158.78 38.784C159.436 39.088 159.996 39.512 160.46 40.056C160.924 40.584 161.276 41.216 161.516 41.952C161.772 42.688 161.9 43.496 161.9 44.376V45.288H152.996V45.864C152.996 46.392 153.076 46.888 153.236 47.352C153.412 47.8 153.652 48.192 153.956 48.528C154.276 48.864 154.66 49.128 155.108 49.32C155.572 49.512 156.092 49.608 156.668 49.608C157.452 49.608 158.132 49.424 158.708 49.056C159.3 48.688 159.756 48.16 160.076 47.472L161.444 48.456C161.044 49.304 160.42 49.992 159.572 50.52C158.724 51.032 157.716 51.288 156.548 51.288ZM156.548 39.936C156.02 39.936 155.54 40.032 155.108 40.224C154.676 40.4 154.3 40.656 153.98 40.992C153.676 41.328 153.436 41.728 153.26 42.192C153.084 42.64 152.996 43.136 152.996 43.68V43.848H159.836V43.584C159.836 42.48 159.532 41.6 158.924 40.944C158.332 40.272 157.54 39.936 156.548 39.936ZM175.343 51.288C174.479 51.288 173.703 51.136 173.015 50.832C172.327 50.528 171.743 50.096 171.263 49.536C170.799 48.976 170.439 48.296 170.183 47.496C169.943 46.696 169.823 45.8 169.823 44.808C169.823 43.816 169.943 42.92 170.183 42.12C170.439 41.32 170.799 40.64 171.263 40.08C171.743 39.52 172.327 39.088 173.015 38.784C173.703 38.48 174.479 38.328 175.343 38.328C176.575 38.328 177.559 38.6 178.295 39.144C179.047 39.672 179.607 40.368 179.975 41.232L178.367 42.048C178.143 41.408 177.775 40.912 177.263 40.56C176.751 40.208 176.111 40.032 175.343 40.032C174.767 40.032 174.263 40.128 173.831 40.32C173.399 40.496 173.039 40.752 172.751 41.088C172.463 41.408 172.247 41.8 172.103 42.264C171.959 42.712 171.887 43.208 171.887 43.752V45.864C171.887 46.952 172.175 47.848 172.751 48.552C173.343 49.24 174.207 49.584 175.343 49.584C176.895 49.584 178.015 48.864 178.703 47.424L180.095 48.36C179.695 49.256 179.095 49.968 178.295 50.496C177.511 51.024 176.527 51.288 175.343 51.288ZM187.345 51.288C186.513 51.288 185.753 51.136 185.065 50.832C184.377 50.528 183.785 50.096 183.289 49.536C182.809 48.96 182.433 48.28 182.161 47.496C181.889 46.696 181.753 45.8 181.753 44.808C181.753 43.832 181.889 42.944 182.161 42.144C182.433 41.344 182.809 40.664 183.289 40.104C183.785 39.528 184.377 39.088 185.065 38.784C185.753 38.48 186.513 38.328 187.345 38.328C188.177 38.328 188.929 38.48 189.601 38.784C190.289 39.088 190.881 39.528 191.377 40.104C191.873 40.664 192.257 41.344 192.529 42.144C192.801 42.944 192.937 43.832 192.937 44.808C192.937 45.8 192.801 46.696 192.529 47.496C192.257 48.28 191.873 48.96 191.377 49.536C190.881 50.096 190.289 50.528 189.601 50.832C188.929 51.136 188.177 51.288 187.345 51.288ZM187.345 49.584C188.385 49.584 189.233 49.264 189.889 48.624C190.545 47.984 190.873 47.008 190.873 45.696V43.92C190.873 42.608 190.545 41.632 189.889 40.992C189.233 40.352 188.385 40.032 187.345 40.032C186.305 40.032 185.457 40.352 184.801 40.992C184.145 41.632 183.817 42.608 183.817 43.92V45.696C183.817 47.008 184.145 47.984 184.801 48.624C185.457 49.264 186.305 49.584 187.345 49.584ZM196.095 51V38.616H198.015V40.632H198.111C198.415 39.928 198.839 39.368 199.383 38.952C199.943 38.536 200.687 38.328 201.615 38.328C202.895 38.328 203.903 38.744 204.639 39.576C205.391 40.392 205.767 41.552 205.767 43.056V51H203.847V43.392C203.847 41.168 202.911 40.056 201.039 40.056C200.655 40.056 200.279 40.104 199.911 40.2C199.559 40.296 199.239 40.44 198.951 40.632C198.663 40.824 198.431 41.072 198.255 41.376C198.095 41.664 198.015 42.008 198.015 42.408V51H196.095ZM212.471 51C211.799 51 211.287 50.816 210.935 50.448C210.599 50.064 210.431 49.568 210.431 48.96V40.296H208.391V38.616H209.543C209.959 38.616 210.239 38.536 210.383 38.376C210.543 38.2 210.623 37.904 210.623 37.488V35.184H212.351V38.616H215.063V40.296H212.351V49.32H214.871V51H212.471ZM218.149 51V38.616H220.069V40.896H220.189C220.413 40.304 220.813 39.776 221.389 39.312C221.965 38.848 222.757 38.616 223.765 38.616H224.509V40.536H223.381C222.341 40.536 221.525 40.736 220.933 41.136C220.357 41.52 220.069 42.008 220.069 42.6V51H218.149ZM231.525 51.288C230.693 51.288 229.933 51.136 229.245 50.832C228.557 50.528 227.965 50.096 227.469 49.536C226.989 48.96 226.613 48.28 226.341 47.496C226.069 46.696 225.933 45.8 225.933 44.808C225.933 43.832 226.069 42.944 226.341 42.144C226.613 41.344 226.989 40.664 227.469 40.104C227.965 39.528 228.557 39.088 229.245 38.784C229.933 38.48 230.693 38.328 231.525 38.328C232.357 38.328 233.109 38.48 233.781 38.784C234.469 39.088 235.061 39.528 235.557 40.104C236.053 40.664 236.437 41.344 236.709 42.144C236.981 42.944 237.117 43.832 237.117 44.808C237.117 45.8 236.981 46.696 236.709 47.496C236.437 48.28 236.053 48.96 235.557 49.536C235.061 50.096 234.469 50.528 233.781 50.832C233.109 51.136 232.357 51.288 231.525 51.288ZM231.525 49.584C232.565 49.584 233.413 49.264 234.069 48.624C234.725 47.984 235.053 47.008 235.053 45.696V43.92C235.053 42.608 234.725 41.632 234.069 40.992C233.413 40.352 232.565 40.032 231.525 40.032C230.485 40.032 229.637 40.352 228.981 40.992C228.325 41.632 227.997 42.608 227.997 43.92V45.696C227.997 47.008 228.325 47.984 228.981 48.624C229.637 49.264 230.485 49.584 231.525 49.584ZM242.314 51C241.642 51 241.13 50.816 240.778 50.448C240.442 50.064 240.274 49.584 240.274 49.008V33.24H242.194V49.32H244.018V51H242.314ZM27.25 71.712C26.834 71.712 26.53 71.616 26.338 71.424C26.162 71.216 26.074 70.952 26.074 70.632V70.32C26.074 70 26.162 69.744 26.338 69.552C26.53 69.344 26.834 69.24 27.25 69.24C27.666 69.24 27.962 69.344 28.138 69.552C28.33 69.744 28.426 70 28.426 70.32V70.632C28.426 70.952 28.33 71.216 28.138 71.424C27.962 71.616 27.666 71.712 27.25 71.712ZM26.29 74.616H28.21V87H26.29V74.616ZM32.29 87V74.616H34.21V76.632H34.306C34.45 76.312 34.61 76.016 34.786 75.744C34.978 75.456 35.202 75.208 35.458 75C35.73 74.792 36.042 74.632 36.394 74.52C36.746 74.392 37.162 74.328 37.642 74.328C38.458 74.328 39.21 74.528 39.898 74.928C40.586 75.312 41.098 75.952 41.434 76.848H41.482C41.706 76.176 42.122 75.592 42.73 75.096C43.354 74.584 44.194 74.328 45.25 74.328C46.514 74.328 47.498 74.744 48.202 75.576C48.922 76.392 49.282 77.552 49.282 79.056V87H47.362V79.392C47.362 78.288 47.146 77.456 46.714 76.896C46.282 76.336 45.594 76.056 44.65 76.056C44.266 76.056 43.898 76.104 43.546 76.2C43.21 76.296 42.906 76.44 42.634 76.632C42.362 76.824 42.146 77.072 41.986 77.376C41.826 77.664 41.746 78.008 41.746 78.408V87H39.826V79.392C39.826 78.288 39.61 77.456 39.178 76.896C38.746 76.336 38.074 76.056 37.162 76.056C36.778 76.056 36.41 76.104 36.058 76.2C35.706 76.296 35.394 76.44 35.122 76.632C34.85 76.824 34.626 77.072 34.45 77.376C34.29 77.664 34.21 78.008 34.21 78.408V87H32.29ZM53.2431 74.616H55.1631V76.632H55.2591C55.5791 75.848 56.0431 75.272 56.6511 74.904C57.2751 74.52 58.0191 74.328 58.8831 74.328C59.6511 74.328 60.3471 74.48 60.9711 74.784C61.5951 75.088 62.1231 75.52 62.5551 76.08C63.0031 76.64 63.3391 77.32 63.5631 78.12C63.8031 78.92 63.9231 79.816 63.9231 80.808C63.9231 81.8 63.8031 82.696 63.5631 83.496C63.3391 84.296 63.0031 84.976 62.5551 85.536C62.1231 86.096 61.5951 86.528 60.9711 86.832C60.3471 87.136 59.6511 87.288 58.8831 87.288C57.2031 87.288 55.9951 86.52 55.2591 84.984H55.1631V91.8H53.2431V74.616ZM58.3551 85.56C59.4431 85.56 60.2991 85.224 60.9231 84.552C61.5471 83.864 61.8591 82.968 61.8591 81.864V79.752C61.8591 78.648 61.5471 77.76 60.9231 77.088C60.2991 76.4 59.4431 76.056 58.3551 76.056C57.9231 76.056 57.5071 76.12 57.1071 76.248C56.7231 76.36 56.3871 76.52 56.0991 76.728C55.8111 76.936 55.5791 77.192 55.4031 77.496C55.2431 77.784 55.1631 78.096 55.1631 78.432V83.04C55.1631 83.44 55.2431 83.8 55.4031 84.12C55.5791 84.424 55.8111 84.688 56.0991 84.912C56.3871 85.12 56.7231 85.28 57.1071 85.392C57.5071 85.504 57.9231 85.56 58.3551 85.56ZM67.165 87V74.616H69.085V76.896H69.205C69.429 76.304 69.829 75.776 70.405 75.312C70.981 74.848 71.773 74.616 72.781 74.616H73.525V76.536H72.397C71.357 76.536 70.541 76.736 69.949 77.136C69.373 77.52 69.085 78.008 69.085 78.6V87H67.165ZM80.5403 87.288C79.7083 87.288 78.9483 87.136 78.2603 86.832C77.5723 86.528 76.9803 86.096 76.4843 85.536C76.0043 84.96 75.6283 84.28 75.3563 83.496C75.0843 82.696 74.9483 81.8 74.9483 80.808C74.9483 79.832 75.0843 78.944 75.3563 78.144C75.6283 77.344 76.0043 76.664 76.4843 76.104C76.9803 75.528 77.5723 75.088 78.2603 74.784C78.9483 74.48 79.7083 74.328 80.5403 74.328C81.3723 74.328 82.1243 74.48 82.7963 74.784C83.4843 75.088 84.0763 75.528 84.5723 76.104C85.0683 76.664 85.4523 77.344 85.7243 78.144C85.9963 78.944 86.1323 79.832 86.1323 80.808C86.1323 81.8 85.9963 82.696 85.7243 83.496C85.4523 84.28 85.0683 84.96 84.5723 85.536C84.0763 86.096 83.4843 86.528 82.7963 86.832C82.1243 87.136 81.3723 87.288 80.5403 87.288ZM80.5403 85.584C81.5803 85.584 82.4283 85.264 83.0843 84.624C83.7403 83.984 84.0683 83.008 84.0683 81.696V79.92C84.0683 78.608 83.7403 77.632 83.0843 76.992C82.4283 76.352 81.5803 76.032 80.5403 76.032C79.5003 76.032 78.6523 76.352 77.9963 76.992C77.3403 77.632 77.0123 78.608 77.0123 79.92V81.696C77.0123 83.008 77.3403 83.984 77.9963 84.624C78.6523 85.264 79.5003 85.584 80.5403 85.584ZM91.8385 87L87.4945 74.616H89.4145L91.5745 80.76L92.9185 84.984H93.0385L94.3825 80.76L96.5905 74.616H98.4385L94.0705 87H91.8385ZM105.384 87.288C104.536 87.288 103.768 87.136 103.08 86.832C102.408 86.528 101.824 86.096 101.328 85.536C100.848 84.96 100.472 84.28 100.2 83.496C99.9435 82.696 99.8155 81.8 99.8155 80.808C99.8155 79.832 99.9435 78.944 100.2 78.144C100.472 77.344 100.848 76.664 101.328 76.104C101.824 75.528 102.408 75.088 103.08 74.784C103.768 74.48 104.536 74.328 105.384 74.328C106.216 74.328 106.96 74.48 107.616 74.784C108.272 75.088 108.832 75.512 109.296 76.056C109.76 76.584 110.112 77.216 110.352 77.952C110.608 78.688 110.736 79.496 110.736 80.376V81.288H101.832V81.864C101.832 82.392 101.912 82.888 102.072 83.352C102.248 83.8 102.488 84.192 102.792 84.528C103.112 84.864 103.496 85.128 103.944 85.32C104.408 85.512 104.928 85.608 105.504 85.608C106.288 85.608 106.968 85.424 107.544 85.056C108.136 84.688 108.592 84.16 108.912 83.472L110.28 84.456C109.88 85.304 109.256 85.992 108.408 86.52C107.56 87.032 106.552 87.288 105.384 87.288ZM105.384 75.936C104.856 75.936 104.376 76.032 103.944 76.224C103.512 76.4 103.136 76.656 102.816 76.992C102.512 77.328 102.272 77.728 102.096 78.192C101.92 78.64 101.832 79.136 101.832 79.68V79.848H108.672V79.584C108.672 78.48 108.368 77.6 107.76 76.944C107.168 76.272 106.376 75.936 105.384 75.936ZM127.203 74.616H129.099L123.555 89.88C123.411 90.248 123.267 90.552 123.123 90.792C122.979 91.048 122.803 91.248 122.595 91.392C122.387 91.536 122.123 91.64 121.803 91.704C121.499 91.768 121.123 91.8 120.675 91.8H119.691V90.12H121.635L122.571 87.48L117.939 74.616H119.859L122.835 83.04L123.411 85.056H123.531L124.203 83.04L127.203 74.616ZM136.111 87.288C135.279 87.288 134.519 87.136 133.831 86.832C133.143 86.528 132.551 86.096 132.055 85.536C131.575 84.96 131.199 84.28 130.927 83.496C130.655 82.696 130.519 81.8 130.519 80.808C130.519 79.832 130.655 78.944 130.927 78.144C131.199 77.344 131.575 76.664 132.055 76.104C132.551 75.528 133.143 75.088 133.831 74.784C134.519 74.48 135.279 74.328 136.111 74.328C136.943 74.328 137.695 74.48 138.367 74.784C139.055 75.088 139.647 75.528 140.143 76.104C140.639 76.664 141.023 77.344 141.295 78.144C141.567 78.944 141.703 79.832 141.703 80.808C141.703 81.8 141.567 82.696 141.295 83.496C141.023 84.28 140.639 84.96 140.143 85.536C139.647 86.096 139.055 86.528 138.367 86.832C137.695 87.136 136.943 87.288 136.111 87.288ZM136.111 85.584C137.151 85.584 137.999 85.264 138.655 84.624C139.311 83.984 139.639 83.008 139.639 81.696V79.92C139.639 78.608 139.311 77.632 138.655 76.992C137.999 76.352 137.151 76.032 136.111 76.032C135.071 76.032 134.223 76.352 133.567 76.992C132.911 77.632 132.583 78.608 132.583 79.92V81.696C132.583 83.008 132.911 83.984 133.567 84.624C134.223 85.264 135.071 85.584 136.111 85.584ZM152.492 84.984H152.396C152.268 85.272 152.108 85.56 151.916 85.848C151.74 86.12 151.516 86.368 151.244 86.592C150.972 86.8 150.644 86.968 150.26 87.096C149.876 87.224 149.428 87.288 148.916 87.288C147.636 87.288 146.62 86.88 145.868 86.064C145.116 85.232 144.74 84.064 144.74 82.56V74.616H146.66V82.224C146.66 84.448 147.604 85.56 149.492 85.56C149.876 85.56 150.244 85.512 150.596 85.416C150.964 85.32 151.284 85.176 151.556 84.984C151.844 84.792 152.068 84.552 152.228 84.264C152.404 83.96 152.492 83.6 152.492 83.184V74.616H154.412V87H152.492V84.984ZM158.501 87V74.616H160.421V76.896H160.541C160.765 76.304 161.165 75.776 161.741 75.312C162.317 74.848 163.109 74.616 164.117 74.616H164.861V76.536H163.733C162.693 76.536 161.877 76.736 161.285 77.136C160.709 77.52 160.421 78.008 160.421 78.6V87H158.501ZM176.705 87.288C175.553 87.288 174.585 87.072 173.801 86.64C173.033 86.192 172.369 85.6 171.809 84.864L173.177 83.76C173.657 84.368 174.193 84.84 174.785 85.176C175.377 85.496 176.065 85.656 176.849 85.656C177.665 85.656 178.297 85.48 178.745 85.128C179.209 84.776 179.441 84.28 179.441 83.64C179.441 83.16 179.281 82.752 178.961 82.416C178.657 82.064 178.097 81.824 177.281 81.696L176.297 81.552C175.721 81.472 175.193 81.352 174.713 81.192C174.233 81.016 173.809 80.792 173.441 80.52C173.089 80.232 172.809 79.88 172.601 79.464C172.409 79.048 172.313 78.552 172.313 77.976C172.313 77.368 172.425 76.84 172.649 76.392C172.873 75.928 173.177 75.544 173.561 75.24C173.961 74.936 174.433 74.712 174.977 74.568C175.521 74.408 176.105 74.328 176.729 74.328C177.737 74.328 178.577 74.504 179.249 74.856C179.937 75.208 180.537 75.696 181.049 76.32L179.777 77.472C179.505 77.088 179.105 76.744 178.577 76.44C178.049 76.12 177.385 75.96 176.585 75.96C175.785 75.96 175.177 76.136 174.761 76.488C174.361 76.824 174.161 77.288 174.161 77.88C174.161 78.488 174.361 78.928 174.761 79.2C175.177 79.472 175.769 79.672 176.537 79.8L177.497 79.944C178.873 80.152 179.849 80.552 180.425 81.144C181.001 81.72 181.289 82.48 181.289 83.424C181.289 84.624 180.881 85.568 180.065 86.256C179.249 86.944 178.129 87.288 176.705 87.288ZM183.174 74.616H185.046L186.366 79.968L187.686 85.392H187.734L189.246 79.968L190.806 74.616H192.51L194.118 79.968L195.654 85.392H195.702L196.974 79.968L198.318 74.616H200.118L196.83 87H194.454L192.726 81.048L191.646 77.28H191.598L190.542 81.048L188.814 87H186.486L183.174 74.616ZM203.852 71.712C203.436 71.712 203.132 71.616 202.94 71.424C202.764 71.216 202.676 70.952 202.676 70.632V70.32C202.676 70 202.764 69.744 202.94 69.552C203.132 69.344 203.436 69.24 203.852 69.24C204.268 69.24 204.564 69.344 204.74 69.552C204.932 69.744 205.028 70 205.028 70.32V70.632C205.028 70.952 204.932 71.216 204.74 71.424C204.564 71.616 204.268 71.712 203.852 71.712ZM202.892 74.616H204.812V87H202.892V74.616ZM208.892 87V74.616H210.812V76.632H210.908C211.212 75.928 211.636 75.368 212.18 74.952C212.74 74.536 213.484 74.328 214.412 74.328C215.692 74.328 216.7 74.744 217.436 75.576C218.188 76.392 218.564 77.552 218.564 79.056V87H216.644V79.392C216.644 77.168 215.708 76.056 213.836 76.056C213.452 76.056 213.076 76.104 212.708 76.2C212.356 76.296 212.036 76.44 211.748 76.632C211.46 76.824 211.228 77.072 211.052 77.376C210.892 77.664 210.812 78.008 210.812 78.408V87H208.892ZM232.972 88.368C232.972 89.648 232.468 90.584 231.46 91.176C230.468 91.784 228.972 92.088 226.972 92.088C225.036 92.088 223.644 91.824 222.796 91.296C221.948 90.768 221.524 90.016 221.524 89.04C221.524 88.368 221.7 87.84 222.052 87.456C222.404 87.088 222.884 86.816 223.492 86.64V86.376C222.756 86.024 222.388 85.448 222.388 84.648C222.388 84.024 222.588 83.552 222.988 83.232C223.388 82.896 223.9 82.648 224.524 82.488V82.392C223.788 82.04 223.212 81.536 222.796 80.88C222.396 80.224 222.196 79.464 222.196 78.6C222.196 77.976 222.308 77.4 222.532 76.872C222.756 76.344 223.068 75.896 223.468 75.528C223.884 75.144 224.372 74.848 224.932 74.64C225.508 74.432 226.148 74.328 226.852 74.328C227.732 74.328 228.516 74.488 229.204 74.808V74.592C229.204 74.112 229.316 73.72 229.54 73.416C229.764 73.096 230.132 72.936 230.644 72.936H232.492V74.616H230.14V75.408C230.588 75.792 230.932 76.256 231.172 76.8C231.428 77.328 231.556 77.928 231.556 78.6C231.556 79.224 231.444 79.8 231.22 80.328C230.996 80.856 230.676 81.312 230.26 81.696C229.86 82.064 229.372 82.352 228.796 82.56C228.22 82.768 227.58 82.872 226.876 82.872C226.476 82.872 226.076 82.832 225.676 82.752C225.26 82.864 224.884 83.032 224.548 83.256C224.212 83.464 224.044 83.76 224.044 84.144C224.044 84.512 224.22 84.76 224.572 84.888C224.924 85.016 225.38 85.08 225.94 85.08H228.58C230.116 85.08 231.228 85.376 231.916 85.968C232.62 86.544 232.972 87.344 232.972 88.368ZM231.172 88.512C231.172 88.016 230.98 87.616 230.596 87.312C230.228 87.024 229.564 86.88 228.604 86.88H224.476C223.708 87.232 223.324 87.792 223.324 88.56C223.324 89.104 223.524 89.568 223.924 89.952C224.34 90.336 225.036 90.528 226.012 90.528H227.788C228.86 90.528 229.692 90.36 230.284 90.024C230.876 89.688 231.172 89.184 231.172 88.512ZM226.876 81.336C227.692 81.336 228.34 81.144 228.82 80.76C229.3 80.36 229.54 79.752 229.54 78.936V78.264C229.54 77.448 229.3 76.848 228.82 76.464C228.34 76.064 227.692 75.864 226.876 75.864C226.06 75.864 225.412 76.064 224.932 76.464C224.452 76.848 224.212 77.448 224.212 78.264V78.936C224.212 79.752 224.452 80.36 224.932 80.76C225.412 81.144 226.06 81.336 226.876 81.336ZM237.468 82.008V78.072C238.78 78.008 239.804 77.688 240.54 77.112C241.292 76.536 241.668 75.744 241.668 74.736V74.4C241.668 73.584 241.412 72.936 240.9 72.456C240.388 71.96 239.7 71.712 238.836 71.712C237.908 71.712 237.164 71.976 236.604 72.504C236.06 73.032 235.692 73.704 235.5 74.52L233.724 73.848C233.868 73.336 234.076 72.848 234.348 72.384C234.636 71.904 234.988 71.488 235.404 71.136C235.836 70.768 236.34 70.48 236.916 70.272C237.492 70.064 238.156 69.96 238.908 69.96C240.396 69.96 241.572 70.368 242.436 71.184C243.3 72 243.732 73.104 243.732 74.496C243.732 75.264 243.596 75.936 243.324 76.512C243.068 77.072 242.732 77.552 242.316 77.952C241.9 78.352 241.428 78.672 240.9 78.912C240.372 79.152 239.844 79.32 239.316 79.416V82.008H237.468ZM238.404 87.288C237.892 87.288 237.516 87.16 237.276 86.904C237.052 86.648 236.94 86.312 236.94 85.896V85.584C236.94 85.168 237.052 84.832 237.276 84.576C237.516 84.32 237.892 84.192 238.404 84.192C238.916 84.192 239.284 84.32 239.508 84.576C239.748 84.832 239.868 85.168 239.868 85.584V85.896C239.868 86.312 239.748 86.648 239.508 86.904C239.284 87.16 238.916 87.288 238.404 87.288Z" fill="black"/>
<path d="M24.25 108H251" stroke="black" stroke-opacity="0.07" stroke-linecap="round"/>
<path d="M80.6172 216.583L78.5862 211.689L76.9896 206.637L75.8394 201.464L75.1443 196.211L74.9098 190.917L75.1375 185.623L75.8258 180.369L76.9693 175.195L78.5595 170.141L80.5841 165.244L83.0278 160.542L85.872 156.072L89.095 151.866L92.6724 147.957L96.5768 144.374L100.779 141.146L105.246 138.296L109.944 135.846L114.838 133.815L119.891 132.218L125.064 131.068L130.317 130.373L135.61 130.139L140.904 130.366L146.158 131.055L151.332 132.198L156.387 133.788L161.284 135.813L165.985 138.257L170.456 141.101L174.662 144.324L178.571 147.901L182.153 151.806L185.382 156.007L188.232 160.475L190.682 165.173L192.713 170.067L194.309 175.12L195.459 180.292L196.154 185.546L196.389 190.839L196.161 196.133L195.473 201.387L194.329 206.561L192.739 211.616L190.715 216.512" stroke="#5773FF" stroke-opacity="0.2" stroke-width="4.45455" stroke-linecap="round"/>
<path d="M111.49 200.091V190.291L102.938 175.217H107.535L113.593 186.3H113.7L119.722 175.217H124.141L115.517 190.22V200.091H111.49ZM132.675 200.519C131.345 200.519 130.157 200.293 129.112 199.842C128.066 199.39 127.175 198.749 126.439 197.917C125.702 197.062 125.132 196.04 124.728 194.852C124.348 193.641 124.158 192.299 124.158 190.826C124.158 189.353 124.348 188.022 124.728 186.834C125.132 185.623 125.702 184.601 126.439 183.77C127.175 182.914 128.066 182.261 129.112 181.81C130.157 181.358 131.345 181.132 132.675 181.132C134.029 181.132 135.217 181.37 136.239 181.845C137.284 182.32 138.151 182.986 138.84 183.841C139.529 184.672 140.04 185.646 140.373 186.763C140.729 187.88 140.907 189.079 140.907 190.362V191.823H128.185V192.429C128.185 193.855 128.601 195.031 129.432 195.957C130.288 196.86 131.499 197.311 133.067 197.311C134.208 197.311 135.17 197.062 135.954 196.563C136.738 196.064 137.403 195.387 137.949 194.532L140.23 196.777C139.541 197.917 138.543 198.832 137.237 199.521C135.93 200.186 134.41 200.519 132.675 200.519ZM132.675 184.162C132.01 184.162 131.392 184.28 130.822 184.518C130.276 184.756 129.801 185.088 129.397 185.516C129.017 185.943 128.72 186.454 128.506 187.048C128.292 187.642 128.185 188.295 128.185 189.008V189.258H136.809V188.901C136.809 187.476 136.441 186.335 135.704 185.48C134.968 184.601 133.958 184.162 132.675 184.162ZM151.087 200.519C149.329 200.519 147.856 200.21 146.668 199.592C145.481 198.974 144.447 198.119 143.568 197.026L146.063 194.746C146.752 195.577 147.512 196.23 148.343 196.706C149.199 197.157 150.185 197.383 151.301 197.383C152.441 197.383 153.285 197.169 153.831 196.741C154.401 196.29 154.687 195.672 154.687 194.888C154.687 194.294 154.485 193.795 154.081 193.391C153.701 192.964 153.024 192.691 152.049 192.572L150.339 192.358C148.438 192.12 146.942 191.574 145.849 190.719C144.78 189.84 144.245 188.545 144.245 186.834C144.245 185.932 144.411 185.136 144.744 184.447C145.077 183.734 145.54 183.14 146.134 182.665C146.752 182.166 147.476 181.786 148.308 181.524C149.163 181.263 150.101 181.132 151.123 181.132C152.786 181.132 154.14 181.394 155.185 181.916C156.255 182.439 157.205 183.164 158.036 184.09L155.649 186.371C155.174 185.801 154.544 185.314 153.76 184.91C153 184.482 152.121 184.268 151.123 184.268C150.054 184.268 149.258 184.482 148.735 184.91C148.236 185.338 147.987 185.896 147.987 186.585C147.987 187.298 148.213 187.832 148.664 188.188C149.115 188.545 149.84 188.806 150.838 188.972L152.548 189.186C154.592 189.495 156.076 190.101 157.003 191.004C157.953 191.883 158.428 193.071 158.428 194.567C158.428 195.47 158.25 196.29 157.894 197.026C157.561 197.739 157.074 198.357 156.433 198.879C155.791 199.402 155.019 199.806 154.116 200.091C153.214 200.376 152.204 200.519 151.087 200.519ZM164.456 192.964L163.209 182.308V175.217H167.414V182.308L166.238 192.964H164.456ZM165.347 200.519C164.444 200.519 163.779 200.305 163.351 199.877C162.947 199.426 162.745 198.856 162.745 198.167V197.561C162.745 196.872 162.947 196.314 163.351 195.886C163.779 195.435 164.444 195.209 165.347 195.209C166.25 195.209 166.903 195.435 167.307 195.886C167.734 196.314 167.948 196.872 167.948 197.561V198.167C167.948 198.856 167.734 199.426 167.307 199.877C166.903 200.305 166.25 200.519 165.347 200.519Z" fill="#5773FF"/>
<mask id="mask0_1_14953" style="mask-type:alpha" maskUnits="userSpaceOnUse" x="89" y="223" width="20" height="20">
<rect x="89.1818" y="223.568" width="19.1545" height="19.1545" fill="#D9D9D9"/>
</mask>
<g mask="url(#mask0_1_14953)">
<path d="M98.7591 237.686L95.6542 239.558C95.5386 239.626 95.4227 239.654 95.3066 239.643C95.1904 239.632 95.0853 239.593 94.9911 239.526C94.897 239.458 94.8244 239.37 94.7732 239.261C94.722 239.152 94.7139 239.032 94.7487 238.9L95.5728 235.374L92.8317 233.001C92.7294 232.912 92.6641 232.809 92.636 232.692C92.6079 232.575 92.6153 232.461 92.6582 232.351C92.7012 232.24 92.7631 232.15 92.844 232.08C92.9248 232.01 93.0353 231.964 93.1755 231.942L96.793 231.626L98.1974 228.297C98.2485 228.173 98.326 228.082 98.4299 228.022C98.5337 227.963 98.6435 227.933 98.7591 227.933C98.8747 227.933 98.9845 227.963 99.0883 228.022C99.1922 228.082 99.2697 228.173 99.3208 228.297L100.725 231.626L104.343 231.942C104.483 231.964 104.593 232.01 104.674 232.08C104.755 232.15 104.817 232.24 104.86 232.351C104.903 232.461 104.91 232.575 104.882 232.692C104.854 232.809 104.789 232.912 104.687 233.001L101.945 235.374L102.77 238.9C102.804 239.032 102.796 239.152 102.745 239.261C102.694 239.37 102.621 239.458 102.527 239.526C102.433 239.593 102.328 239.632 102.212 239.643C102.096 239.654 101.98 239.626 101.864 239.558L98.7591 237.686Z" fill="#FFD000"/>
</g>
<mask id="mask1_1_14953" style="mask-type:alpha" maskUnits="userSpaceOnUse" x="108" y="223" width="20" height="20">
<rect x="108.336" y="223.568" width="19.1545" height="19.1545" fill="#D9D9D9"/>
</mask>
<g mask="url(#mask1_1_14953)">
<path d="M117.914 237.686L114.809 239.558C114.693 239.626 114.577 239.654 114.461 239.643C114.345 239.632 114.24 239.593 114.146 239.526C114.052 239.458 113.979 239.37 113.928 239.261C113.877 239.152 113.868 239.032 113.903 238.9L114.727 235.374L111.986 233.001C111.884 232.912 111.819 232.809 111.791 232.692C111.762 232.575 111.77 232.461 111.813 232.351C111.856 232.24 111.918 232.15 111.998 232.08C112.079 232.01 112.19 231.964 112.33 231.942L115.948 231.626L117.352 228.297C117.403 228.173 117.481 228.082 117.584 228.022C117.688 227.963 117.798 227.933 117.914 227.933C118.029 227.933 118.139 227.963 118.243 228.022C118.347 228.082 118.424 228.173 118.475 228.297L119.88 231.626L123.497 231.942C123.637 231.964 123.748 232.01 123.829 232.08C123.91 232.15 123.972 232.24 124.015 232.351C124.057 232.461 124.065 232.575 124.037 232.692C124.009 232.809 123.943 232.912 123.841 233.001L121.1 235.374L121.924 238.9C121.959 239.032 121.951 239.152 121.9 239.261C121.848 239.37 121.776 239.458 121.682 239.526C121.587 239.593 121.482 239.632 121.366 239.643C121.25 239.654 121.134 239.626 121.019 239.558L117.914 237.686Z" fill="#FFD000"/>
</g>
<mask id="mask2_1_14953" style="mask-type:alpha" maskUnits="userSpaceOnUse" x="127" y="223" width="20" height="20">
<rect x="127.491" y="223.568" width="19.1545" height="19.1545" fill="#D9D9D9"/>
</mask>
<g mask="url(#mask2_1_14953)">
<path d="M137.068 237.686L133.963 239.558C133.848 239.626 133.732 239.654 133.616 239.643C133.499 239.632 133.394 239.593 133.3 239.526C133.206 239.458 133.133 239.37 133.082 239.261C133.031 239.152 133.023 239.032 133.058 238.9L133.882 235.374L131.141 233.001C131.038 232.912 130.973 232.809 130.945 232.692C130.917 232.575 130.924 232.461 130.967 232.351C131.01 232.24 131.072 232.15 131.153 232.08C131.234 232.01 131.344 231.964 131.485 231.942L135.102 231.626L136.506 228.297C136.558 228.173 136.635 228.082 136.739 228.022C136.843 227.963 136.953 227.933 137.068 227.933C137.184 227.933 137.294 227.963 137.397 228.022C137.501 228.082 137.579 228.173 137.63 228.297L139.034 231.626L142.652 231.942C142.792 231.964 142.902 232.01 142.983 232.08C143.064 232.15 143.126 232.24 143.169 232.351C143.212 232.461 143.219 232.575 143.191 232.692C143.163 232.809 143.098 232.912 142.996 233.001L140.254 235.374L141.079 238.9C141.113 239.032 141.105 239.152 141.054 239.261C141.003 239.37 140.93 239.458 140.836 239.526C140.742 239.593 140.637 239.632 140.521 239.643C140.405 239.654 140.289 239.626 140.173 239.558L137.068 237.686Z" fill="#FFD000"/>
</g>
<mask id="mask3_1_14953" style="mask-type:alpha" maskUnits="userSpaceOnUse" x="146" y="223" width="20" height="20">
<rect x="146.645" y="223.568" width="19.1545" height="19.1545" fill="#D9D9D9"/>
</mask>
<g mask="url(#mask3_1_14953)">
<path d="M156.223 237.686L153.118 239.558C153.002 239.626 152.886 239.654 152.77 239.643C152.654 239.632 152.549 239.593 152.455 239.526C152.361 239.458 152.288 239.37 152.237 239.261C152.186 239.152 152.177 239.032 152.212 238.9L153.036 235.374L150.295 233.001C150.193 232.912 150.128 232.809 150.1 232.692C150.071 232.575 150.079 232.461 150.122 232.351C150.165 232.24 150.227 232.15 150.308 232.08C150.388 232.01 150.499 231.964 150.639 231.942L154.257 231.626L155.661 228.297C155.712 228.173 155.79 228.082 155.894 228.022C155.997 227.963 156.107 227.933 156.223 227.933C156.338 227.933 156.448 227.963 156.552 228.022C156.656 228.082 156.733 228.173 156.784 228.297L158.189 231.626L161.806 231.942C161.947 231.964 162.057 232.01 162.138 232.08C162.219 232.15 162.281 232.24 162.324 232.351C162.367 232.461 162.374 232.575 162.346 232.692C162.318 232.809 162.252 232.912 162.15 233.001L159.409 235.374L160.233 238.9C160.268 239.032 160.26 239.152 160.209 239.261C160.157 239.37 160.085 239.458 159.991 239.526C159.897 239.593 159.791 239.632 159.675 239.643C159.559 239.654 159.443 239.626 159.328 239.558L156.223 237.686Z" fill="#FFD000"/>
</g>
<mask id="mask4_1_14953" style="mask-type:alpha" maskUnits="userSpaceOnUse" x="165" y="223" width="20" height="20">
<rect x="165.8" y="223.568" width="19.1545" height="19.1545" fill="#D9D9D9"/>
</mask>
<g mask="url(#mask4_1_14953)">
<path d="M175.377 237.686L172.272 239.558C172.157 239.626 172.041 239.654 171.925 239.643C171.809 239.632 171.703 239.593 171.609 239.526C171.515 239.458 171.443 239.37 171.391 239.261C171.34 239.152 171.332 239.032 171.367 238.9L172.191 235.374L169.45 233.001C169.348 232.912 169.282 232.809 169.254 232.692C169.226 232.575 169.233 232.461 169.276 232.351C169.319 232.24 169.381 232.15 169.462 232.08C169.543 232.01 169.653 231.964 169.794 231.942L173.411 231.626L174.816 228.297C174.867 228.173 174.944 228.082 175.048 228.022C175.152 227.963 175.262 227.933 175.377 227.933C175.493 227.933 175.603 227.963 175.706 228.022C175.81 228.082 175.888 228.173 175.939 228.297L177.343 231.626L180.961 231.942C181.101 231.964 181.212 232.01 181.292 232.08C181.373 232.15 181.435 232.24 181.478 232.351C181.521 232.461 181.529 232.575 181.5 232.692C181.472 232.809 181.407 232.912 181.305 233.001L178.564 235.374L179.388 238.9C179.423 239.032 179.414 239.152 179.363 239.261C179.312 239.37 179.239 239.458 179.145 239.526C179.051 239.593 178.946 239.632 178.83 239.643C178.714 239.654 178.598 239.626 178.482 239.558L175.377 237.686Z" fill="#FFD000"/>
</g>
</svg>
