<svg width="328" height="263" viewBox="0 0 328 263" fill="none" xmlns="http://www.w3.org/2000/svg">
<path d="M0 16C0 7.16344 7.16344 0 16 0H312C320.837 0 328 7.16344 328 16V246.5C328 255.337 320.837 262.5 312 262.5H16C7.16345 262.5 0 255.337 0 246.5V16Z" fill="white"/>
<path d="M30.78 47.24C29.0067 47.24 27.6267 46.64 26.64 45.44C25.6533 44.2267 25.16 42.4467 25.16 40.1C25.16 37.7533 25.6533 35.9533 26.64 34.7C27.6267 33.4333 29.0067 32.8 30.78 32.8C31.9533 32.8 32.9333 33.0667 33.72 33.6C34.52 34.1333 35.14 34.8867 35.58 35.86L34.22 36.68C33.94 35.96 33.5133 35.3867 32.94 34.96C32.3667 34.52 31.6467 34.3 30.78 34.3C30.18 34.3 29.64 34.4133 29.16 34.64C28.6933 34.8667 28.2933 35.1933 27.96 35.62C27.64 36.0333 27.3933 36.5333 27.22 37.12C27.0467 37.6933 26.96 38.34 26.96 39.06V41.14C26.96 42.58 27.2933 43.7067 27.96 44.52C28.6267 45.3333 29.5667 45.74 30.78 45.74C31.6733 45.74 32.42 45.5133 33.02 45.06C33.62 44.5933 34.06 43.98 34.34 43.22L35.68 44.06C35.24 45.0467 34.6067 45.8267 33.78 46.4C32.9533 46.96 31.9533 47.24 30.78 47.24ZM45.6219 47C45.0219 47 44.5885 46.84 44.3219 46.52C44.0685 46.2 43.9085 45.8 43.8419 45.32H43.7419C43.5152 45.96 43.1419 46.44 42.6219 46.76C42.1019 47.08 41.4819 47.24 40.7619 47.24C39.6685 47.24 38.8152 46.96 38.2019 46.4C37.6019 45.84 37.3019 45.08 37.3019 44.12C37.3019 43.1467 37.6552 42.4 38.3619 41.88C39.0819 41.36 40.1952 41.1 41.7019 41.1H43.7419V40.08C43.7419 39.3467 43.5419 38.7867 43.1419 38.4C42.7419 38.0133 42.1285 37.82 41.3019 37.82C40.6752 37.82 40.1485 37.96 39.7219 38.24C39.3085 38.52 38.9619 38.8933 38.6819 39.36L37.7219 38.46C38.0019 37.9 38.4485 37.4267 39.0619 37.04C39.6752 36.64 40.4485 36.44 41.3819 36.44C42.6352 36.44 43.6085 36.7467 44.3019 37.36C44.9952 37.9733 45.3419 38.8267 45.3419 39.92V45.6H46.5219V47H45.6219ZM41.0219 45.88C41.4219 45.88 41.7885 45.8333 42.1219 45.74C42.4552 45.6467 42.7419 45.5133 42.9819 45.34C43.2219 45.1667 43.4085 44.9667 43.5419 44.74C43.6752 44.5133 43.7419 44.2667 43.7419 44V42.3H41.6219C40.7019 42.3 40.0285 42.4333 39.6019 42.7C39.1885 42.9667 38.9819 43.3533 38.9819 43.86V44.28C38.9819 44.7867 39.1619 45.18 39.5219 45.46C39.8952 45.74 40.3952 45.88 41.0219 45.88ZM48.8055 47V36.68H50.4055V38.36H50.4855C50.7388 37.7733 51.0921 37.3067 51.5455 36.96C52.0121 36.6133 52.6321 36.44 53.4055 36.44C54.4721 36.44 55.3121 36.7867 55.9255 37.48C56.5521 38.16 56.8655 39.1267 56.8655 40.38V47H55.2655V40.66C55.2655 38.8067 54.4855 37.88 52.9255 37.88C52.6055 37.88 52.2921 37.92 51.9855 38C51.6921 38.08 51.4255 38.2 51.1855 38.36C50.9455 38.52 50.7521 38.7267 50.6055 38.98C50.4721 39.22 50.4055 39.5067 50.4055 39.84V47H48.8055ZM68.7392 47.24C68.0192 47.24 67.3726 47.1133 66.7992 46.86C66.2259 46.6067 65.7392 46.2467 65.3392 45.78C64.9526 45.3133 64.6526 44.7467 64.4392 44.08C64.2392 43.4133 64.1392 42.6667 64.1392 41.84C64.1392 41.0133 64.2392 40.2667 64.4392 39.6C64.6526 38.9333 64.9526 38.3667 65.3392 37.9C65.7392 37.4333 66.2259 37.0733 66.7992 36.82C67.3726 36.5667 68.0192 36.44 68.7392 36.44C69.7659 36.44 70.5859 36.6667 71.1992 37.12C71.8259 37.56 72.2926 38.14 72.5992 38.86L71.2592 39.54C71.0726 39.0067 70.7659 38.5933 70.3392 38.3C69.9126 38.0067 69.3792 37.86 68.7392 37.86C68.2592 37.86 67.8392 37.94 67.4792 38.1C67.1192 38.2467 66.8192 38.46 66.5792 38.74C66.3392 39.0067 66.1592 39.3333 66.0392 39.72C65.9192 40.0933 65.8592 40.5067 65.8592 40.96V42.72C65.8592 43.6267 66.0992 44.3733 66.5792 44.96C67.0726 45.5333 67.7926 45.82 68.7392 45.82C70.0326 45.82 70.9659 45.22 71.5392 44.02L72.6992 44.8C72.3659 45.5467 71.8659 46.14 71.1992 46.58C70.5459 47.02 69.7259 47.24 68.7392 47.24ZM76.6578 47C76.0978 47 75.6711 46.8467 75.3778 46.54C75.0978 46.22 74.9578 45.82 74.9578 45.34V32.2H76.5578V45.6H78.0778V47H76.6578ZM86.767 45.32H86.687C86.5804 45.56 86.447 45.8 86.287 46.04C86.1404 46.2667 85.9537 46.4733 85.727 46.66C85.5004 46.8333 85.227 46.9733 84.907 47.08C84.587 47.1867 84.2137 47.24 83.787 47.24C82.7204 47.24 81.8737 46.9 81.247 46.22C80.6204 45.5267 80.307 44.5533 80.307 43.3V36.68H81.907V43.02C81.907 44.8733 82.6937 45.8 84.267 45.8C84.587 45.8 84.8937 45.76 85.187 45.68C85.4937 45.6 85.7604 45.48 85.987 45.32C86.227 45.16 86.4137 44.96 86.547 44.72C86.6937 44.4667 86.767 44.1667 86.767 43.82V36.68H88.367V47H86.767V45.32ZM91.7742 32.2H93.3742V38.36H93.4542C93.7209 37.7067 94.1076 37.2267 94.6142 36.92C95.1342 36.6 95.7542 36.44 96.4742 36.44C97.1142 36.44 97.6942 36.5667 98.2142 36.82C98.7342 37.0733 99.1742 37.4333 99.5342 37.9C99.9076 38.3667 100.188 38.9333 100.374 39.6C100.574 40.2667 100.674 41.0133 100.674 41.84C100.674 42.6667 100.574 43.4133 100.374 44.08C100.188 44.7467 99.9076 45.3133 99.5342 45.78C99.1742 46.2467 98.7342 46.6067 98.2142 46.86C97.6942 47.1133 97.1142 47.24 96.4742 47.24C95.0742 47.24 94.0676 46.6 93.4542 45.32H93.3742V47H91.7742V32.2ZM96.0342 45.8C96.9409 45.8 97.6542 45.52 98.1742 44.96C98.6942 44.3867 98.9542 43.64 98.9542 42.72V40.96C98.9542 40.04 98.6942 39.3 98.1742 38.74C97.6542 38.1667 96.9409 37.88 96.0342 37.88C95.6742 37.88 95.3276 37.9333 94.9942 38.04C94.6742 38.1333 94.3942 38.2667 94.1542 38.44C93.9142 38.6133 93.7209 38.8267 93.5742 39.08C93.4409 39.32 93.3742 39.58 93.3742 39.86V43.7C93.3742 44.0333 93.4409 44.3333 93.5742 44.6C93.7209 44.8533 93.9142 45.0733 94.1542 45.26C94.3942 45.4333 94.6742 45.5667 94.9942 45.66C95.3276 45.7533 95.6742 45.8 96.0342 45.8ZM103.819 38.08H102.139V36.68H103.819V34.6C103.819 33.88 104.005 33.3 104.379 32.86C104.752 32.42 105.319 32.2 106.079 32.2H107.639V33.6H105.419V36.68H107.639V38.08H105.419V47H103.819V38.08ZM117.243 47C116.643 47 116.21 46.84 115.943 46.52C115.69 46.2 115.53 45.8 115.463 45.32H115.363C115.136 45.96 114.763 46.44 114.243 46.76C113.723 47.08 113.103 47.24 112.383 47.24C111.29 47.24 110.436 46.96 109.823 46.4C109.223 45.84 108.923 45.08 108.923 44.12C108.923 43.1467 109.276 42.4 109.983 41.88C110.703 41.36 111.816 41.1 113.323 41.1H115.363V40.08C115.363 39.3467 115.163 38.7867 114.763 38.4C114.363 38.0133 113.75 37.82 112.923 37.82C112.296 37.82 111.77 37.96 111.343 38.24C110.93 38.52 110.583 38.8933 110.303 39.36L109.343 38.46C109.623 37.9 110.07 37.4267 110.683 37.04C111.296 36.64 112.07 36.44 113.003 36.44C114.256 36.44 115.23 36.7467 115.923 37.36C116.616 37.9733 116.963 38.8267 116.963 39.92V45.6H118.143V47H117.243ZM112.643 45.88C113.043 45.88 113.41 45.8333 113.743 45.74C114.076 45.6467 114.363 45.5133 114.603 45.34C114.843 45.1667 115.03 44.9667 115.163 44.74C115.296 44.5133 115.363 44.2667 115.363 44V42.3H113.243C112.323 42.3 111.65 42.4333 111.223 42.7C110.81 42.9667 110.603 43.3533 110.603 43.86V44.28C110.603 44.7867 110.783 45.18 111.143 45.46C111.516 45.74 112.016 45.88 112.643 45.88ZM124.267 47.24C123.547 47.24 122.9 47.1133 122.327 46.86C121.753 46.6067 121.267 46.2467 120.867 45.78C120.48 45.3133 120.18 44.7467 119.967 44.08C119.767 43.4133 119.667 42.6667 119.667 41.84C119.667 41.0133 119.767 40.2667 119.967 39.6C120.18 38.9333 120.48 38.3667 120.867 37.9C121.267 37.4333 121.753 37.0733 122.327 36.82C122.9 36.5667 123.547 36.44 124.267 36.44C125.293 36.44 126.113 36.6667 126.727 37.12C127.353 37.56 127.82 38.14 128.127 38.86L126.787 39.54C126.6 39.0067 126.293 38.5933 125.867 38.3C125.44 38.0067 124.907 37.86 124.267 37.86C123.787 37.86 123.367 37.94 123.007 38.1C122.647 38.2467 122.347 38.46 122.107 38.74C121.867 39.0067 121.687 39.3333 121.567 39.72C121.447 40.0933 121.387 40.5067 121.387 40.96V42.72C121.387 43.6267 121.627 44.3733 122.107 44.96C122.6 45.5333 123.32 45.82 124.267 45.82C125.56 45.82 126.493 45.22 127.067 44.02L128.227 44.8C127.893 45.5467 127.393 46.14 126.727 46.58C126.073 47.02 125.253 47.24 124.267 47.24ZM134.248 47.24C133.541 47.24 132.901 47.1133 132.328 46.86C131.768 46.6067 131.281 46.2467 130.868 45.78C130.468 45.3 130.155 44.7333 129.928 44.08C129.715 43.4133 129.608 42.6667 129.608 41.84C129.608 41.0267 129.715 40.2867 129.928 39.62C130.155 38.9533 130.468 38.3867 130.868 37.92C131.281 37.44 131.768 37.0733 132.328 36.82C132.901 36.5667 133.541 36.44 134.248 36.44C134.941 36.44 135.561 36.5667 136.108 36.82C136.655 37.0733 137.121 37.4267 137.508 37.88C137.895 38.32 138.188 38.8467 138.388 39.46C138.601 40.0733 138.708 40.7467 138.708 41.48V42.24H131.288V42.72C131.288 43.16 131.355 43.5733 131.488 43.96C131.635 44.3333 131.835 44.66 132.088 44.94C132.355 45.22 132.675 45.44 133.048 45.6C133.435 45.76 133.868 45.84 134.348 45.84C135.001 45.84 135.568 45.6867 136.048 45.38C136.541 45.0733 136.921 44.6333 137.188 44.06L138.328 44.88C137.995 45.5867 137.475 46.16 136.768 46.6C136.061 47.0267 135.221 47.24 134.248 47.24ZM134.248 37.78C133.808 37.78 133.408 37.86 133.048 38.02C132.688 38.1667 132.375 38.38 132.108 38.66C131.855 38.94 131.655 39.2733 131.508 39.66C131.361 40.0333 131.288 40.4467 131.288 40.9V41.04H136.988V40.82C136.988 39.9 136.735 39.1667 136.228 38.62C135.735 38.06 135.075 37.78 134.248 37.78ZM149.911 47.24C149.191 47.24 148.544 47.1133 147.971 46.86C147.398 46.6067 146.911 46.2467 146.511 45.78C146.124 45.3133 145.824 44.7467 145.611 44.08C145.411 43.4133 145.311 42.6667 145.311 41.84C145.311 41.0133 145.411 40.2667 145.611 39.6C145.824 38.9333 146.124 38.3667 146.511 37.9C146.911 37.4333 147.398 37.0733 147.971 36.82C148.544 36.5667 149.191 36.44 149.911 36.44C150.938 36.44 151.758 36.6667 152.371 37.12C152.998 37.56 153.464 38.14 153.771 38.86L152.431 39.54C152.244 39.0067 151.938 38.5933 151.511 38.3C151.084 38.0067 150.551 37.86 149.911 37.86C149.431 37.86 149.011 37.94 148.651 38.1C148.291 38.2467 147.991 38.46 147.751 38.74C147.511 39.0067 147.331 39.3333 147.211 39.72C147.091 40.0933 147.031 40.5067 147.031 40.96V42.72C147.031 43.6267 147.271 44.3733 147.751 44.96C148.244 45.5333 148.964 45.82 149.911 45.82C151.204 45.82 152.138 45.22 152.711 44.02L153.871 44.8C153.538 45.5467 153.038 46.14 152.371 46.58C151.718 47.02 150.898 47.24 149.911 47.24ZM159.913 47.24C159.219 47.24 158.586 47.1133 158.013 46.86C157.439 46.6067 156.946 46.2467 156.533 45.78C156.133 45.3 155.819 44.7333 155.593 44.08C155.366 43.4133 155.253 42.6667 155.253 41.84C155.253 41.0267 155.366 40.2867 155.593 39.62C155.819 38.9533 156.133 38.3867 156.533 37.92C156.946 37.44 157.439 37.0733 158.013 36.82C158.586 36.5667 159.219 36.44 159.913 36.44C160.606 36.44 161.233 36.5667 161.793 36.82C162.366 37.0733 162.859 37.44 163.273 37.92C163.686 38.3867 164.006 38.9533 164.233 39.62C164.459 40.2867 164.573 41.0267 164.573 41.84C164.573 42.6667 164.459 43.4133 164.233 44.08C164.006 44.7333 163.686 45.3 163.273 45.78C162.859 46.2467 162.366 46.6067 161.793 46.86C161.233 47.1133 160.606 47.24 159.913 47.24ZM159.913 45.82C160.779 45.82 161.486 45.5533 162.033 45.02C162.579 44.4867 162.853 43.6733 162.853 42.58V41.1C162.853 40.0067 162.579 39.1933 162.033 38.66C161.486 38.1267 160.779 37.86 159.913 37.86C159.046 37.86 158.339 38.1267 157.793 38.66C157.246 39.1933 156.973 40.0067 156.973 41.1V42.58C156.973 43.6733 157.246 44.4867 157.793 45.02C158.339 45.5533 159.046 45.82 159.913 45.82ZM167.204 47V36.68H168.804V38.36H168.884C169.137 37.7733 169.491 37.3067 169.944 36.96C170.411 36.6133 171.031 36.44 171.804 36.44C172.871 36.44 173.711 36.7867 174.324 37.48C174.951 38.16 175.264 39.1267 175.264 40.38V47H173.664V40.66C173.664 38.8067 172.884 37.88 171.324 37.88C171.004 37.88 170.691 37.92 170.384 38C170.091 38.08 169.824 38.2 169.584 38.36C169.344 38.52 169.151 38.7267 169.004 38.98C168.871 39.22 168.804 39.5067 168.804 39.84V47H167.204ZM180.851 47C180.291 47 179.864 46.8467 179.571 46.54C179.291 46.22 179.151 45.8067 179.151 45.3V38.08H177.451V36.68H178.411C178.758 36.68 178.991 36.6133 179.111 36.48C179.244 36.3333 179.311 36.0867 179.311 35.74V33.82H180.751V36.68H183.011V38.08H180.751V45.6H182.851V47H180.851ZM185.583 47V36.68H187.183V38.58H187.283C187.469 38.0867 187.803 37.6467 188.283 37.26C188.763 36.8733 189.423 36.68 190.263 36.68H190.883V38.28H189.943C189.076 38.28 188.396 38.4467 187.903 38.78C187.423 39.1 187.183 39.5067 187.183 40V47H185.583ZM196.729 47.24C196.036 47.24 195.402 47.1133 194.829 46.86C194.256 46.6067 193.762 46.2467 193.349 45.78C192.949 45.3 192.636 44.7333 192.409 44.08C192.182 43.4133 192.069 42.6667 192.069 41.84C192.069 41.0267 192.182 40.2867 192.409 39.62C192.636 38.9533 192.949 38.3867 193.349 37.92C193.762 37.44 194.256 37.0733 194.829 36.82C195.402 36.5667 196.036 36.44 196.729 36.44C197.422 36.44 198.049 36.5667 198.609 36.82C199.182 37.0733 199.676 37.44 200.089 37.92C200.502 38.3867 200.822 38.9533 201.049 39.62C201.276 40.2867 201.389 41.0267 201.389 41.84C201.389 42.6667 201.276 43.4133 201.049 44.08C200.822 44.7333 200.502 45.3 200.089 45.78C199.676 46.2467 199.182 46.6067 198.609 46.86C198.049 47.1133 197.422 47.24 196.729 47.24ZM196.729 45.82C197.596 45.82 198.302 45.5533 198.849 45.02C199.396 44.4867 199.669 43.6733 199.669 42.58V41.1C199.669 40.0067 199.396 39.1933 198.849 38.66C198.302 38.1267 197.596 37.86 196.729 37.86C195.862 37.86 195.156 38.1267 194.609 38.66C194.062 39.1933 193.789 40.0067 193.789 41.1V42.58C193.789 43.6733 194.062 44.4867 194.609 45.02C195.156 45.5533 195.862 45.82 196.729 45.82ZM205.72 47C205.16 47 204.734 46.8467 204.44 46.54C204.16 46.22 204.02 45.82 204.02 45.34V32.2H205.62V45.6H207.14V47H205.72ZM214.996 34.26C214.649 34.26 214.396 34.18 214.236 34.02C214.089 33.8467 214.016 33.6267 214.016 33.36V33.1C214.016 32.8333 214.089 32.62 214.236 32.46C214.396 32.2867 214.649 32.2 214.996 32.2C215.343 32.2 215.589 32.2867 215.736 32.46C215.896 32.62 215.976 32.8333 215.976 33.1V33.36C215.976 33.6267 215.896 33.8467 215.736 34.02C215.589 34.18 215.343 34.26 214.996 34.26ZM214.196 36.68H215.796V47H214.196V36.68ZM219.196 47V36.68H220.796V38.36H220.876C220.996 38.0933 221.129 37.8467 221.276 37.62C221.436 37.38 221.623 37.1733 221.836 37C222.063 36.8267 222.323 36.6933 222.616 36.6C222.909 36.4933 223.256 36.44 223.656 36.44C224.336 36.44 224.963 36.6067 225.536 36.94C226.109 37.26 226.536 37.7933 226.816 38.54H226.856C227.043 37.98 227.389 37.4933 227.896 37.08C228.416 36.6533 229.116 36.44 229.996 36.44C231.049 36.44 231.869 36.7867 232.456 37.48C233.056 38.16 233.356 39.1267 233.356 40.38V47H231.756V40.66C231.756 39.74 231.576 39.0467 231.216 38.58C230.856 38.1133 230.283 37.88 229.496 37.88C229.176 37.88 228.869 37.92 228.576 38C228.296 38.08 228.043 38.2 227.816 38.36C227.589 38.52 227.409 38.7267 227.276 38.98C227.143 39.22 227.076 39.5067 227.076 39.84V47H225.476V40.66C225.476 39.74 225.296 39.0467 224.936 38.58C224.576 38.1133 224.016 37.88 223.256 37.88C222.936 37.88 222.629 37.92 222.336 38C222.043 38.08 221.783 38.2 221.556 38.36C221.329 38.52 221.143 38.7267 220.996 38.98C220.863 39.22 220.796 39.5067 220.796 39.84V47H219.196ZM236.657 36.68H238.257V38.36H238.337C238.604 37.7067 238.99 37.2267 239.497 36.92C240.017 36.6 240.637 36.44 241.357 36.44C241.997 36.44 242.577 36.5667 243.097 36.82C243.617 37.0733 244.057 37.4333 244.417 37.9C244.79 38.3667 245.07 38.9333 245.257 39.6C245.457 40.2667 245.557 41.0133 245.557 41.84C245.557 42.6667 245.457 43.4133 245.257 44.08C245.07 44.7467 244.79 45.3133 244.417 45.78C244.057 46.2467 243.617 46.6067 243.097 46.86C242.577 47.1133 241.997 47.24 241.357 47.24C239.957 47.24 238.95 46.6 238.337 45.32H238.257V51H236.657V36.68ZM240.917 45.8C241.824 45.8 242.537 45.52 243.057 44.96C243.577 44.3867 243.837 43.64 243.837 42.72V40.96C243.837 40.04 243.577 39.3 243.057 38.74C242.537 38.1667 241.824 37.88 240.917 37.88C240.557 37.88 240.21 37.9333 239.877 38.04C239.557 38.1333 239.277 38.2667 239.037 38.44C238.797 38.6133 238.604 38.8267 238.457 39.08C238.324 39.32 238.257 39.58 238.257 39.86V43.7C238.257 44.0333 238.324 44.3333 238.457 44.6C238.604 44.8533 238.797 45.0733 239.037 45.26C239.277 45.4333 239.557 45.5667 239.877 45.66C240.21 45.7533 240.557 45.8 240.917 45.8ZM248.259 47V36.68H249.859V38.58H249.959C250.145 38.0867 250.479 37.6467 250.959 37.26C251.439 36.8733 252.099 36.68 252.939 36.68H253.559V38.28H252.619C251.752 38.28 251.072 38.4467 250.579 38.78C250.099 39.1 249.859 39.5067 249.859 40V47H248.259ZM259.405 47.24C258.711 47.24 258.078 47.1133 257.505 46.86C256.931 46.6067 256.438 46.2467 256.025 45.78C255.625 45.3 255.311 44.7333 255.085 44.08C254.858 43.4133 254.745 42.6667 254.745 41.84C254.745 41.0267 254.858 40.2867 255.085 39.62C255.311 38.9533 255.625 38.3867 256.025 37.92C256.438 37.44 256.931 37.0733 257.505 36.82C258.078 36.5667 258.711 36.44 259.405 36.44C260.098 36.44 260.725 36.5667 261.285 36.82C261.858 37.0733 262.351 37.44 262.765 37.92C263.178 38.3867 263.498 38.9533 263.725 39.62C263.951 40.2867 264.065 41.0267 264.065 41.84C264.065 42.6667 263.951 43.4133 263.725 44.08C263.498 44.7333 263.178 45.3 262.765 45.78C262.351 46.2467 261.858 46.6067 261.285 46.86C260.725 47.1133 260.098 47.24 259.405 47.24ZM259.405 45.82C260.271 45.82 260.978 45.5533 261.525 45.02C262.071 44.4867 262.345 43.6733 262.345 42.58V41.1C262.345 40.0067 262.071 39.1933 261.525 38.66C260.978 38.1267 260.271 37.86 259.405 37.86C258.538 37.86 257.831 38.1267 257.285 38.66C256.738 39.1933 256.465 40.0067 256.465 41.1V42.58C256.465 43.6733 256.738 44.4867 257.285 45.02C257.831 45.5533 258.538 45.82 259.405 45.82ZM268.82 47L265.2 36.68H266.8L268.6 41.8L269.72 45.32H269.82L270.94 41.8L272.78 36.68H274.32L270.68 47H268.82ZM280.107 47.24C279.401 47.24 278.761 47.1133 278.187 46.86C277.627 46.6067 277.141 46.2467 276.727 45.78C276.327 45.3 276.014 44.7333 275.787 44.08C275.574 43.4133 275.467 42.6667 275.467 41.84C275.467 41.0267 275.574 40.2867 275.787 39.62C276.014 38.9533 276.327 38.3867 276.727 37.92C277.141 37.44 277.627 37.0733 278.187 36.82C278.761 36.5667 279.401 36.44 280.107 36.44C280.801 36.44 281.421 36.5667 281.967 36.82C282.514 37.0733 282.981 37.4267 283.367 37.88C283.754 38.32 284.047 38.8467 284.247 39.46C284.461 40.0733 284.567 40.7467 284.567 41.48V42.24H277.147V42.72C277.147 43.16 277.214 43.5733 277.347 43.96C277.494 44.3333 277.694 44.66 277.947 44.94C278.214 45.22 278.534 45.44 278.907 45.6C279.294 45.76 279.727 45.84 280.207 45.84C280.861 45.84 281.427 45.6867 281.907 45.38C282.401 45.0733 282.781 44.6333 283.047 44.06L284.187 44.88C283.854 45.5867 283.334 46.16 282.627 46.6C281.921 47.0267 281.081 47.24 280.107 47.24ZM280.107 37.78C279.667 37.78 279.267 37.86 278.907 38.02C278.547 38.1667 278.234 38.38 277.967 38.66C277.714 38.94 277.514 39.2733 277.367 39.66C277.221 40.0333 277.147 40.4467 277.147 40.9V41.04H282.847V40.82C282.847 39.9 282.594 39.1667 282.087 38.62C281.594 38.06 280.934 37.78 280.107 37.78ZM32.06 66.68H33.64L29.02 79.4C28.9 79.7067 28.78 79.96 28.66 80.16C28.54 80.3733 28.3933 80.54 28.22 80.66C28.0467 80.78 27.8267 80.8667 27.56 80.92C27.3067 80.9733 26.9933 81 26.62 81H25.8V79.6H27.42L28.2 77.4L24.34 66.68H25.94L28.42 73.7L28.9 75.38H29L29.56 73.7L32.06 66.68ZM39.4828 77.24C38.7895 77.24 38.1561 77.1133 37.5828 76.86C37.0095 76.6067 36.5161 76.2467 36.1028 75.78C35.7028 75.3 35.3895 74.7333 35.1628 74.08C34.9361 73.4133 34.8228 72.6667 34.8228 71.84C34.8228 71.0267 34.9361 70.2867 35.1628 69.62C35.3895 68.9533 35.7028 68.3867 36.1028 67.92C36.5161 67.44 37.0095 67.0733 37.5828 66.82C38.1561 66.5667 38.7895 66.44 39.4828 66.44C40.1761 66.44 40.8028 66.5667 41.3628 66.82C41.9361 67.0733 42.4295 67.44 42.8428 67.92C43.2561 68.3867 43.5761 68.9533 43.8028 69.62C44.0295 70.2867 44.1428 71.0267 44.1428 71.84C44.1428 72.6667 44.0295 73.4133 43.8028 74.08C43.5761 74.7333 43.2561 75.3 42.8428 75.78C42.4295 76.2467 41.9361 76.6067 41.3628 76.86C40.8028 77.1133 40.1761 77.24 39.4828 77.24ZM39.4828 75.82C40.3495 75.82 41.0561 75.5533 41.6028 75.02C42.1495 74.4867 42.4228 73.6733 42.4228 72.58V71.1C42.4228 70.0067 42.1495 69.1933 41.6028 68.66C41.0561 68.1267 40.3495 67.86 39.4828 67.86C38.6161 67.86 37.9095 68.1267 37.3628 68.66C36.8161 69.1933 36.5428 70.0067 36.5428 71.1V72.58C36.5428 73.6733 36.8161 74.4867 37.3628 75.02C37.9095 75.5533 38.6161 75.82 39.4828 75.82ZM53.1342 75.32H53.0542C52.9476 75.56 52.8142 75.8 52.6542 76.04C52.5076 76.2667 52.3209 76.4733 52.0942 76.66C51.8676 76.8333 51.5942 76.9733 51.2742 77.08C50.9542 77.1867 50.5809 77.24 50.1542 77.24C49.0876 77.24 48.2409 76.9 47.6142 76.22C46.9876 75.5267 46.6742 74.5533 46.6742 73.3V66.68H48.2742V73.02C48.2742 74.8733 49.0609 75.8 50.6342 75.8C50.9542 75.8 51.2609 75.76 51.5542 75.68C51.8609 75.6 52.1276 75.48 52.3542 75.32C52.5942 75.16 52.7809 74.96 52.9142 74.72C53.0609 74.4667 53.1342 74.1667 53.1342 73.82V66.68H54.7342V77H53.1342V75.32ZM58.1414 77V66.68H59.7414V68.58H59.8414C60.0281 68.0867 60.3614 67.6467 60.8414 67.26C61.3214 66.8733 61.9814 66.68 62.8214 66.68H63.4414V68.28H62.5014C61.6347 68.28 60.9547 68.4467 60.4614 68.78C59.9814 69.1 59.7414 69.5067 59.7414 70V77H58.1414ZM73.3117 77.24C72.3517 77.24 71.5451 77.06 70.8917 76.7C70.2517 76.3267 69.6984 75.8333 69.2317 75.22L70.3717 74.3C70.7717 74.8067 71.2184 75.2 71.7117 75.48C72.2051 75.7467 72.7784 75.88 73.4317 75.88C74.1117 75.88 74.6384 75.7333 75.0117 75.44C75.3984 75.1467 75.5917 74.7333 75.5917 74.2C75.5917 73.8 75.4584 73.46 75.1917 73.18C74.9384 72.8867 74.4717 72.6867 73.7917 72.58L72.9717 72.46C72.4917 72.3933 72.0517 72.2933 71.6517 72.16C71.2517 72.0133 70.8984 71.8267 70.5917 71.6C70.2984 71.36 70.0651 71.0667 69.8917 70.72C69.7317 70.3733 69.6517 69.96 69.6517 69.48C69.6517 68.9733 69.7451 68.5333 69.9317 68.16C70.1184 67.7733 70.3717 67.4533 70.6917 67.2C71.0251 66.9467 71.4184 66.76 71.8717 66.64C72.3251 66.5067 72.8117 66.44 73.3317 66.44C74.1717 66.44 74.8717 66.5867 75.4317 66.88C76.0051 67.1733 76.5051 67.58 76.9317 68.1L75.8717 69.06C75.6451 68.74 75.3117 68.4533 74.8717 68.2C74.4317 67.9333 73.8784 67.8 73.2117 67.8C72.5451 67.8 72.0384 67.9467 71.6917 68.24C71.3584 68.52 71.1917 68.9067 71.1917 69.4C71.1917 69.9067 71.3584 70.2733 71.6917 70.5C72.0384 70.7267 72.5317 70.8933 73.1717 71L73.9717 71.12C75.1184 71.2933 75.9317 71.6267 76.4117 72.12C76.8917 72.6 77.1317 73.2333 77.1317 74.02C77.1317 75.02 76.7917 75.8067 76.1117 76.38C75.4317 76.9533 74.4984 77.24 73.3117 77.24ZM78.702 66.68H80.262L81.362 71.14L82.462 75.66H82.502L83.762 71.14L85.062 66.68H86.482L87.822 71.14L89.102 75.66H89.142L90.202 71.14L91.322 66.68H92.822L90.082 77H88.102L86.662 72.04L85.762 68.9H85.722L84.842 72.04L83.402 77H81.462L78.702 66.68ZM95.9336 64.26C95.5869 64.26 95.3336 64.18 95.1736 64.02C95.0269 63.8467 94.9536 63.6267 94.9536 63.36V63.1C94.9536 62.8333 95.0269 62.62 95.1736 62.46C95.3336 62.2867 95.5869 62.2 95.9336 62.2C96.2803 62.2 96.5269 62.2867 96.6736 62.46C96.8336 62.62 96.9136 62.8333 96.9136 63.1V63.36C96.9136 63.6267 96.8336 63.8467 96.6736 64.02C96.5269 64.18 96.2803 64.26 95.9336 64.26ZM95.1336 66.68H96.7336V77H95.1336V66.68ZM100.134 77V66.68H101.734V68.36H101.814C102.067 67.7733 102.42 67.3067 102.874 66.96C103.34 66.6133 103.96 66.44 104.734 66.44C105.8 66.44 106.64 66.7867 107.254 67.48C107.88 68.16 108.194 69.1267 108.194 70.38V77H106.594V70.66C106.594 68.8067 105.814 67.88 104.254 67.88C103.934 67.88 103.62 67.92 103.314 68C103.02 68.08 102.754 68.2 102.514 68.36C102.274 68.52 102.08 68.7267 101.934 68.98C101.8 69.22 101.734 69.5067 101.734 69.84V77H100.134ZM120.201 78.14C120.201 79.2067 119.781 79.9867 118.941 80.48C118.114 80.9867 116.867 81.24 115.201 81.24C113.587 81.24 112.427 81.02 111.721 80.58C111.014 80.14 110.661 79.5133 110.661 78.7C110.661 78.14 110.807 77.7 111.101 77.38C111.394 77.0733 111.794 76.8467 112.301 76.7V76.48C111.687 76.1867 111.381 75.7067 111.381 75.04C111.381 74.52 111.547 74.1267 111.881 73.86C112.214 73.58 112.641 73.3733 113.161 73.24V73.16C112.547 72.8667 112.067 72.4467 111.721 71.9C111.387 71.3533 111.221 70.72 111.221 70C111.221 69.48 111.314 69 111.501 68.56C111.687 68.12 111.947 67.7467 112.281 67.44C112.627 67.12 113.034 66.8733 113.501 66.7C113.981 66.5267 114.514 66.44 115.101 66.44C115.834 66.44 116.487 66.5733 117.061 66.84V66.66C117.061 66.26 117.154 65.9333 117.341 65.68C117.527 65.4133 117.834 65.28 118.261 65.28H119.801V66.68H117.841V67.34C118.214 67.66 118.501 68.0467 118.701 68.5C118.914 68.94 119.021 69.44 119.021 70C119.021 70.52 118.927 71 118.741 71.44C118.554 71.88 118.287 72.26 117.941 72.58C117.607 72.8867 117.201 73.1267 116.721 73.3C116.241 73.4733 115.707 73.56 115.121 73.56C114.787 73.56 114.454 73.5267 114.121 73.46C113.774 73.5533 113.461 73.6933 113.181 73.88C112.901 74.0533 112.761 74.3 112.761 74.62C112.761 74.9267 112.907 75.1333 113.201 75.24C113.494 75.3467 113.874 75.4 114.341 75.4H116.541C117.821 75.4 118.747 75.6467 119.321 76.14C119.907 76.62 120.201 77.2867 120.201 78.14ZM118.701 78.26C118.701 77.8467 118.541 77.5133 118.221 77.26C117.914 77.02 117.361 76.9 116.561 76.9H113.121C112.481 77.1933 112.161 77.66 112.161 78.3C112.161 78.7533 112.327 79.14 112.661 79.46C113.007 79.78 113.587 79.94 114.401 79.94H115.881C116.774 79.94 117.467 79.8 117.961 79.52C118.454 79.24 118.701 78.82 118.701 78.26ZM115.121 72.28C115.801 72.28 116.341 72.12 116.741 71.8C117.141 71.4667 117.341 70.96 117.341 70.28V69.72C117.341 69.04 117.141 68.54 116.741 68.22C116.341 67.8867 115.801 67.72 115.121 67.72C114.441 67.72 113.901 67.8867 113.501 68.22C113.101 68.54 112.901 69.04 112.901 69.72V70.28C112.901 70.96 113.101 71.4667 113.501 71.8C113.901 72.12 114.441 72.28 115.121 72.28ZM123.947 72.84V69.56C125.041 69.5067 125.894 69.24 126.507 68.76C127.134 68.28 127.447 67.62 127.447 66.78V66.5C127.447 65.82 127.234 65.28 126.807 64.88C126.381 64.4667 125.807 64.26 125.087 64.26C124.314 64.26 123.694 64.48 123.227 64.92C122.774 65.36 122.467 65.92 122.307 66.6L120.827 66.04C120.947 65.6133 121.121 65.2067 121.347 64.82C121.587 64.42 121.881 64.0733 122.227 63.78C122.587 63.4733 123.007 63.2333 123.487 63.06C123.967 62.8867 124.521 62.8 125.147 62.8C126.387 62.8 127.367 63.14 128.087 63.82C128.807 64.5 129.167 65.42 129.167 66.58C129.167 67.22 129.054 67.78 128.827 68.26C128.614 68.7267 128.334 69.1267 127.987 69.46C127.641 69.7933 127.247 70.06 126.807 70.26C126.367 70.46 125.927 70.6 125.487 70.68V72.84H123.947ZM124.727 77.24C124.301 77.24 123.987 77.1333 123.787 76.92C123.601 76.7067 123.507 76.4267 123.507 76.08V75.82C123.507 75.4733 123.601 75.1933 123.787 74.98C123.987 74.7667 124.301 74.66 124.727 74.66C125.154 74.66 125.461 74.7667 125.647 74.98C125.847 75.1933 125.947 75.4733 125.947 75.82V76.08C125.947 76.4267 125.847 76.7067 125.647 76.92C125.461 77.1333 125.154 77.24 124.727 77.24Z" fill="black"/>
<path d="M24 96H304" stroke="black" stroke-opacity="0.07" stroke-linecap="round"/>
<path d="M106.992 204.583L104.961 199.689L103.365 194.637L102.214 189.464L101.519 184.211L101.285 178.917L101.513 173.623L102.201 168.369L103.344 163.196L104.934 158.141L106.959 153.244L109.403 148.542L112.247 144.072L115.47 139.866L119.047 135.957L122.952 132.374L127.154 129.146L131.621 126.296L136.319 123.846L141.213 121.815L146.266 120.219L151.439 119.068L156.692 118.373L161.985 118.139L167.279 118.366L172.533 119.055L177.707 120.198L182.762 121.788L187.659 123.813L192.36 126.257L196.831 129.101L201.037 132.324L204.946 135.901L208.528 139.806L211.757 144.007L214.607 148.475L217.057 153.173L219.088 158.067L220.684 163.12L221.834 168.292L222.529 173.546L222.764 178.839L222.536 184.133L221.848 189.387L220.704 194.561L219.114 199.616L217.09 204.513" stroke="#5773FF" stroke-opacity="0.2" stroke-width="4.45455" stroke-linecap="round"/>
<path d="M137.865 188.091V178.291L129.313 163.217H133.91L139.968 174.3H140.075L146.097 163.217H150.516L141.892 178.22V188.091H137.865ZM159.05 188.519C157.72 188.519 156.532 188.293 155.487 187.842C154.441 187.39 153.55 186.749 152.814 185.917C152.077 185.062 151.507 184.04 151.103 182.852C150.723 181.641 150.533 180.299 150.533 178.826C150.533 177.353 150.723 176.022 151.103 174.834C151.507 173.623 152.077 172.601 152.814 171.77C153.55 170.914 154.441 170.261 155.487 169.81C156.532 169.358 157.72 169.132 159.05 169.132C160.404 169.132 161.592 169.37 162.614 169.845C163.659 170.32 164.526 170.986 165.215 171.841C165.904 172.672 166.415 173.646 166.748 174.763C167.104 175.88 167.282 177.079 167.282 178.362V179.823H154.56V180.429C154.56 181.855 154.976 183.031 155.807 183.957C156.663 184.86 157.874 185.311 159.442 185.311C160.583 185.311 161.545 185.062 162.329 184.563C163.113 184.064 163.778 183.387 164.324 182.532L166.605 184.777C165.916 185.917 164.918 186.832 163.612 187.521C162.305 188.186 160.785 188.519 159.05 188.519ZM159.05 172.162C158.385 172.162 157.767 172.28 157.197 172.518C156.651 172.755 156.176 173.088 155.772 173.516C155.392 173.943 155.095 174.454 154.881 175.048C154.667 175.642 154.56 176.295 154.56 177.008V177.258H163.184V176.901C163.184 175.476 162.816 174.335 162.079 173.48C161.343 172.601 160.333 172.162 159.05 172.162ZM177.462 188.519C175.704 188.519 174.231 188.21 173.043 187.592C171.856 186.974 170.822 186.119 169.943 185.026L172.438 182.746C173.127 183.577 173.887 184.23 174.718 184.706C175.574 185.157 176.56 185.383 177.676 185.383C178.817 185.383 179.66 185.169 180.206 184.741C180.777 184.29 181.062 183.672 181.062 182.888C181.062 182.294 180.86 181.795 180.456 181.391C180.076 180.964 179.399 180.691 178.425 180.572L176.714 180.358C174.813 180.12 173.317 179.574 172.224 178.719C171.155 177.84 170.62 176.545 170.62 174.834C170.62 173.931 170.786 173.136 171.119 172.447C171.452 171.734 171.915 171.14 172.509 170.665C173.127 170.166 173.851 169.786 174.683 169.524C175.538 169.263 176.476 169.132 177.498 169.132C179.161 169.132 180.515 169.394 181.561 169.916C182.63 170.439 183.58 171.164 184.411 172.09L182.024 174.371C181.549 173.801 180.919 173.314 180.135 172.91C179.375 172.482 178.496 172.268 177.498 172.268C176.429 172.268 175.633 172.482 175.11 172.91C174.611 173.338 174.362 173.896 174.362 174.585C174.362 175.298 174.588 175.832 175.039 176.188C175.49 176.545 176.215 176.806 177.213 176.972L178.923 177.186C180.967 177.495 182.451 178.101 183.378 179.004C184.328 179.883 184.803 181.071 184.803 182.567C184.803 183.47 184.625 184.29 184.269 185.026C183.936 185.739 183.449 186.357 182.808 186.879C182.166 187.402 181.394 187.806 180.491 188.091C179.589 188.376 178.579 188.519 177.462 188.519ZM190.831 180.964L189.584 170.308V163.217H193.789V170.308L192.613 180.964H190.831ZM191.722 188.519C190.819 188.519 190.154 188.305 189.726 187.877C189.322 187.426 189.12 186.856 189.12 186.167V185.561C189.12 184.872 189.322 184.314 189.726 183.886C190.154 183.435 190.819 183.209 191.722 183.209C192.625 183.209 193.278 183.435 193.682 183.886C194.11 184.314 194.323 184.872 194.323 185.561V186.167C194.323 186.856 194.11 187.426 193.682 187.877C193.278 188.305 192.625 188.519 191.722 188.519Z" fill="#5773FF"/>
<mask id="mask0_1_20980" style="mask-type:alpha" maskUnits="userSpaceOnUse" x="115" y="211" width="20" height="20">
<rect x="115.557" y="211.568" width="19.1545" height="19.1545" fill="#D9D9D9"/>
</mask>
<g mask="url(#mask0_1_20980)">
<path d="M125.134 225.686L122.029 227.558C121.914 227.625 121.798 227.654 121.682 227.643C121.565 227.632 121.46 227.593 121.366 227.526C121.272 227.458 121.199 227.37 121.148 227.261C121.097 227.152 121.089 227.032 121.124 226.9L121.948 223.374L119.207 221.001C119.104 220.912 119.039 220.809 119.011 220.692C118.983 220.575 118.99 220.461 119.033 220.351C119.076 220.24 119.138 220.15 119.219 220.08C119.3 220.01 119.41 219.964 119.55 219.942L123.168 219.626L124.572 216.297C124.624 216.173 124.701 216.082 124.805 216.022C124.909 215.963 125.018 215.933 125.134 215.933C125.25 215.933 125.359 215.963 125.463 216.022C125.567 216.082 125.645 216.173 125.696 216.297L127.1 219.626L130.718 219.942C130.858 219.964 130.968 220.01 131.049 220.08C131.13 220.15 131.192 220.24 131.235 220.351C131.278 220.461 131.285 220.575 131.257 220.692C131.229 220.809 131.164 220.912 131.062 221.001L128.32 223.374L129.145 226.9C129.179 227.032 129.171 227.152 129.12 227.261C129.069 227.37 128.996 227.458 128.902 227.526C128.808 227.593 128.703 227.632 128.587 227.643C128.47 227.654 128.355 227.625 128.239 227.558L125.134 225.686Z" fill="#FFD000"/>
</g>
<mask id="mask1_1_20980" style="mask-type:alpha" maskUnits="userSpaceOnUse" x="134" y="211" width="20" height="20">
<rect x="134.711" y="211.568" width="19.1545" height="19.1545" fill="#D9D9D9"/>
</mask>
<g mask="url(#mask1_1_20980)">
<path d="M144.289 225.686L141.184 227.558C141.068 227.625 140.952 227.654 140.836 227.643C140.72 227.632 140.615 227.593 140.521 227.526C140.427 227.458 140.354 227.37 140.303 227.261C140.252 227.152 140.243 227.032 140.278 226.9L141.102 223.374L138.361 221.001C138.259 220.912 138.194 220.809 138.166 220.692C138.137 220.575 138.145 220.461 138.188 220.351C138.231 220.24 138.293 220.15 138.373 220.08C138.454 220.01 138.565 219.964 138.705 219.942L142.323 219.626L143.727 216.297C143.778 216.173 143.856 216.082 143.959 216.022C144.063 215.963 144.173 215.933 144.289 215.933C144.404 215.933 144.514 215.963 144.618 216.022C144.722 216.082 144.799 216.173 144.85 216.297L146.255 219.626L149.872 219.942C150.012 219.964 150.123 220.01 150.204 220.08C150.285 220.15 150.346 220.24 150.389 220.351C150.432 220.461 150.44 220.575 150.412 220.692C150.384 220.809 150.318 220.912 150.216 221.001L147.475 223.374L148.299 226.9C148.334 227.032 148.326 227.152 148.274 227.261C148.223 227.37 148.151 227.458 148.057 227.526C147.962 227.593 147.857 227.632 147.741 227.643C147.625 227.654 147.509 227.625 147.394 227.558L144.289 225.686Z" fill="#FFD000"/>
</g>
<mask id="mask2_1_20980" style="mask-type:alpha" maskUnits="userSpaceOnUse" x="153" y="211" width="21" height="20">
<rect x="153.866" y="211.568" width="19.1545" height="19.1545" fill="#D9D9D9"/>
</mask>
<g mask="url(#mask2_1_20980)">
<path d="M163.443 225.686L160.338 227.558C160.223 227.625 160.107 227.654 159.991 227.643C159.875 227.632 159.769 227.593 159.675 227.526C159.581 227.458 159.508 227.37 159.457 227.261C159.406 227.152 159.398 227.032 159.433 226.9L160.257 223.374L157.516 221.001C157.413 220.912 157.348 220.809 157.32 220.692C157.292 220.575 157.299 220.461 157.342 220.351C157.385 220.24 157.447 220.15 157.528 220.08C157.609 220.01 157.719 219.964 157.86 219.942L161.477 219.626L162.881 216.297C162.933 216.173 163.01 216.082 163.114 216.022C163.218 215.963 163.328 215.933 163.443 215.933C163.559 215.933 163.669 215.963 163.772 216.022C163.876 216.082 163.954 216.173 164.005 216.297L165.409 219.626L169.027 219.942C169.167 219.964 169.278 220.01 169.358 220.08C169.439 220.15 169.501 220.24 169.544 220.351C169.587 220.461 169.594 220.575 169.566 220.692C169.538 220.809 169.473 220.912 169.371 221.001L166.629 223.374L167.454 226.9C167.488 227.032 167.48 227.152 167.429 227.261C167.378 227.37 167.305 227.458 167.211 227.526C167.117 227.593 167.012 227.632 166.896 227.643C166.78 227.654 166.664 227.625 166.548 227.558L163.443 225.686Z" fill="#FFD000"/>
</g>
<mask id="mask3_1_20980" style="mask-type:alpha" maskUnits="userSpaceOnUse" x="173" y="211" width="20" height="20">
<rect x="173.02" y="211.568" width="19.1545" height="19.1545" fill="#D9D9D9"/>
</mask>
<g mask="url(#mask3_1_20980)">
<path d="M182.598 225.686L179.493 227.558C179.377 227.625 179.261 227.654 179.145 227.643C179.029 227.632 178.924 227.593 178.83 227.526C178.736 227.458 178.663 227.37 178.612 227.261C178.561 227.152 178.553 227.032 178.587 226.9L179.411 223.374L176.67 221.001C176.568 220.912 176.503 220.809 176.475 220.692C176.447 220.575 176.454 220.461 176.497 220.351C176.54 220.24 176.602 220.15 176.683 220.08C176.763 220.01 176.874 219.964 177.014 219.942L180.632 219.626L182.036 216.297C182.087 216.173 182.165 216.082 182.269 216.022C182.372 215.963 182.482 215.933 182.598 215.933C182.713 215.933 182.823 215.963 182.927 216.022C183.031 216.082 183.108 216.173 183.159 216.297L184.564 219.626L188.181 219.942C188.322 219.964 188.432 220.01 188.513 220.08C188.594 220.15 188.656 220.24 188.699 220.351C188.742 220.461 188.749 220.575 188.721 220.692C188.693 220.809 188.628 220.912 188.525 221.001L185.784 223.374L186.608 226.9C186.643 227.032 186.635 227.152 186.584 227.261C186.532 227.37 186.46 227.458 186.366 227.526C186.272 227.593 186.166 227.632 186.05 227.643C185.934 227.654 185.818 227.625 185.703 227.558L182.598 225.686Z" fill="#FFD000"/>
</g>
<mask id="mask4_1_20980" style="mask-type:alpha" maskUnits="userSpaceOnUse" x="192" y="211" width="20" height="20">
<rect x="192.175" y="211.568" width="19.1545" height="19.1545" fill="#D9D9D9"/>
</mask>
<g mask="url(#mask4_1_20980)">
<path d="M201.752 225.686L198.647 227.558C198.532 227.625 198.416 227.654 198.3 227.643C198.184 227.632 198.078 227.593 197.984 227.526C197.89 227.458 197.818 227.37 197.766 227.261C197.715 227.152 197.707 227.032 197.742 226.9L198.566 223.374L195.825 221.001C195.723 220.912 195.657 220.809 195.629 220.692C195.601 220.575 195.608 220.461 195.651 220.351C195.694 220.24 195.756 220.15 195.837 220.08C195.918 220.01 196.028 219.964 196.169 219.942L199.786 219.626L201.191 216.297C201.242 216.173 201.319 216.082 201.423 216.022C201.527 215.963 201.637 215.933 201.752 215.933C201.868 215.933 201.978 215.963 202.082 216.022C202.185 216.082 202.263 216.173 202.314 216.297L203.718 219.626L207.336 219.942C207.476 219.964 207.587 220.01 207.667 220.08C207.748 220.15 207.81 220.24 207.853 220.351C207.896 220.461 207.904 220.575 207.875 220.692C207.847 220.809 207.782 220.912 207.68 221.001L204.939 223.374L205.763 226.9C205.798 227.032 205.789 227.152 205.738 227.261C205.687 227.37 205.614 227.458 205.52 227.526C205.426 227.593 205.321 227.632 205.205 227.643C205.089 227.654 204.973 227.625 204.857 227.558L201.752 225.686Z" fill="#FFD000"/>
</g>
</svg>
