<svg width="328" height="258" viewBox="0 0 328 258" fill="none" xmlns="http://www.w3.org/2000/svg">
<path d="M0 16C0 7.16345 7.16344 0 16 0H312C320.837 0 328 7.16344 328 16V242C328 250.837 320.837 258 312 258H16C7.16345 258 0 250.837 0 242V16Z" fill="white"/>
<path d="M29.78 47.24C28.6467 47.24 27.68 47.0267 26.88 46.6C26.08 46.16 25.4 45.56 24.84 44.8L26.08 43.76C26.5733 44.4133 27.12 44.9133 27.72 45.26C28.32 45.5933 29.0267 45.76 29.84 45.76C30.84 45.76 31.6 45.52 32.12 45.04C32.6533 44.56 32.92 43.92 32.92 43.12C32.92 42.4533 32.72 41.94 32.32 41.58C31.92 41.22 31.26 40.9333 30.34 40.72L29.2 40.46C27.92 40.1667 26.94 39.7267 26.26 39.14C25.5933 38.54 25.26 37.7 25.26 36.62C25.26 36.0067 25.3733 35.46 25.6 34.98C25.8267 34.5 26.14 34.1 26.54 33.78C26.9533 33.46 27.44 33.22 28 33.06C28.5733 32.8867 29.2 32.8 29.88 32.8C30.9333 32.8 31.8333 32.9933 32.58 33.38C33.34 33.7667 33.98 34.3333 34.5 35.08L33.24 36C32.8533 35.4667 32.3867 35.0467 31.84 34.74C31.2933 34.4333 30.6133 34.28 29.8 34.28C28.9067 34.28 28.2 34.4733 27.68 34.86C27.1733 35.2333 26.92 35.8 26.92 36.56C26.92 37.2267 27.1333 37.7333 27.56 38.08C28 38.4133 28.66 38.68 29.54 38.88L30.68 39.14C32.0533 39.4467 33.0467 39.9133 33.66 40.54C34.2733 41.1667 34.58 42 34.58 43.04C34.58 43.68 34.4667 44.26 34.24 44.78C34.0267 45.3 33.7133 45.74 33.3 46.1C32.8867 46.46 32.38 46.74 31.78 46.94C31.1933 47.14 30.5267 47.24 29.78 47.24ZM36.2411 36.68H37.8011L38.9011 41.14L40.0011 45.66H40.0411L41.3011 41.14L42.6011 36.68H44.0211L45.3611 41.14L46.6411 45.66H46.6811L47.7411 41.14L48.8611 36.68H50.3611L47.6211 47H45.6411L44.2011 42.04L43.3011 38.9H43.2611L42.3811 42.04L40.9411 47H39.0011L36.2411 36.68ZM53.4727 34.26C53.126 34.26 52.8727 34.18 52.7127 34.02C52.566 33.8467 52.4927 33.6267 52.4927 33.36V33.1C52.4927 32.8333 52.566 32.62 52.7127 32.46C52.8727 32.2867 53.126 32.2 53.4727 32.2C53.8193 32.2 54.066 32.2867 54.2127 32.46C54.3727 32.62 54.4527 32.8333 54.4527 33.1V33.36C54.4527 33.6267 54.3727 33.8467 54.2127 34.02C54.066 34.18 53.8193 34.26 53.4727 34.26ZM52.6727 36.68H54.2727V47H52.6727V36.68ZM57.6727 47V36.68H59.2727V38.36H59.3527C59.606 37.7733 59.9593 37.3067 60.4127 36.96C60.8793 36.6133 61.4993 36.44 62.2727 36.44C63.3393 36.44 64.1793 36.7867 64.7927 37.48C65.4193 38.16 65.7327 39.1267 65.7327 40.38V47H64.1327V40.66C64.1327 38.8067 63.3527 37.88 61.7927 37.88C61.4727 37.88 61.1593 37.92 60.8527 38C60.5593 38.08 60.2927 38.2 60.0527 38.36C59.8127 38.52 59.6193 38.7267 59.4727 38.98C59.3393 39.22 59.2727 39.5067 59.2727 39.84V47H57.6727ZM77.7398 48.14C77.7398 49.2067 77.3198 49.9867 76.4798 50.48C75.6532 50.9867 74.4065 51.24 72.7398 51.24C71.1265 51.24 69.9665 51.02 69.2598 50.58C68.5532 50.14 68.1998 49.5133 68.1998 48.7C68.1998 48.14 68.3465 47.7 68.6398 47.38C68.9332 47.0733 69.3332 46.8467 69.8398 46.7V46.48C69.2265 46.1867 68.9198 45.7067 68.9198 45.04C68.9198 44.52 69.0865 44.1267 69.4198 43.86C69.7532 43.58 70.1798 43.3733 70.6998 43.24V43.16C70.0865 42.8667 69.6065 42.4467 69.2598 41.9C68.9265 41.3533 68.7598 40.72 68.7598 40C68.7598 39.48 68.8532 39 69.0398 38.56C69.2265 38.12 69.4865 37.7467 69.8198 37.44C70.1665 37.12 70.5732 36.8733 71.0398 36.7C71.5198 36.5267 72.0532 36.44 72.6398 36.44C73.3732 36.44 74.0265 36.5733 74.5998 36.84V36.66C74.5998 36.26 74.6932 35.9333 74.8798 35.68C75.0665 35.4133 75.3732 35.28 75.7998 35.28H77.3398V36.68H75.3798V37.34C75.7532 37.66 76.0398 38.0467 76.2398 38.5C76.4532 38.94 76.5598 39.44 76.5598 40C76.5598 40.52 76.4665 41 76.2798 41.44C76.0932 41.88 75.8265 42.26 75.4798 42.58C75.1465 42.8867 74.7398 43.1267 74.2598 43.3C73.7798 43.4733 73.2465 43.56 72.6598 43.56C72.3265 43.56 71.9932 43.5267 71.6598 43.46C71.3132 43.5533 70.9998 43.6933 70.7198 43.88C70.4398 44.0533 70.2998 44.3 70.2998 44.62C70.2998 44.9267 70.4465 45.1333 70.7398 45.24C71.0332 45.3467 71.4132 45.4 71.8798 45.4H74.0798C75.3598 45.4 76.2865 45.6467 76.8598 46.14C77.4465 46.62 77.7398 47.2867 77.7398 48.14ZM76.2398 48.26C76.2398 47.8467 76.0798 47.5133 75.7598 47.26C75.4532 47.02 74.8998 46.9 74.0998 46.9H70.6598C70.0198 47.1933 69.6998 47.66 69.6998 48.3C69.6998 48.7533 69.8665 49.14 70.1998 49.46C70.5465 49.78 71.1265 49.94 71.9398 49.94H73.4198C74.3132 49.94 75.0065 49.8 75.4998 49.52C75.9932 49.24 76.2398 48.82 76.2398 48.26ZM72.6598 42.28C73.3398 42.28 73.8798 42.12 74.2798 41.8C74.6798 41.4667 74.8798 40.96 74.8798 40.28V39.72C74.8798 39.04 74.6798 38.54 74.2798 38.22C73.8798 37.8867 73.3398 37.72 72.6598 37.72C71.9798 37.72 71.4398 37.8867 71.0398 38.22C70.6398 38.54 70.4398 39.04 70.4398 39.72V40.28C70.4398 40.96 70.6398 41.4667 71.0398 41.8C71.4398 42.12 71.9798 42.28 72.6598 42.28ZM83.8328 47V45.6H85.7928V34.44H83.8328V33.04H89.4328V34.44H87.4728V45.6H89.4328V47H83.8328ZM92.3406 47V36.68H93.9406V38.36H94.0206C94.1406 38.0933 94.274 37.8467 94.4206 37.62C94.5806 37.38 94.7673 37.1733 94.9806 37C95.2073 36.8267 95.4673 36.6933 95.7606 36.6C96.054 36.4933 96.4006 36.44 96.8006 36.44C97.4806 36.44 98.1073 36.6067 98.6806 36.94C99.254 37.26 99.6806 37.7933 99.9606 38.54H100.001C100.187 37.98 100.534 37.4933 101.041 37.08C101.561 36.6533 102.261 36.44 103.141 36.44C104.194 36.44 105.014 36.7867 105.601 37.48C106.201 38.16 106.501 39.1267 106.501 40.38V47H104.901V40.66C104.901 39.74 104.721 39.0467 104.361 38.58C104.001 38.1133 103.427 37.88 102.641 37.88C102.321 37.88 102.014 37.92 101.721 38C101.441 38.08 101.187 38.2 100.961 38.36C100.734 38.52 100.554 38.7267 100.421 38.98C100.287 39.22 100.221 39.5067 100.221 39.84V47H98.6206V40.66C98.6206 39.74 98.4406 39.0467 98.0806 38.58C97.7206 38.1133 97.1606 37.88 96.4006 37.88C96.0806 37.88 95.774 37.92 95.4806 38C95.1873 38.08 94.9273 38.2 94.7006 38.36C94.474 38.52 94.2873 38.7267 94.1406 38.98C94.0073 39.22 93.9406 39.5067 93.9406 39.84V47H92.3406ZM109.802 36.68H111.402V38.36H111.482C111.748 37.7067 112.135 37.2267 112.642 36.92C113.162 36.6 113.782 36.44 114.502 36.44C115.142 36.44 115.722 36.5667 116.242 36.82C116.762 37.0733 117.202 37.4333 117.562 37.9C117.935 38.3667 118.215 38.9333 118.402 39.6C118.602 40.2667 118.702 41.0133 118.702 41.84C118.702 42.6667 118.602 43.4133 118.402 44.08C118.215 44.7467 117.935 45.3133 117.562 45.78C117.202 46.2467 116.762 46.6067 116.242 46.86C115.722 47.1133 115.142 47.24 114.502 47.24C113.102 47.24 112.095 46.6 111.482 45.32H111.402V51H109.802V36.68ZM114.062 45.8C114.968 45.8 115.682 45.52 116.202 44.96C116.722 44.3867 116.982 43.64 116.982 42.72V40.96C116.982 40.04 116.722 39.3 116.202 38.74C115.682 38.1667 114.968 37.88 114.062 37.88C113.702 37.88 113.355 37.9333 113.022 38.04C112.702 38.1333 112.422 38.2667 112.182 38.44C111.942 38.6133 111.748 38.8267 111.602 39.08C111.468 39.32 111.402 39.58 111.402 39.86V43.7C111.402 44.0333 111.468 44.3333 111.602 44.6C111.748 44.8533 111.942 45.0733 112.182 45.26C112.422 45.4333 112.702 45.5667 113.022 45.66C113.355 45.7533 113.702 45.8 114.062 45.8ZM121.403 47V36.68H123.003V38.58H123.103C123.29 38.0867 123.623 37.6467 124.103 37.26C124.583 36.8733 125.243 36.68 126.083 36.68H126.703V38.28H125.763C124.896 38.28 124.216 38.4467 123.723 38.78C123.243 39.1 123.003 39.5067 123.003 40V47H121.403ZM132.549 47.24C131.856 47.24 131.223 47.1133 130.649 46.86C130.076 46.6067 129.583 46.2467 129.169 45.78C128.769 45.3 128.456 44.7333 128.229 44.08C128.003 43.4133 127.889 42.6667 127.889 41.84C127.889 41.0267 128.003 40.2867 128.229 39.62C128.456 38.9533 128.769 38.3867 129.169 37.92C129.583 37.44 130.076 37.0733 130.649 36.82C131.223 36.5667 131.856 36.44 132.549 36.44C133.243 36.44 133.869 36.5667 134.429 36.82C135.003 37.0733 135.496 37.44 135.909 37.92C136.323 38.3867 136.643 38.9533 136.869 39.62C137.096 40.2867 137.209 41.0267 137.209 41.84C137.209 42.6667 137.096 43.4133 136.869 44.08C136.643 44.7333 136.323 45.3 135.909 45.78C135.496 46.2467 135.003 46.6067 134.429 46.86C133.869 47.1133 133.243 47.24 132.549 47.24ZM132.549 45.82C133.416 45.82 134.123 45.5533 134.669 45.02C135.216 44.4867 135.489 43.6733 135.489 42.58V41.1C135.489 40.0067 135.216 39.1933 134.669 38.66C134.123 38.1267 133.416 37.86 132.549 37.86C131.683 37.86 130.976 38.1267 130.429 38.66C129.883 39.1933 129.609 40.0067 129.609 41.1V42.58C129.609 43.6733 129.883 44.4867 130.429 45.02C130.976 45.5533 131.683 45.82 132.549 45.82ZM141.964 47L138.344 36.68H139.944L141.744 41.8L142.864 45.32H142.964L144.084 41.8L145.924 36.68H147.464L143.824 47H141.964ZM153.252 47.24C152.545 47.24 151.905 47.1133 151.332 46.86C150.772 46.6067 150.285 46.2467 149.872 45.78C149.472 45.3 149.159 44.7333 148.932 44.08C148.719 43.4133 148.612 42.6667 148.612 41.84C148.612 41.0267 148.719 40.2867 148.932 39.62C149.159 38.9533 149.472 38.3867 149.872 37.92C150.285 37.44 150.772 37.0733 151.332 36.82C151.905 36.5667 152.545 36.44 153.252 36.44C153.945 36.44 154.565 36.5667 155.112 36.82C155.659 37.0733 156.125 37.4267 156.512 37.88C156.899 38.32 157.192 38.8467 157.392 39.46C157.605 40.0733 157.712 40.7467 157.712 41.48V42.24H150.292V42.72C150.292 43.16 150.359 43.5733 150.492 43.96C150.639 44.3333 150.839 44.66 151.092 44.94C151.359 45.22 151.679 45.44 152.052 45.6C152.439 45.76 152.872 45.84 153.352 45.84C154.005 45.84 154.572 45.6867 155.052 45.38C155.545 45.0733 155.925 44.6333 156.192 44.06L157.332 44.88C156.999 45.5867 156.479 46.16 155.772 46.6C155.065 47.0267 154.225 47.24 153.252 47.24ZM153.252 37.78C152.812 37.78 152.412 37.86 152.052 38.02C151.692 38.1667 151.379 38.38 151.112 38.66C150.859 38.94 150.659 39.2733 150.512 39.66C150.365 40.0333 150.292 40.4467 150.292 40.9V41.04H155.992V40.82C155.992 39.9 155.739 39.1667 155.232 38.62C154.739 38.06 154.079 37.78 153.252 37.78ZM160.348 47V36.68H161.948V38.36H162.028C162.148 38.0933 162.282 37.8467 162.428 37.62C162.588 37.38 162.775 37.1733 162.988 37C163.215 36.8267 163.475 36.6933 163.768 36.6C164.062 36.4933 164.408 36.44 164.808 36.44C165.488 36.44 166.115 36.6067 166.688 36.94C167.262 37.26 167.688 37.7933 167.968 38.54H168.008C168.195 37.98 168.542 37.4933 169.048 37.08C169.568 36.6533 170.268 36.44 171.148 36.44C172.202 36.44 173.022 36.7867 173.608 37.48C174.208 38.16 174.508 39.1267 174.508 40.38V47H172.908V40.66C172.908 39.74 172.728 39.0467 172.368 38.58C172.008 38.1133 171.435 37.88 170.648 37.88C170.328 37.88 170.022 37.92 169.728 38C169.448 38.08 169.195 38.2 168.968 38.36C168.742 38.52 168.562 38.7267 168.428 38.98C168.295 39.22 168.228 39.5067 168.228 39.84V47H166.628V40.66C166.628 39.74 166.448 39.0467 166.088 38.58C165.728 38.1133 165.168 37.88 164.408 37.88C164.088 37.88 163.782 37.92 163.488 38C163.195 38.08 162.935 38.2 162.708 38.36C162.482 38.52 162.295 38.7267 162.148 38.98C162.015 39.22 161.948 39.5067 161.948 39.84V47H160.348ZM181.689 47.24C180.983 47.24 180.343 47.1133 179.769 46.86C179.209 46.6067 178.723 46.2467 178.309 45.78C177.909 45.3 177.596 44.7333 177.369 44.08C177.156 43.4133 177.049 42.6667 177.049 41.84C177.049 41.0267 177.156 40.2867 177.369 39.62C177.596 38.9533 177.909 38.3867 178.309 37.92C178.723 37.44 179.209 37.0733 179.769 36.82C180.343 36.5667 180.983 36.44 181.689 36.44C182.383 36.44 183.003 36.5667 183.549 36.82C184.096 37.0733 184.563 37.4267 184.949 37.88C185.336 38.32 185.629 38.8467 185.829 39.46C186.043 40.0733 186.149 40.7467 186.149 41.48V42.24H178.729V42.72C178.729 43.16 178.796 43.5733 178.929 43.96C179.076 44.3333 179.276 44.66 179.529 44.94C179.796 45.22 180.116 45.44 180.489 45.6C180.876 45.76 181.309 45.84 181.789 45.84C182.443 45.84 183.009 45.6867 183.489 45.38C183.983 45.0733 184.363 44.6333 184.629 44.06L185.769 44.88C185.436 45.5867 184.916 46.16 184.209 46.6C183.503 47.0267 182.663 47.24 181.689 47.24ZM181.689 37.78C181.249 37.78 180.849 37.86 180.489 38.02C180.129 38.1667 179.816 38.38 179.549 38.66C179.296 38.94 179.096 39.2733 178.949 39.66C178.803 40.0333 178.729 40.4467 178.729 40.9V41.04H184.429V40.82C184.429 39.9 184.176 39.1667 183.669 38.62C183.176 38.06 182.516 37.78 181.689 37.78ZM188.786 47V36.68H190.386V38.36H190.466C190.719 37.7733 191.073 37.3067 191.526 36.96C191.993 36.6133 192.613 36.44 193.386 36.44C194.453 36.44 195.293 36.7867 195.906 37.48C196.533 38.16 196.846 39.1267 196.846 40.38V47H195.246V40.66C195.246 38.8067 194.466 37.88 192.906 37.88C192.586 37.88 192.273 37.92 191.966 38C191.673 38.08 191.406 38.2 191.166 38.36C190.926 38.52 190.733 38.7267 190.586 38.98C190.453 39.22 190.386 39.5067 190.386 39.84V47H188.786ZM202.433 47C201.873 47 201.446 46.8467 201.153 46.54C200.873 46.22 200.733 45.8067 200.733 45.3V38.08H199.033V36.68H199.993C200.34 36.68 200.573 36.6133 200.693 36.48C200.826 36.3333 200.893 36.0867 200.893 35.74V33.82H202.333V36.68H204.593V38.08H202.333V45.6H204.433V47H202.433Z" fill="black"/>
<path d="M24 70H304" stroke="black" stroke-opacity="0.07" stroke-linecap="round"/>
<path d="M24 96C24 90.4772 28.4772 86 34 86H50C55.5228 86 60 90.4772 60 96V112C60 117.523 55.5228 122 50 122H34C28.4772 122 24 117.523 24 112V96Z" fill="#5773FF" fill-opacity="0.2"/>
<path d="M52.8 93.2L49.1432 101.33C49.0782 101.475 48.9797 101.602 48.8559 101.701L48.8378 101.716C48.7357 101.797 48.6506 101.898 48.5873 102.013L47.1664 104.584L44.7535 109.471C44.5247 109.935 43.9803 110.148 43.4978 109.962L43.4106 109.929L35.6318 106.471C35.6174 106.465 35.6039 106.459 35.5897 106.452C35.4114 106.365 34.1094 105.759 33.299 106.028C32.9343 106.15 32.4892 106.508 32.3396 106.634C32.3047 106.663 32.2732 106.695 32.2453 106.732C32.1107 106.906 31.6914 107.497 31.4933 108.34C31.2555 109.351 31.2256 110.362 31.2044 110.723C31.1832 111.084 31.2044 112.067 32.0711 112.818C32.9378 113.569 34.1657 113.757 34.6713 113.757H39.366L43.1939 113.468C43.7958 113.371 45.4422 112.818 45.6 111.2C45.8058 109.091 46.0074 107.409 46.2 107L47.4 104.6L48.6 102.2L49.6485 100.4L51.2899 96.5575L52.8 93.2Z" stroke="#5773FF" stroke-width="1.67"/>
<path d="M76.872 104.668C75.5933 104.668 74.59 104.239 73.862 103.38C73.134 102.512 72.77 101.257 72.77 99.614C72.77 98.7927 72.8633 98.0693 73.05 97.444C73.2367 96.8187 73.5073 96.2913 73.862 95.862C74.2167 95.4327 74.646 95.1107 75.15 94.896C75.6633 94.672 76.2373 94.56 76.872 94.56C77.7213 94.56 78.4307 94.7467 79 95.12C79.5787 95.4933 80.0313 96.044 80.358 96.772L79.028 97.5C78.86 97.0333 78.5987 96.6647 78.244 96.394C77.8987 96.114 77.4413 95.974 76.872 95.974C76.116 95.974 75.5233 96.2307 75.094 96.744C74.6647 97.2573 74.45 97.9667 74.45 98.872V100.356C74.45 101.261 74.6647 101.971 75.094 102.484C75.5233 102.997 76.116 103.254 76.872 103.254C77.46 103.254 77.936 103.105 78.3 102.806C78.6733 102.498 78.9487 102.106 79.126 101.63L80.4 102.4C80.0733 103.109 79.616 103.665 79.028 104.066C78.44 104.467 77.7213 104.668 76.872 104.668ZM84.981 104.668C84.477 104.668 84.015 104.579 83.595 104.402C83.1844 104.225 82.8344 103.973 82.545 103.646C82.2557 103.31 82.0317 102.909 81.873 102.442C81.7144 101.966 81.635 101.439 81.635 100.86C81.635 100.281 81.7144 99.7587 81.873 99.292C82.0317 98.816 82.2557 98.4147 82.545 98.088C82.8344 97.752 83.1844 97.4953 83.595 97.318C84.015 97.1407 84.477 97.052 84.981 97.052C85.485 97.052 85.9424 97.1407 86.353 97.318C86.773 97.4953 87.1277 97.752 87.417 98.088C87.7064 98.4147 87.9304 98.816 88.089 99.292C88.2477 99.7587 88.327 100.281 88.327 100.86C88.327 101.439 88.2477 101.966 88.089 102.442C87.9304 102.909 87.7064 103.31 87.417 103.646C87.1277 103.973 86.773 104.225 86.353 104.402C85.9424 104.579 85.485 104.668 84.981 104.668ZM84.981 103.408C85.5037 103.408 85.9237 103.249 86.241 102.932C86.5584 102.605 86.717 102.12 86.717 101.476V100.244C86.717 99.6 86.5584 99.1193 86.241 98.802C85.9237 98.4753 85.5037 98.312 84.981 98.312C84.4584 98.312 84.0384 98.4753 83.721 98.802C83.4037 99.1193 83.245 99.6 83.245 100.244V101.476C83.245 102.12 83.4037 102.605 83.721 102.932C84.0384 103.249 84.4584 103.408 84.981 103.408ZM90.1874 104.5V97.22H91.7134V98.424H91.7834C91.9421 98.032 92.1801 97.7053 92.4974 97.444C92.8241 97.1827 93.2674 97.052 93.8274 97.052C94.5741 97.052 95.1527 97.2993 95.5634 97.794C95.9834 98.2793 96.1934 98.9747 96.1934 99.88V104.5H94.6674V100.076C94.6674 98.9373 94.2101 98.368 93.2954 98.368C93.0994 98.368 92.9034 98.396 92.7074 98.452C92.5207 98.4987 92.3527 98.5733 92.2034 98.676C92.0541 98.7787 91.9327 98.9093 91.8394 99.068C91.7554 99.2267 91.7134 99.4133 91.7134 99.628V104.5H90.1874ZM100.778 104.668C100.088 104.668 99.5092 104.547 99.0425 104.304C98.5758 104.061 98.1698 103.725 97.8245 103.296L98.8045 102.4C99.0752 102.727 99.3738 102.983 99.7005 103.17C100.036 103.347 100.424 103.436 100.862 103.436C101.31 103.436 101.642 103.352 101.856 103.184C102.08 103.007 102.192 102.764 102.192 102.456C102.192 102.223 102.113 102.027 101.954 101.868C101.805 101.7 101.539 101.593 101.156 101.546L100.484 101.462C99.7378 101.369 99.1498 101.154 98.7205 100.818C98.3005 100.473 98.0905 99.964 98.0905 99.292C98.0905 98.9373 98.1558 98.6247 98.2865 98.354C98.4172 98.074 98.5992 97.8407 98.8325 97.654C99.0752 97.458 99.3598 97.3087 99.6865 97.206C100.022 97.1033 100.391 97.052 100.792 97.052C101.446 97.052 101.978 97.1547 102.388 97.36C102.808 97.5653 103.182 97.85 103.508 98.214L102.57 99.11C102.384 98.886 102.136 98.6947 101.828 98.536C101.53 98.368 101.184 98.284 100.792 98.284C100.372 98.284 100.06 98.368 99.8545 98.536C99.6585 98.704 99.5605 98.9233 99.5605 99.194C99.5605 99.474 99.6492 99.684 99.8265 99.824C100.004 99.964 100.288 100.067 100.68 100.132L101.352 100.216C102.155 100.337 102.738 100.575 103.102 100.93C103.476 101.275 103.662 101.742 103.662 102.33C103.662 102.685 103.592 103.007 103.452 103.296C103.322 103.576 103.13 103.819 102.878 104.024C102.626 104.229 102.323 104.388 101.968 104.5C101.614 104.612 101.217 104.668 100.778 104.668ZM106.316 95.918C105.999 95.918 105.766 95.8433 105.616 95.694C105.476 95.5447 105.406 95.3533 105.406 95.12V94.882C105.406 94.6487 105.476 94.4573 105.616 94.308C105.766 94.1587 105.999 94.084 106.316 94.084C106.634 94.084 106.862 94.1587 107.002 94.308C107.142 94.4573 107.212 94.6487 107.212 94.882V95.12C107.212 95.3533 107.142 95.5447 107.002 95.694C106.862 95.8433 106.634 95.918 106.316 95.918ZM105.546 97.22H107.072V104.5H105.546V97.22ZM111.722 104.668C111.031 104.668 110.452 104.547 109.986 104.304C109.519 104.061 109.113 103.725 108.768 103.296L109.748 102.4C110.018 102.727 110.317 102.983 110.644 103.17C110.98 103.347 111.367 103.436 111.806 103.436C112.254 103.436 112.585 103.352 112.8 103.184C113.024 103.007 113.136 102.764 113.136 102.456C113.136 102.223 113.056 102.027 112.898 101.868C112.748 101.7 112.482 101.593 112.1 101.546L111.428 101.462C110.681 101.369 110.093 101.154 109.664 100.818C109.244 100.473 109.034 99.964 109.034 99.292C109.034 98.9373 109.099 98.6247 109.23 98.354C109.36 98.074 109.542 97.8407 109.776 97.654C110.018 97.458 110.303 97.3087 110.63 97.206C110.966 97.1033 111.334 97.052 111.736 97.052C112.389 97.052 112.921 97.1547 113.332 97.36C113.752 97.5653 114.125 97.85 114.452 98.214L113.514 99.11C113.327 98.886 113.08 98.6947 112.772 98.536C112.473 98.368 112.128 98.284 111.736 98.284C111.316 98.284 111.003 98.368 110.798 98.536C110.602 98.704 110.504 98.9233 110.504 99.194C110.504 99.474 110.592 99.684 110.77 99.824C110.947 99.964 111.232 100.067 111.624 100.132L112.296 100.216C113.098 100.337 113.682 100.575 114.046 100.93C114.419 101.275 114.606 101.742 114.606 102.33C114.606 102.685 114.536 103.007 114.396 103.296C114.265 103.576 114.074 103.819 113.822 104.024C113.57 104.229 113.266 104.388 112.912 104.5C112.557 104.612 112.16 104.668 111.722 104.668ZM118.41 104.5C117.878 104.5 117.476 104.365 117.206 104.094C116.935 103.814 116.8 103.422 116.8 102.918V98.466H115.666V97.22H116.282C116.534 97.22 116.706 97.164 116.8 97.052C116.902 96.94 116.954 96.758 116.954 96.506V95.232H118.326V97.22H119.852V98.466H118.326V103.254H119.74V104.5H118.41ZM124.468 104.668C123.946 104.668 123.479 104.579 123.068 104.402C122.658 104.225 122.308 103.973 122.018 103.646C121.729 103.31 121.505 102.909 121.346 102.442C121.197 101.966 121.122 101.439 121.122 100.86C121.122 100.281 121.197 99.7587 121.346 99.292C121.505 98.816 121.729 98.4147 122.018 98.088C122.308 97.752 122.658 97.4953 123.068 97.318C123.479 97.1407 123.946 97.052 124.468 97.052C125 97.052 125.467 97.1453 125.868 97.332C126.279 97.5187 126.62 97.78 126.89 98.116C127.161 98.4427 127.362 98.8253 127.492 99.264C127.632 99.7027 127.702 100.174 127.702 100.678V101.252H122.704V101.49C122.704 102.05 122.868 102.512 123.194 102.876C123.53 103.231 124.006 103.408 124.622 103.408C125.07 103.408 125.448 103.31 125.756 103.114C126.064 102.918 126.326 102.652 126.54 102.316L127.436 103.198C127.166 103.646 126.774 104.005 126.26 104.276C125.747 104.537 125.15 104.668 124.468 104.668ZM124.468 98.242C124.207 98.242 123.964 98.2887 123.74 98.382C123.526 98.4753 123.339 98.606 123.18 98.774C123.031 98.942 122.914 99.1427 122.83 99.376C122.746 99.6093 122.704 99.866 122.704 100.146V100.244H126.092V100.104C126.092 99.544 125.948 99.096 125.658 98.76C125.369 98.4147 124.972 98.242 124.468 98.242ZM129.552 104.5V97.22H131.078V98.424H131.148C131.306 98.032 131.544 97.7053 131.862 97.444C132.188 97.1827 132.632 97.052 133.192 97.052C133.938 97.052 134.517 97.2993 134.928 97.794C135.348 98.2793 135.558 98.9747 135.558 99.88V104.5H134.032V100.076C134.032 98.9373 133.574 98.368 132.66 98.368C132.464 98.368 132.268 98.396 132.072 98.452C131.885 98.4987 131.717 98.5733 131.568 98.676C131.418 98.7787 131.297 98.9093 131.204 99.068C131.12 99.2267 131.078 99.4133 131.078 99.628V104.5H129.552ZM140.647 104.668C140.124 104.668 139.657 104.579 139.247 104.402C138.836 104.225 138.491 103.973 138.211 103.646C137.931 103.31 137.716 102.909 137.567 102.442C137.417 101.966 137.343 101.439 137.343 100.86C137.343 100.281 137.417 99.7587 137.567 99.292C137.716 98.816 137.931 98.4147 138.211 98.088C138.491 97.752 138.836 97.4953 139.247 97.318C139.657 97.1407 140.124 97.052 140.647 97.052C141.375 97.052 141.972 97.2153 142.439 97.542C142.905 97.8687 143.246 98.3027 143.461 98.844L142.201 99.432C142.098 99.096 141.916 98.83 141.655 98.634C141.403 98.4287 141.067 98.326 140.647 98.326C140.087 98.326 139.662 98.5033 139.373 98.858C139.093 99.2033 138.953 99.656 138.953 100.216V101.518C138.953 102.078 139.093 102.535 139.373 102.89C139.662 103.235 140.087 103.408 140.647 103.408C141.095 103.408 141.449 103.301 141.711 103.086C141.981 102.862 142.196 102.568 142.355 102.204L143.517 102.82C143.274 103.417 142.91 103.875 142.425 104.192C141.939 104.509 141.347 104.668 140.647 104.668ZM149.595 97.22H151.065L147.999 105.942C147.915 106.185 147.817 106.39 147.705 106.558C147.603 106.735 147.477 106.875 147.327 106.978C147.187 107.09 147.015 107.169 146.809 107.216C146.604 107.272 146.361 107.3 146.081 107.3H145.199V106.054H146.431L146.851 104.822L144.205 97.22H145.731L147.187 101.504L147.607 103.086H147.677L148.139 101.504L149.595 97.22Z" fill="black"/>
<path d="M72 116.5C72 114.843 73.3431 113.5 75 113.5H301C302.657 113.5 304 114.843 304 116.5C304 118.157 302.657 119.5 301 119.5H75C73.3431 119.5 72 118.157 72 116.5Z" fill="#E6E6E6"/>
<path d="M72 116.5C72 114.843 73.3431 113.5 75 113.5H183C184.657 113.5 186 114.843 186 116.5C186 118.157 184.657 119.5 183 119.5H75C73.3431 119.5 72 118.157 72 116.5Z" fill="#5773FF" fill-opacity="0.2"/>
<path d="M72 116.5C72 114.843 73.3431 113.5 75 113.5H137C138.657 113.5 140 114.843 140 116.5C140 118.157 138.657 119.5 137 119.5H75C73.3431 119.5 72 118.157 72 116.5Z" fill="#5773FF"/>
<path d="M24 148C24 142.477 28.4772 138 34 138H50C55.5228 138 60 142.477 60 148V164C60 169.523 55.5228 174 50 174H34C28.4772 174 24 169.523 24 164V148Z" fill="#5773FF" fill-opacity="0.2"/>
<path d="M46.8 156.6L48.1605 153.925L48.3209 153.649M46.8 156.6L46.2789 157.642C46.0602 158.08 45.5576 158.297 45.0846 158.173C43.7529 157.825 40.9985 157.2 38.4 157.2C35.2485 157.2 33.2368 157.643 32.3825 157.881C32.112 157.956 31.8 158.119 31.8 158.4V158.4C31.8 159 32.1833 161.588 32.4 162C32.6166 162.412 32.7333 163.049 33.6 163.8C34.4667 164.551 36.0944 165 36.6 165H38.4H40.8C42 165 44.6 163.2 45 162C45.3059 161.082 45.4074 159.409 45.6 159L46.8 156.6ZM46.8 156.6L48 154.2L48.3209 153.649M48.3209 153.649L49.0485 152.4L50.6899 148.557L52.2 145.2L48.509 153.406C48.4664 153.501 48.402 153.584 48.3209 153.649V153.649Z" stroke="#5773FF" stroke-width="1.67"/>
<path d="M73.204 146.728H76.662C77.2873 146.728 77.852 146.831 78.356 147.036C78.8693 147.241 79.3033 147.549 79.658 147.96C80.022 148.361 80.302 148.87 80.498 149.486C80.694 150.093 80.792 150.802 80.792 151.614C80.792 152.426 80.694 153.14 80.498 153.756C80.302 154.363 80.022 154.871 79.658 155.282C79.3033 155.683 78.8693 155.987 78.356 156.192C77.852 156.397 77.2873 156.5 76.662 156.5H73.204V146.728ZM76.662 155.1C77.39 155.1 77.978 154.871 78.426 154.414C78.874 153.957 79.098 153.285 79.098 152.398V150.83C79.098 149.943 78.874 149.271 78.426 148.814C77.978 148.357 77.39 148.128 76.662 148.128H74.786V155.1H76.662ZM83.5786 147.918C83.2613 147.918 83.028 147.843 82.8786 147.694C82.7386 147.545 82.6686 147.353 82.6686 147.12V146.882C82.6686 146.649 82.7386 146.457 82.8786 146.308C83.028 146.159 83.2613 146.084 83.5786 146.084C83.896 146.084 84.1246 146.159 84.2646 146.308C84.4046 146.457 84.4746 146.649 84.4746 146.882V147.12C84.4746 147.353 84.4046 147.545 84.2646 147.694C84.1246 147.843 83.896 147.918 83.5786 147.918ZM82.8086 149.22H84.3346V156.5H82.8086V149.22ZM88.9837 156.668C88.2931 156.668 87.7144 156.547 87.2477 156.304C86.7811 156.061 86.3751 155.725 86.0297 155.296L87.0097 154.4C87.2804 154.727 87.5791 154.983 87.9057 155.17C88.2417 155.347 88.6291 155.436 89.0677 155.436C89.5157 155.436 89.8471 155.352 90.0617 155.184C90.2857 155.007 90.3977 154.764 90.3977 154.456C90.3977 154.223 90.3184 154.027 90.1597 153.868C90.0104 153.7 89.7444 153.593 89.3617 153.546L88.6897 153.462C87.9431 153.369 87.3551 153.154 86.9257 152.818C86.5057 152.473 86.2957 151.964 86.2957 151.292C86.2957 150.937 86.3611 150.625 86.4917 150.354C86.6224 150.074 86.8044 149.841 87.0377 149.654C87.2804 149.458 87.5651 149.309 87.8917 149.206C88.2277 149.103 88.5964 149.052 88.9977 149.052C89.6511 149.052 90.1831 149.155 90.5937 149.36C91.0137 149.565 91.3871 149.85 91.7137 150.214L90.7757 151.11C90.5891 150.886 90.3417 150.695 90.0337 150.536C89.7351 150.368 89.3897 150.284 88.9977 150.284C88.5777 150.284 88.2651 150.368 88.0597 150.536C87.8637 150.704 87.7657 150.923 87.7657 151.194C87.7657 151.474 87.8544 151.684 88.0317 151.824C88.2091 151.964 88.4937 152.067 88.8857 152.132L89.5577 152.216C90.3604 152.337 90.9437 152.575 91.3077 152.93C91.6811 153.275 91.8677 153.742 91.8677 154.33C91.8677 154.685 91.7977 155.007 91.6577 155.296C91.5271 155.576 91.3357 155.819 91.0837 156.024C90.8317 156.229 90.5284 156.388 90.1737 156.5C89.8191 156.612 89.4224 156.668 88.9837 156.668ZM95.672 156.5C95.14 156.5 94.7387 156.365 94.468 156.094C94.1973 155.814 94.062 155.422 94.062 154.918V150.466H92.928V149.22H93.544C93.796 149.22 93.9687 149.164 94.062 149.052C94.1647 148.94 94.216 148.758 94.216 148.506V147.232H95.588V149.22H97.114V150.466H95.588V155.254H97.002V156.5H95.672ZM104.263 156.5C103.862 156.5 103.554 156.388 103.339 156.164C103.125 155.931 102.994 155.637 102.947 155.282H102.877C102.737 155.739 102.481 156.085 102.107 156.318C101.734 156.551 101.281 156.668 100.749 156.668C99.9933 156.668 99.4099 156.472 98.9993 156.08C98.5979 155.688 98.3973 155.161 98.3973 154.498C98.3973 153.77 98.6586 153.224 99.1813 152.86C99.7133 152.496 100.488 152.314 101.505 152.314H102.821V151.698C102.821 151.25 102.7 150.905 102.457 150.662C102.215 150.419 101.837 150.298 101.323 150.298C100.894 150.298 100.544 150.391 100.273 150.578C100.003 150.765 99.7739 151.003 99.5873 151.292L98.6773 150.466C98.9199 150.055 99.2606 149.719 99.6993 149.458C100.138 149.187 100.712 149.052 101.421 149.052C102.364 149.052 103.087 149.271 103.591 149.71C104.095 150.149 104.347 150.779 104.347 151.6V155.254H105.117V156.5H104.263ZM101.183 155.506C101.659 155.506 102.051 155.403 102.359 155.198C102.667 154.983 102.821 154.699 102.821 154.344V153.294H101.533C100.479 153.294 99.9513 153.621 99.9513 154.274V154.526C99.9513 154.853 100.059 155.1 100.273 155.268C100.497 155.427 100.801 155.506 101.183 155.506ZM106.773 156.5V149.22H108.299V150.424H108.369C108.528 150.032 108.766 149.705 109.083 149.444C109.41 149.183 109.853 149.052 110.413 149.052C111.16 149.052 111.738 149.299 112.149 149.794C112.569 150.279 112.779 150.975 112.779 151.88V156.5H111.253V152.076C111.253 150.937 110.796 150.368 109.881 150.368C109.685 150.368 109.489 150.396 109.293 150.452C109.106 150.499 108.938 150.573 108.789 150.676C108.64 150.779 108.518 150.909 108.425 151.068C108.341 151.227 108.299 151.413 108.299 151.628V156.5H106.773ZM117.868 156.668C117.345 156.668 116.879 156.579 116.468 156.402C116.057 156.225 115.712 155.973 115.432 155.646C115.152 155.31 114.937 154.909 114.788 154.442C114.639 153.966 114.564 153.439 114.564 152.86C114.564 152.281 114.639 151.759 114.788 151.292C114.937 150.816 115.152 150.415 115.432 150.088C115.712 149.752 116.057 149.495 116.468 149.318C116.879 149.141 117.345 149.052 117.868 149.052C118.596 149.052 119.193 149.215 119.66 149.542C120.127 149.869 120.467 150.303 120.682 150.844L119.422 151.432C119.319 151.096 119.137 150.83 118.876 150.634C118.624 150.429 118.288 150.326 117.868 150.326C117.308 150.326 116.883 150.503 116.594 150.858C116.314 151.203 116.174 151.656 116.174 152.216V153.518C116.174 154.078 116.314 154.535 116.594 154.89C116.883 155.235 117.308 155.408 117.868 155.408C118.316 155.408 118.671 155.301 118.932 155.086C119.203 154.862 119.417 154.568 119.576 154.204L120.738 154.82C120.495 155.417 120.131 155.875 119.646 156.192C119.161 156.509 118.568 156.668 117.868 156.668ZM125.125 156.668C124.602 156.668 124.135 156.579 123.725 156.402C123.314 156.225 122.964 155.973 122.675 155.646C122.385 155.31 122.161 154.909 122.003 154.442C121.853 153.966 121.779 153.439 121.779 152.86C121.779 152.281 121.853 151.759 122.003 151.292C122.161 150.816 122.385 150.415 122.675 150.088C122.964 149.752 123.314 149.495 123.725 149.318C124.135 149.141 124.602 149.052 125.125 149.052C125.657 149.052 126.123 149.145 126.525 149.332C126.935 149.519 127.276 149.78 127.547 150.116C127.817 150.443 128.018 150.825 128.149 151.264C128.289 151.703 128.359 152.174 128.359 152.678V153.252H123.361V153.49C123.361 154.05 123.524 154.512 123.851 154.876C124.187 155.231 124.663 155.408 125.279 155.408C125.727 155.408 126.105 155.31 126.413 155.114C126.721 154.918 126.982 154.652 127.197 154.316L128.093 155.198C127.822 155.646 127.43 156.005 126.917 156.276C126.403 156.537 125.806 156.668 125.125 156.668ZM125.125 150.242C124.863 150.242 124.621 150.289 124.397 150.382C124.182 150.475 123.995 150.606 123.837 150.774C123.687 150.942 123.571 151.143 123.487 151.376C123.403 151.609 123.361 151.866 123.361 152.146V152.244H126.749V152.104C126.749 151.544 126.604 151.096 126.315 150.76C126.025 150.415 125.629 150.242 125.125 150.242Z" fill="black"/>
<path d="M72 168.5C72 166.843 73.3431 165.5 75 165.5H301C302.657 165.5 304 166.843 304 168.5C304 170.157 302.657 171.5 301 171.5H75C73.3431 171.5 72 170.157 72 168.5Z" fill="#E6E6E6"/>
<path d="M72 168.5C72 166.843 73.3431 165.5 75 165.5H193C194.657 165.5 196 166.843 196 168.5C196 170.157 194.657 171.5 193 171.5H75C73.3431 171.5 72 170.157 72 168.5Z" fill="#5773FF" fill-opacity="0.2"/>
<path d="M72 168.5C72 166.843 73.3431 165.5 75 165.5H146C147.657 165.5 149 166.843 149 168.5C149 170.157 147.657 171.5 146 171.5H75C73.3431 171.5 72 170.157 72 168.5Z" fill="#5773FF"/>
<path d="M24 200C24 194.477 28.4772 190 34 190H50C55.5228 190 60 194.477 60 200V216C60 221.523 55.5228 226 50 226H34C28.4772 226 24 221.523 24 216V200Z" fill="#5773FF" fill-opacity="0.2"/>
<mask id="mask0_1_20979" style="mask-type:alpha" maskUnits="userSpaceOnUse" x="30" y="196" width="24" height="24">
<rect x="30" y="196" width="24" height="24" fill="#D9D9D9"/>
</mask>
<g mask="url(#mask0_1_20979)">
<path d="M42.0018 211.5C40.1916 211.5 38.6554 210.87 37.3933 209.609C36.1311 208.348 35.5 206.812 35.5 205.002C35.5 203.192 36.1305 201.655 37.3914 200.393C38.6524 199.131 40.1879 198.5 41.9981 198.5C43.8083 198.5 45.3445 199.131 46.6067 200.391C47.8689 201.652 48.5 203.188 48.5 204.998C48.5 206.808 47.8695 208.345 46.6085 209.607C45.3476 210.869 43.812 211.5 42.0018 211.5ZM42 210C43.3833 210 44.5625 209.513 45.5375 208.538C46.5125 207.563 47 206.383 47 205C47 203.617 46.5125 202.438 45.5375 201.463C44.5625 200.488 43.3833 200 42 200C40.6166 200 39.4375 200.488 38.4625 201.463C37.4875 202.438 37 203.617 37 205C37 206.383 37.4875 207.563 38.4625 208.538C39.4375 209.513 40.6166 210 42 210ZM40 205C40.2833 205 40.5208 204.904 40.7125 204.713C40.9041 204.521 41 204.283 41 204C41 203.717 40.9041 203.479 40.7125 203.288C40.5208 203.096 40.2833 203 40 203C39.7166 203 39.4791 203.096 39.2875 203.288C39.0958 203.479 39 203.717 39 204C39 204.283 39.0958 204.521 39.2875 204.713C39.4791 204.904 39.7166 205 40 205ZM44 205C44.2833 205 44.5208 204.904 44.7125 204.713C44.9041 204.521 45 204.283 45 204C45 203.717 44.9041 203.479 44.7125 203.288C44.5208 203.096 44.2833 203 44 203C43.7166 203 43.4791 203.096 43.2875 203.288C43.0958 203.479 43 203.717 43 204C43 204.283 43.0958 204.521 43.2875 204.713C43.4791 204.904 43.7166 205 44 205ZM42 203C42.2833 203 42.5208 202.904 42.7125 202.713C42.9041 202.521 43 202.283 43 202C43 201.717 42.9041 201.479 42.7125 201.288C42.5208 201.096 42.2833 201 42 201C41.7166 201 41.4791 201.096 41.2875 201.288C41.0958 201.479 41 201.717 41 202C41 202.283 41.0958 202.521 41.2875 202.713C41.4791 202.904 41.7166 203 42 203ZM41.25 217.442V216.442C41.25 215.815 41.0317 215.284 40.5952 214.847C40.1586 214.411 39.6269 214.192 39 214.192H38.1346C37.9221 214.192 37.744 214.12 37.6002 213.977C37.4565 213.833 37.3846 213.655 37.3846 213.442C37.3846 213.229 37.4565 213.051 37.6002 212.908C37.744 212.764 37.9221 212.692 38.1346 212.692H45.8653C46.0778 212.692 46.256 212.764 46.3997 212.908C46.5435 213.052 46.6153 213.23 46.6153 213.443C46.6153 213.655 46.5435 213.833 46.3997 213.977C46.256 214.12 46.0778 214.192 45.8653 214.192H45C44.373 214.192 43.8413 214.411 43.4048 214.847C42.9682 215.284 42.7499 215.815 42.7499 216.442V217.442H41.25Z" fill="#5773FF"/>
</g>
<path d="M73.204 198.728H77.53C78.342 198.728 78.9767 198.957 79.434 199.414C79.9007 199.871 80.134 200.483 80.134 201.248C80.134 201.612 80.0827 201.925 79.98 202.186C79.8773 202.438 79.7467 202.648 79.588 202.816C79.4293 202.975 79.2473 203.096 79.042 203.18C78.8367 203.255 78.636 203.301 78.44 203.32V203.404C78.636 203.413 78.8507 203.46 79.084 203.544C79.3267 203.628 79.5507 203.763 79.756 203.95C79.9613 204.127 80.134 204.361 80.274 204.65C80.414 204.93 80.484 205.275 80.484 205.686C80.484 206.078 80.4187 206.447 80.288 206.792C80.1667 207.137 79.994 207.436 79.77 207.688C79.546 207.94 79.28 208.141 78.972 208.29C78.664 208.43 78.328 208.5 77.964 208.5H73.204V198.728ZM74.786 207.142H77.502C77.9127 207.142 78.2347 207.035 78.468 206.82C78.7013 206.605 78.818 206.297 78.818 205.896V205.42C78.818 205.019 78.7013 204.711 78.468 204.496C78.2347 204.281 77.9127 204.174 77.502 204.174H74.786V207.142ZM74.786 202.858H77.236C77.628 202.858 77.9313 202.76 78.146 202.564C78.3607 202.359 78.468 202.069 78.468 201.696V201.248C78.468 200.875 78.3607 200.59 78.146 200.394C77.9313 200.189 77.628 200.086 77.236 200.086H74.786V202.858ZM87.8145 208.5C87.4132 208.5 87.1052 208.388 86.8905 208.164C86.6758 207.931 86.5452 207.637 86.4985 207.282H86.4285C86.2885 207.739 86.0318 208.085 85.6585 208.318C85.2852 208.551 84.8325 208.668 84.3005 208.668C83.5445 208.668 82.9612 208.472 82.5505 208.08C82.1492 207.688 81.9485 207.161 81.9485 206.498C81.9485 205.77 82.2098 205.224 82.7325 204.86C83.2645 204.496 84.0392 204.314 85.0565 204.314H86.3725V203.698C86.3725 203.25 86.2512 202.905 86.0085 202.662C85.7658 202.419 85.3878 202.298 84.8745 202.298C84.4452 202.298 84.0952 202.391 83.8245 202.578C83.5538 202.765 83.3252 203.003 83.1385 203.292L82.2285 202.466C82.4712 202.055 82.8118 201.719 83.2505 201.458C83.6892 201.187 84.2632 201.052 84.9725 201.052C85.9152 201.052 86.6385 201.271 87.1425 201.71C87.6465 202.149 87.8985 202.779 87.8985 203.6V207.254H88.6685V208.5H87.8145ZM84.7345 207.506C85.2105 207.506 85.6025 207.403 85.9105 207.198C86.2185 206.983 86.3725 206.699 86.3725 206.344V205.294H85.0845C84.0298 205.294 83.5025 205.621 83.5025 206.274V206.526C83.5025 206.853 83.6098 207.1 83.8245 207.268C84.0485 207.427 84.3518 207.506 84.7345 207.506ZM91.8781 208.5C91.3554 208.5 90.9634 208.369 90.7021 208.108C90.4501 207.837 90.3241 207.464 90.3241 206.988V198.14H91.8501V207.254H92.8581V208.5H91.8781ZM95.9483 208.5C95.4256 208.5 95.0336 208.369 94.7723 208.108C94.5203 207.837 94.3943 207.464 94.3943 206.988V198.14H95.9203V207.254H96.9283V208.5H95.9483ZM102.127 208.5V198.728H108.231V200.128H103.709V202.844H107.727V204.244H103.709V208.5H102.127ZM111.713 208.5C111.191 208.5 110.799 208.369 110.537 208.108C110.285 207.837 110.159 207.464 110.159 206.988V198.14H111.685V207.254H112.693V208.5H111.713ZM115.082 199.918C114.764 199.918 114.531 199.843 114.382 199.694C114.242 199.545 114.172 199.353 114.172 199.12V198.882C114.172 198.649 114.242 198.457 114.382 198.308C114.531 198.159 114.764 198.084 115.082 198.084C115.399 198.084 115.628 198.159 115.768 198.308C115.908 198.457 115.978 198.649 115.978 198.882V199.12C115.978 199.353 115.908 199.545 115.768 199.694C115.628 199.843 115.399 199.918 115.082 199.918ZM114.312 201.22H115.838V208.5H114.312V201.22ZM124.561 209.186C124.561 209.942 124.271 210.511 123.693 210.894C123.114 211.277 122.171 211.468 120.865 211.468C120.267 211.468 119.759 211.426 119.339 211.342C118.928 211.267 118.587 211.155 118.317 211.006C118.055 210.857 117.864 210.675 117.743 210.46C117.621 210.245 117.561 209.998 117.561 209.718C117.561 209.317 117.668 209.004 117.883 208.78C118.107 208.556 118.415 208.402 118.807 208.318V208.164C118.256 207.987 117.981 207.613 117.981 207.044C117.981 206.671 118.107 206.386 118.359 206.19C118.611 205.985 118.914 205.84 119.269 205.756V205.7C118.839 205.495 118.508 205.21 118.275 204.846C118.051 204.473 117.939 204.039 117.939 203.544C117.939 202.797 118.186 202.195 118.681 201.738C119.185 201.281 119.903 201.052 120.837 201.052C121.35 201.052 121.789 201.127 122.153 201.276V201.08C122.153 200.753 122.227 200.501 122.377 200.324C122.535 200.137 122.778 200.044 123.105 200.044H124.225V201.276H122.741V201.57C123.067 201.785 123.319 202.065 123.497 202.41C123.674 202.746 123.763 203.124 123.763 203.544C123.763 204.281 123.511 204.879 123.007 205.336C122.503 205.784 121.784 206.008 120.851 206.008C120.496 206.008 120.179 205.971 119.899 205.896C119.712 205.961 119.549 206.055 119.409 206.176C119.269 206.288 119.199 206.437 119.199 206.624C119.199 206.82 119.287 206.96 119.465 207.044C119.642 207.128 119.894 207.17 120.221 207.17H122.013C122.909 207.17 123.557 207.352 123.959 207.716C124.36 208.071 124.561 208.561 124.561 209.186ZM123.133 209.354C123.133 209.102 123.035 208.901 122.839 208.752C122.652 208.603 122.307 208.528 121.803 208.528H119.339C119.003 208.724 118.835 209.004 118.835 209.368C118.835 209.667 118.951 209.905 119.185 210.082C119.427 210.269 119.833 210.362 120.403 210.362H121.355C122.54 210.362 123.133 210.026 123.133 209.354ZM120.851 204.902C121.299 204.902 121.644 204.804 121.887 204.608C122.139 204.403 122.265 204.09 122.265 203.67V203.39C122.265 202.97 122.139 202.662 121.887 202.466C121.644 202.261 121.299 202.158 120.851 202.158C120.403 202.158 120.053 202.261 119.801 202.466C119.558 202.662 119.437 202.97 119.437 203.39V203.67C119.437 204.09 119.558 204.403 119.801 204.608C120.053 204.804 120.403 204.902 120.851 204.902ZM125.856 198.14H127.382V202.424H127.452C127.611 202.032 127.849 201.705 128.166 201.444C128.493 201.183 128.936 201.052 129.496 201.052C130.243 201.052 130.822 201.299 131.232 201.794C131.652 202.279 131.862 202.975 131.862 203.88V208.5H130.336V204.062C130.336 202.933 129.879 202.368 128.964 202.368C128.768 202.368 128.572 202.396 128.376 202.452C128.19 202.499 128.022 202.573 127.872 202.676C127.723 202.779 127.602 202.909 127.508 203.068C127.424 203.227 127.382 203.409 127.382 203.614V208.5H125.856V198.14ZM136.153 208.5C135.621 208.5 135.22 208.365 134.949 208.094C134.679 207.814 134.543 207.422 134.543 206.918V202.466H133.409V201.22H134.025C134.277 201.22 134.45 201.164 134.543 201.052C134.646 200.94 134.697 200.758 134.697 200.506V199.232H136.069V201.22H137.595V202.466H136.069V207.254H137.483V208.5H136.153Z" fill="black"/>
<path d="M72 220.5C72 218.843 73.3431 217.5 75 217.5H301C302.657 217.5 304 218.843 304 220.5C304 222.157 302.657 223.5 301 223.5H75C73.3431 223.5 72 222.157 72 220.5Z" fill="#E6E6E6"/>
<path d="M72 220.5C72 218.843 73.3431 217.5 75 217.5H187C188.657 217.5 190 218.843 190 220.5C190 222.157 188.657 223.5 187 223.5H75C73.3431 223.5 72 222.157 72 220.5Z" fill="#5773FF" fill-opacity="0.2"/>
<path d="M72 220.5C72 218.843 73.3431 217.5 75 217.5H145C146.657 217.5 148 218.843 148 220.5C148 222.157 146.657 223.5 145 223.5H75C73.3431 223.5 72 222.157 72 220.5Z" fill="#5773FF"/>
</svg>
