<svg width="276" height="275" viewBox="0 0 276 275" fill="none" xmlns="http://www.w3.org/2000/svg">
<path d="M0.5 16C0.5 7.16344 7.66344 0 16.5 0H259.25C268.087 0 275.25 7.16344 275.25 16V258.5C275.25 267.337 268.087 274.5 259.25 274.5H16.5C7.66344 274.5 0.5 267.337 0.5 258.5V16Z" fill="white"/>
<path d="M31.436 51.288C30.076 51.288 28.916 51.032 27.956 50.52C26.996 49.992 26.18 49.272 25.508 48.36L26.996 47.112C27.588 47.896 28.244 48.496 28.964 48.912C29.684 49.312 30.532 49.512 31.508 49.512C32.708 49.512 33.62 49.224 34.244 48.648C34.884 48.072 35.204 47.304 35.204 46.344C35.204 45.544 34.964 44.928 34.484 44.496C34.004 44.064 33.212 43.72 32.108 43.464L30.74 43.152C29.204 42.8 28.028 42.272 27.212 41.568C26.412 40.848 26.012 39.84 26.012 38.544C26.012 37.808 26.148 37.152 26.42 36.576C26.692 36 27.068 35.52 27.548 35.136C28.044 34.752 28.628 34.464 29.3 34.272C29.988 34.064 30.74 33.96 31.556 33.96C32.82 33.96 33.9 34.192 34.796 34.656C35.708 35.12 36.476 35.8 37.1 36.696L35.588 37.8C35.124 37.16 34.564 36.656 33.908 36.288C33.252 35.92 32.436 35.736 31.46 35.736C30.388 35.736 29.54 35.968 28.916 36.432C28.308 36.88 28.004 37.56 28.004 38.472C28.004 39.272 28.26 39.88 28.772 40.296C29.3 40.696 30.092 41.016 31.148 41.256L32.516 41.568C34.164 41.936 35.356 42.496 36.092 43.248C36.828 44 37.196 45 37.196 46.248C37.196 47.016 37.06 47.712 36.788 48.336C36.532 48.96 36.156 49.488 35.66 49.92C35.164 50.352 34.556 50.688 33.836 50.928C33.132 51.168 32.332 51.288 31.436 51.288ZM39.1893 38.616H41.0613L42.3813 43.968L43.7013 49.392H43.7493L45.2613 43.968L46.8213 38.616H48.5253L50.1333 43.968L51.6693 49.392H51.7173L52.9893 43.968L54.3333 38.616H56.1333L52.8453 51H50.4693L48.7413 45.048L47.6613 41.28H47.6133L46.5573 45.048L44.8293 51H42.5013L39.1893 38.616ZM59.8672 35.712C59.4512 35.712 59.1472 35.616 58.9552 35.424C58.7792 35.216 58.6912 34.952 58.6912 34.632V34.32C58.6912 34 58.7792 33.744 58.9552 33.552C59.1472 33.344 59.4512 33.24 59.8672 33.24C60.2832 33.24 60.5792 33.344 60.7552 33.552C60.9472 33.744 61.0432 34 61.0432 34.32V34.632C61.0432 34.952 60.9472 35.216 60.7552 35.424C60.5792 35.616 60.2832 35.712 59.8672 35.712ZM58.9072 38.616H60.8272V51H58.9072V38.616ZM64.9072 51V38.616H66.8272V40.632H66.9232C67.2272 39.928 67.6512 39.368 68.1952 38.952C68.7552 38.536 69.4992 38.328 70.4272 38.328C71.7072 38.328 72.7152 38.744 73.4512 39.576C74.2032 40.392 74.5792 41.552 74.5792 43.056V51H72.6592V43.392C72.6592 41.168 71.7232 40.056 69.8512 40.056C69.4672 40.056 69.0912 40.104 68.7232 40.2C68.3712 40.296 68.0512 40.44 67.7632 40.632C67.4752 40.824 67.2432 41.072 67.0672 41.376C66.9072 41.664 66.8272 42.008 66.8272 42.408V51H64.9072ZM88.9878 52.368C88.9878 53.648 88.4838 54.584 87.4758 55.176C86.4838 55.784 84.9878 56.088 82.9878 56.088C81.0518 56.088 79.6598 55.824 78.8118 55.296C77.9638 54.768 77.5398 54.016 77.5398 53.04C77.5398 52.368 77.7158 51.84 78.0678 51.456C78.4198 51.088 78.8998 50.816 79.5078 50.64V50.376C78.7718 50.024 78.4038 49.448 78.4038 48.648C78.4038 48.024 78.6038 47.552 79.0038 47.232C79.4038 46.896 79.9158 46.648 80.5398 46.488V46.392C79.8038 46.04 79.2278 45.536 78.8118 44.88C78.4118 44.224 78.2118 43.464 78.2118 42.6C78.2118 41.976 78.3238 41.4 78.5478 40.872C78.7718 40.344 79.0838 39.896 79.4838 39.528C79.8998 39.144 80.3878 38.848 80.9478 38.64C81.5238 38.432 82.1638 38.328 82.8678 38.328C83.7478 38.328 84.5318 38.488 85.2198 38.808V38.592C85.2198 38.112 85.3318 37.72 85.5558 37.416C85.7798 37.096 86.1478 36.936 86.6598 36.936H88.5078V38.616H86.1558V39.408C86.6038 39.792 86.9478 40.256 87.1878 40.8C87.4438 41.328 87.5718 41.928 87.5718 42.6C87.5718 43.224 87.4598 43.8 87.2358 44.328C87.0118 44.856 86.6918 45.312 86.2758 45.696C85.8758 46.064 85.3878 46.352 84.8118 46.56C84.2358 46.768 83.5958 46.872 82.8918 46.872C82.4918 46.872 82.0918 46.832 81.6918 46.752C81.2758 46.864 80.8998 47.032 80.5638 47.256C80.2278 47.464 80.0598 47.76 80.0598 48.144C80.0598 48.512 80.2358 48.76 80.5878 48.888C80.9398 49.016 81.3958 49.08 81.9558 49.08H84.5958C86.1318 49.08 87.2438 49.376 87.9318 49.968C88.6358 50.544 88.9878 51.344 88.9878 52.368ZM87.1878 52.512C87.1878 52.016 86.9958 51.616 86.6118 51.312C86.2438 51.024 85.5798 50.88 84.6198 50.88H80.4918C79.7238 51.232 79.3398 51.792 79.3398 52.56C79.3398 53.104 79.5398 53.568 79.9398 53.952C80.3558 54.336 81.0518 54.528 82.0278 54.528H83.8038C84.8758 54.528 85.7078 54.36 86.2998 54.024C86.8918 53.688 87.1878 53.184 87.1878 52.512ZM82.8918 45.336C83.7078 45.336 84.3558 45.144 84.8358 44.76C85.3158 44.36 85.5558 43.752 85.5558 42.936V42.264C85.5558 41.448 85.3158 40.848 84.8358 40.464C84.3558 40.064 83.7078 39.864 82.8918 39.864C82.0758 39.864 81.4278 40.064 80.9478 40.464C80.4678 40.848 80.2278 41.448 80.2278 42.264V42.936C80.2278 43.752 80.4678 44.36 80.9478 44.76C81.4278 45.144 82.0758 45.336 82.8918 45.336ZM96.2994 51V49.32H98.6514V35.928H96.2994V34.248H103.019V35.928H100.667V49.32H103.019V51H96.2994ZM106.509 51V38.616H108.429V40.632H108.525C108.669 40.312 108.829 40.016 109.005 39.744C109.197 39.456 109.421 39.208 109.677 39C109.949 38.792 110.261 38.632 110.613 38.52C110.965 38.392 111.381 38.328 111.861 38.328C112.677 38.328 113.429 38.528 114.117 38.928C114.805 39.312 115.317 39.952 115.653 40.848H115.701C115.925 40.176 116.341 39.592 116.949 39.096C117.573 38.584 118.413 38.328 119.469 38.328C120.733 38.328 121.717 38.744 122.421 39.576C123.141 40.392 123.501 41.552 123.501 43.056V51H121.581V43.392C121.581 42.288 121.365 41.456 120.933 40.896C120.501 40.336 119.813 40.056 118.869 40.056C118.485 40.056 118.117 40.104 117.765 40.2C117.429 40.296 117.125 40.44 116.853 40.632C116.581 40.824 116.365 41.072 116.205 41.376C116.045 41.664 115.965 42.008 115.965 42.408V51H114.045V43.392C114.045 42.288 113.829 41.456 113.397 40.896C112.965 40.336 112.293 40.056 111.381 40.056C110.997 40.056 110.629 40.104 110.277 40.2C109.925 40.296 109.613 40.44 109.341 40.632C109.069 40.824 108.845 41.072 108.669 41.376C108.509 41.664 108.429 42.008 108.429 42.408V51H106.509ZM127.462 38.616H129.382V40.632H129.478C129.798 39.848 130.262 39.272 130.87 38.904C131.494 38.52 132.238 38.328 133.102 38.328C133.87 38.328 134.566 38.48 135.19 38.784C135.814 39.088 136.342 39.52 136.774 40.08C137.222 40.64 137.558 41.32 137.782 42.12C138.022 42.92 138.142 43.816 138.142 44.808C138.142 45.8 138.022 46.696 137.782 47.496C137.558 48.296 137.222 48.976 136.774 49.536C136.342 50.096 135.814 50.528 135.19 50.832C134.566 51.136 133.87 51.288 133.102 51.288C131.422 51.288 130.214 50.52 129.478 48.984H129.382V55.8H127.462V38.616ZM132.574 49.56C133.662 49.56 134.518 49.224 135.142 48.552C135.766 47.864 136.078 46.968 136.078 45.864V43.752C136.078 42.648 135.766 41.76 135.142 41.088C134.518 40.4 133.662 40.056 132.574 40.056C132.142 40.056 131.726 40.12 131.326 40.248C130.942 40.36 130.606 40.52 130.318 40.728C130.03 40.936 129.798 41.192 129.622 41.496C129.462 41.784 129.382 42.096 129.382 42.432V47.04C129.382 47.44 129.462 47.8 129.622 48.12C129.798 48.424 130.03 48.688 130.318 48.912C130.606 49.12 130.942 49.28 131.326 49.392C131.726 49.504 132.142 49.56 132.574 49.56ZM141.384 51V38.616H143.304V40.896H143.424C143.648 40.304 144.048 39.776 144.624 39.312C145.2 38.848 145.992 38.616 147 38.616H147.744V40.536H146.616C145.576 40.536 144.76 40.736 144.168 41.136C143.592 41.52 143.304 42.008 143.304 42.6V51H141.384ZM154.759 51.288C153.927 51.288 153.167 51.136 152.479 50.832C151.791 50.528 151.199 50.096 150.703 49.536C150.223 48.96 149.847 48.28 149.575 47.496C149.303 46.696 149.167 45.8 149.167 44.808C149.167 43.832 149.303 42.944 149.575 42.144C149.847 41.344 150.223 40.664 150.703 40.104C151.199 39.528 151.791 39.088 152.479 38.784C153.167 38.48 153.927 38.328 154.759 38.328C155.591 38.328 156.343 38.48 157.015 38.784C157.703 39.088 158.295 39.528 158.791 40.104C159.287 40.664 159.671 41.344 159.943 42.144C160.215 42.944 160.351 43.832 160.351 44.808C160.351 45.8 160.215 46.696 159.943 47.496C159.671 48.28 159.287 48.96 158.791 49.536C158.295 50.096 157.703 50.528 157.015 50.832C156.343 51.136 155.591 51.288 154.759 51.288ZM154.759 49.584C155.799 49.584 156.647 49.264 157.303 48.624C157.959 47.984 158.287 47.008 158.287 45.696V43.92C158.287 42.608 157.959 41.632 157.303 40.992C156.647 40.352 155.799 40.032 154.759 40.032C153.719 40.032 152.871 40.352 152.215 40.992C151.559 41.632 151.231 42.608 151.231 43.92V45.696C151.231 47.008 151.559 47.984 152.215 48.624C152.871 49.264 153.719 49.584 154.759 49.584ZM166.057 51L161.713 38.616H163.633L165.793 44.76L167.137 48.984H167.257L168.601 44.76L170.809 38.616H172.657L168.289 51H166.057ZM179.602 51.288C178.754 51.288 177.986 51.136 177.298 50.832C176.626 50.528 176.042 50.096 175.546 49.536C175.066 48.96 174.69 48.28 174.418 47.496C174.162 46.696 174.034 45.8 174.034 44.808C174.034 43.832 174.162 42.944 174.418 42.144C174.69 41.344 175.066 40.664 175.546 40.104C176.042 39.528 176.626 39.088 177.298 38.784C177.986 38.48 178.754 38.328 179.602 38.328C180.434 38.328 181.178 38.48 181.834 38.784C182.49 39.088 183.05 39.512 183.514 40.056C183.978 40.584 184.33 41.216 184.57 41.952C184.826 42.688 184.954 43.496 184.954 44.376V45.288H176.05V45.864C176.05 46.392 176.13 46.888 176.29 47.352C176.466 47.8 176.706 48.192 177.01 48.528C177.33 48.864 177.714 49.128 178.162 49.32C178.626 49.512 179.146 49.608 179.722 49.608C180.506 49.608 181.186 49.424 181.762 49.056C182.354 48.688 182.81 48.16 183.13 47.472L184.498 48.456C184.098 49.304 183.474 49.992 182.626 50.52C181.778 51.032 180.77 51.288 179.602 51.288ZM179.602 39.936C179.074 39.936 178.594 40.032 178.162 40.224C177.73 40.4 177.354 40.656 177.034 40.992C176.73 41.328 176.49 41.728 176.314 42.192C176.138 42.64 176.05 43.136 176.05 43.68V43.848H182.89V43.584C182.89 42.48 182.586 41.6 181.978 40.944C181.386 40.272 180.594 39.936 179.602 39.936ZM188.118 51V38.616H190.038V40.632H190.134C190.278 40.312 190.438 40.016 190.614 39.744C190.806 39.456 191.03 39.208 191.286 39C191.558 38.792 191.87 38.632 192.222 38.52C192.574 38.392 192.99 38.328 193.47 38.328C194.286 38.328 195.038 38.528 195.726 38.928C196.414 39.312 196.926 39.952 197.262 40.848H197.31C197.534 40.176 197.95 39.592 198.558 39.096C199.182 38.584 200.022 38.328 201.078 38.328C202.342 38.328 203.326 38.744 204.03 39.576C204.75 40.392 205.11 41.552 205.11 43.056V51H203.19V43.392C203.19 42.288 202.974 41.456 202.542 40.896C202.11 40.336 201.422 40.056 200.478 40.056C200.094 40.056 199.726 40.104 199.374 40.2C199.038 40.296 198.734 40.44 198.462 40.632C198.19 40.824 197.974 41.072 197.814 41.376C197.654 41.664 197.574 42.008 197.574 42.408V51H195.654V43.392C195.654 42.288 195.438 41.456 195.006 40.896C194.574 40.336 193.902 40.056 192.99 40.056C192.606 40.056 192.238 40.104 191.886 40.2C191.534 40.296 191.222 40.44 190.95 40.632C190.678 40.824 190.454 41.072 190.278 41.376C190.118 41.664 190.038 42.008 190.038 42.408V51H188.118ZM213.727 51.288C212.879 51.288 212.111 51.136 211.423 50.832C210.751 50.528 210.167 50.096 209.671 49.536C209.191 48.96 208.815 48.28 208.543 47.496C208.287 46.696 208.159 45.8 208.159 44.808C208.159 43.832 208.287 42.944 208.543 42.144C208.815 41.344 209.191 40.664 209.671 40.104C210.167 39.528 210.751 39.088 211.423 38.784C212.111 38.48 212.879 38.328 213.727 38.328C214.559 38.328 215.303 38.48 215.959 38.784C216.615 39.088 217.175 39.512 217.639 40.056C218.103 40.584 218.455 41.216 218.695 41.952C218.951 42.688 219.079 43.496 219.079 44.376V45.288H210.175V45.864C210.175 46.392 210.255 46.888 210.415 47.352C210.591 47.8 210.831 48.192 211.135 48.528C211.455 48.864 211.839 49.128 212.287 49.32C212.751 49.512 213.271 49.608 213.847 49.608C214.631 49.608 215.311 49.424 215.887 49.056C216.479 48.688 216.935 48.16 217.255 47.472L218.623 48.456C218.223 49.304 217.599 49.992 216.751 50.52C215.903 51.032 214.895 51.288 213.727 51.288ZM213.727 39.936C213.199 39.936 212.719 40.032 212.287 40.224C211.855 40.4 211.479 40.656 211.159 40.992C210.855 41.328 210.615 41.728 210.439 42.192C210.263 42.64 210.175 43.136 210.175 43.68V43.848H217.015V43.584C217.015 42.48 216.711 41.6 216.103 40.944C215.511 40.272 214.719 39.936 213.727 39.936ZM222.243 51V38.616H224.163V40.632H224.259C224.563 39.928 224.987 39.368 225.531 38.952C226.091 38.536 226.835 38.328 227.763 38.328C229.043 38.328 230.051 38.744 230.787 39.576C231.539 40.392 231.915 41.552 231.915 43.056V51H229.995V43.392C229.995 41.168 229.059 40.056 227.187 40.056C226.803 40.056 226.427 40.104 226.059 40.2C225.707 40.296 225.387 40.44 225.099 40.632C224.811 40.824 224.579 41.072 224.403 41.376C224.243 41.664 224.163 42.008 224.163 42.408V51H222.243ZM238.62 51C237.948 51 237.436 50.816 237.084 50.448C236.748 50.064 236.58 49.568 236.58 48.96V40.296H234.54V38.616H235.692C236.108 38.616 236.388 38.536 236.532 38.376C236.692 38.2 236.772 37.904 236.772 37.488V35.184H238.5V38.616H241.212V40.296H238.5V49.32H241.02V51H238.62Z" fill="black"/>
<path d="M24.5 76H251.25" stroke="black" stroke-opacity="0.07" stroke-linecap="round"/>
<path d="M24.5 102C24.5 96.4772 28.9772 92 34.5 92H50.5C56.0228 92 60.5 96.4772 60.5 102V118C60.5 123.523 56.0228 128 50.5 128H34.5C28.9772 128 24.5 123.523 24.5 118V102Z" fill="#5773FF" fill-opacity="0.2"/>
<path d="M53.3 99.2L49.6432 107.33C49.5782 107.475 49.4797 107.602 49.3559 107.701L49.3378 107.716C49.2357 107.797 49.1506 107.898 49.0873 108.013L47.6664 110.584L45.2535 115.471C45.0247 115.935 44.4803 116.148 43.9978 115.962L43.9106 115.929L36.1317 112.471C36.1174 112.465 36.1039 112.459 36.0897 112.452C35.9114 112.365 34.6094 111.759 33.799 112.028C33.4343 112.15 32.9892 112.508 32.8396 112.634C32.8047 112.663 32.7732 112.695 32.7453 112.732C32.6107 112.906 32.1914 113.497 31.9933 114.34C31.7555 115.351 31.7256 116.362 31.7044 116.723C31.6832 117.084 31.7044 118.066 32.5711 118.818C33.4378 119.569 34.6657 119.757 35.1712 119.757H39.8659L43.6939 119.468C44.2958 119.371 45.9422 118.818 46.1 117.2C46.3058 115.091 46.5074 113.409 46.7 113L47.9 110.6L49.1 108.2L50.1485 106.4L51.7899 102.557L53.3 99.2Z" stroke="#5773FF" stroke-width="1.67"/>
<path d="M78.068 111.192C76.6067 111.192 75.46 110.701 74.628 109.72C73.796 108.728 73.38 107.293 73.38 105.416C73.38 104.477 73.4867 103.651 73.7 102.936C73.9133 102.221 74.2227 101.619 74.628 101.128C75.0333 100.637 75.524 100.269 76.1 100.024C76.6867 99.768 77.3427 99.64 78.068 99.64C79.0387 99.64 79.8493 99.8533 80.5 100.28C81.1613 100.707 81.6787 101.336 82.052 102.168L80.532 103C80.34 102.467 80.0413 102.045 79.636 101.736C79.2413 101.416 78.7187 101.256 78.068 101.256C77.204 101.256 76.5267 101.549 76.036 102.136C75.5453 102.723 75.3 103.533 75.3 104.568V106.264C75.3 107.299 75.5453 108.109 76.036 108.696C76.5267 109.283 77.204 109.576 78.068 109.576C78.74 109.576 79.284 109.405 79.7 109.064C80.1267 108.712 80.4413 108.264 80.644 107.72L82.1 108.6C81.7267 109.411 81.204 110.045 80.532 110.504C79.86 110.963 79.0387 111.192 78.068 111.192ZM87.3126 111.192C86.7366 111.192 86.2086 111.091 85.7286 110.888C85.2593 110.685 84.8593 110.397 84.5286 110.024C84.198 109.64 83.942 109.181 83.7606 108.648C83.5793 108.104 83.4886 107.501 83.4886 106.84C83.4886 106.179 83.5793 105.581 83.7606 105.048C83.942 104.504 84.198 104.045 84.5286 103.672C84.8593 103.288 85.2593 102.995 85.7286 102.792C86.2086 102.589 86.7366 102.488 87.3126 102.488C87.8886 102.488 88.4113 102.589 88.8806 102.792C89.3606 102.995 89.766 103.288 90.0966 103.672C90.4273 104.045 90.6833 104.504 90.8646 105.048C91.046 105.581 91.1366 106.179 91.1366 106.84C91.1366 107.501 91.046 108.104 90.8646 108.648C90.6833 109.181 90.4273 109.64 90.0966 110.024C89.766 110.397 89.3606 110.685 88.8806 110.888C88.4113 111.091 87.8886 111.192 87.3126 111.192ZM87.3126 109.752C87.91 109.752 88.39 109.571 88.7526 109.208C89.1153 108.835 89.2966 108.28 89.2966 107.544V106.136C89.2966 105.4 89.1153 104.851 88.7526 104.488C88.39 104.115 87.91 103.928 87.3126 103.928C86.7153 103.928 86.2353 104.115 85.8726 104.488C85.51 104.851 85.3286 105.4 85.3286 106.136V107.544C85.3286 108.28 85.51 108.835 85.8726 109.208C86.2353 109.571 86.7153 109.752 87.3126 109.752ZM93.2399 111V102.68H94.9839V104.056H95.0639C95.2452 103.608 95.5172 103.235 95.8799 102.936C96.2532 102.637 96.7599 102.488 97.3999 102.488C98.2532 102.488 98.9145 102.771 99.3839 103.336C99.8639 103.891 100.104 104.685 100.104 105.72V111H98.3599V105.944C98.3599 104.643 97.8372 103.992 96.7919 103.992C96.5679 103.992 96.3439 104.024 96.1199 104.088C95.9065 104.141 95.7145 104.227 95.5439 104.344C95.3732 104.461 95.2345 104.611 95.1279 104.792C95.0319 104.973 94.9839 105.187 94.9839 105.432V111H93.2399ZM105.321 111.192C104.532 111.192 103.87 111.053 103.337 110.776C102.804 110.499 102.34 110.115 101.945 109.624L103.065 108.6C103.374 108.973 103.716 109.267 104.089 109.48C104.473 109.683 104.916 109.784 105.417 109.784C105.929 109.784 106.308 109.688 106.553 109.496C106.809 109.293 106.937 109.016 106.937 108.664C106.937 108.397 106.846 108.173 106.665 107.992C106.494 107.8 106.19 107.677 105.753 107.624L104.985 107.528C104.132 107.421 103.46 107.176 102.969 106.792C102.489 106.397 102.249 105.816 102.249 105.048C102.249 104.643 102.324 104.285 102.473 103.976C102.622 103.656 102.83 103.389 103.097 103.176C103.374 102.952 103.7 102.781 104.073 102.664C104.457 102.547 104.878 102.488 105.337 102.488C106.084 102.488 106.692 102.605 107.161 102.84C107.641 103.075 108.068 103.4 108.441 103.816L107.369 104.84C107.156 104.584 106.873 104.365 106.521 104.184C106.18 103.992 105.785 103.896 105.337 103.896C104.857 103.896 104.5 103.992 104.265 104.184C104.041 104.376 103.929 104.627 103.929 104.936C103.929 105.256 104.03 105.496 104.233 105.656C104.436 105.816 104.761 105.933 105.209 106.008L105.977 106.104C106.894 106.243 107.561 106.515 107.977 106.92C108.404 107.315 108.617 107.848 108.617 108.52C108.617 108.925 108.537 109.293 108.377 109.624C108.228 109.944 108.009 110.221 107.721 110.456C107.433 110.691 107.086 110.872 106.681 111C106.276 111.128 105.822 111.192 105.321 111.192ZM111.627 101.192C111.265 101.192 110.998 101.107 110.827 100.936C110.667 100.765 110.587 100.547 110.587 100.28V100.008C110.587 99.7413 110.667 99.5227 110.827 99.352C110.998 99.1813 111.265 99.096 111.627 99.096C111.99 99.096 112.251 99.1813 112.411 99.352C112.571 99.5227 112.651 99.7413 112.651 100.008V100.28C112.651 100.547 112.571 100.765 112.411 100.936C112.251 101.107 111.99 101.192 111.627 101.192ZM110.747 102.68H112.491V111H110.747V102.68ZM117.782 111.192C116.992 111.192 116.331 111.053 115.798 110.776C115.264 110.499 114.8 110.115 114.406 109.624L115.526 108.6C115.835 108.973 116.176 109.267 116.55 109.48C116.934 109.683 117.376 109.784 117.878 109.784C118.39 109.784 118.768 109.688 119.014 109.496C119.27 109.293 119.398 109.016 119.398 108.664C119.398 108.397 119.307 108.173 119.126 107.992C118.955 107.8 118.651 107.677 118.214 107.624L117.446 107.528C116.592 107.421 115.92 107.176 115.43 106.792C114.95 106.397 114.71 105.816 114.71 105.048C114.71 104.643 114.784 104.285 114.934 103.976C115.083 103.656 115.291 103.389 115.558 103.176C115.835 102.952 116.16 102.781 116.534 102.664C116.918 102.547 117.339 102.488 117.798 102.488C118.544 102.488 119.152 102.605 119.622 102.84C120.102 103.075 120.528 103.4 120.902 103.816L119.83 104.84C119.616 104.584 119.334 104.365 118.982 104.184C118.64 103.992 118.246 103.896 117.798 103.896C117.318 103.896 116.96 103.992 116.726 104.184C116.502 104.376 116.39 104.627 116.39 104.936C116.39 105.256 116.491 105.496 116.694 105.656C116.896 105.816 117.222 105.933 117.67 106.008L118.438 106.104C119.355 106.243 120.022 106.515 120.438 106.92C120.864 107.315 121.078 107.848 121.078 108.52C121.078 108.925 120.998 109.293 120.838 109.624C120.688 109.944 120.47 110.221 120.182 110.456C119.894 110.691 119.547 110.872 119.142 111C118.736 111.128 118.283 111.192 117.782 111.192ZM125.403 111C124.795 111 124.336 110.845 124.027 110.536C123.717 110.216 123.563 109.768 123.563 109.192V104.104H122.267V102.68H122.971C123.259 102.68 123.456 102.616 123.563 102.488C123.68 102.36 123.739 102.152 123.739 101.864V100.408H125.307V102.68H127.051V104.104H125.307V109.576H126.923V111H125.403ZM132.304 111.192C131.707 111.192 131.173 111.091 130.704 110.888C130.235 110.685 129.835 110.397 129.504 110.024C129.173 109.64 128.917 109.181 128.736 108.648C128.565 108.104 128.48 107.501 128.48 106.84C128.48 106.179 128.565 105.581 128.736 105.048C128.917 104.504 129.173 104.045 129.504 103.672C129.835 103.288 130.235 102.995 130.704 102.792C131.173 102.589 131.707 102.488 132.304 102.488C132.912 102.488 133.445 102.595 133.904 102.808C134.373 103.021 134.763 103.32 135.072 103.704C135.381 104.077 135.611 104.515 135.76 105.016C135.92 105.517 136 106.056 136 106.632V107.288H130.288V107.56C130.288 108.2 130.475 108.728 130.848 109.144C131.232 109.549 131.776 109.752 132.48 109.752C132.992 109.752 133.424 109.64 133.776 109.416C134.128 109.192 134.427 108.888 134.672 108.504L135.696 109.512C135.387 110.024 134.939 110.435 134.352 110.744C133.765 111.043 133.083 111.192 132.304 111.192ZM132.304 103.848C132.005 103.848 131.728 103.901 131.472 104.008C131.227 104.115 131.013 104.264 130.832 104.456C130.661 104.648 130.528 104.877 130.432 105.144C130.336 105.411 130.288 105.704 130.288 106.024V106.136H134.16V105.976C134.16 105.336 133.995 104.824 133.664 104.44C133.333 104.045 132.88 103.848 132.304 103.848ZM138.09 111V102.68H139.834V104.056H139.914C140.096 103.608 140.368 103.235 140.73 102.936C141.104 102.637 141.61 102.488 142.25 102.488C143.104 102.488 143.765 102.771 144.234 103.336C144.714 103.891 144.954 104.685 144.954 105.72V111H143.21V105.944C143.21 104.643 142.688 103.992 141.642 103.992C141.418 103.992 141.194 104.024 140.97 104.088C140.757 104.141 140.565 104.227 140.394 104.344C140.224 104.461 140.085 104.611 139.978 104.792C139.882 104.973 139.834 105.187 139.834 105.432V111H138.09ZM150.748 111.192C150.15 111.192 149.617 111.091 149.148 110.888C148.678 110.685 148.284 110.397 147.964 110.024C147.644 109.64 147.398 109.181 147.228 108.648C147.057 108.104 146.972 107.501 146.972 106.84C146.972 106.179 147.057 105.581 147.228 105.048C147.398 104.504 147.644 104.045 147.964 103.672C148.284 103.288 148.678 102.995 149.148 102.792C149.617 102.589 150.15 102.488 150.748 102.488C151.58 102.488 152.262 102.675 152.796 103.048C153.329 103.421 153.718 103.917 153.964 104.536L152.524 105.208C152.406 104.824 152.198 104.52 151.9 104.296C151.612 104.061 151.228 103.944 150.748 103.944C150.108 103.944 149.622 104.147 149.292 104.552C148.972 104.947 148.812 105.464 148.812 106.104V107.592C148.812 108.232 148.972 108.755 149.292 109.16C149.622 109.555 150.108 109.752 150.748 109.752C151.26 109.752 151.665 109.629 151.964 109.384C152.273 109.128 152.518 108.792 152.7 108.376L154.028 109.08C153.75 109.763 153.334 110.285 152.78 110.648C152.225 111.011 151.548 111.192 150.748 111.192ZM160.952 102.68H162.632L159.128 112.648C159.032 112.925 158.92 113.16 158.792 113.352C158.675 113.555 158.531 113.715 158.36 113.832C158.2 113.96 158.003 114.051 157.768 114.104C157.533 114.168 157.256 114.2 156.936 114.2H155.928V112.776H157.336L157.816 111.368L154.792 102.68H156.536L158.2 107.576L158.68 109.384H158.76L159.288 107.576L160.952 102.68Z" fill="black"/>
<path d="M72.5 124C72.5 122.343 73.8431 121 75.5 121H248.25C249.907 121 251.25 122.343 251.25 124C251.25 125.657 249.907 127 248.25 127H75.5C73.8431 127 72.5 125.657 72.5 124Z" fill="#E6E6E6"/>
<path d="M72.5 124C72.5 122.343 73.8431 121 75.5 121H183.5C185.157 121 186.5 122.343 186.5 124C186.5 125.657 185.157 127 183.5 127H75.5C73.8431 127 72.5 125.657 72.5 124Z" fill="#5773FF" fill-opacity="0.2"/>
<path d="M72.5 124C72.5 122.343 73.8431 121 75.5 121H137.5C139.157 121 140.5 122.343 140.5 124C140.5 125.657 139.157 127 137.5 127H75.5C73.8431 127 72.5 125.657 72.5 124Z" fill="#5773FF"/>
<path d="M24.5 154C24.5 148.477 28.9772 144 34.5 144H50.5C56.0228 144 60.5 148.477 60.5 154V170C60.5 175.523 56.0228 180 50.5 180H34.5C28.9772 180 24.5 175.523 24.5 170V154Z" fill="#5773FF" fill-opacity="0.2"/>
<path d="M47.3 162.6L48.6605 159.925L48.8209 159.649M47.3 162.6L46.7789 163.642C46.5602 164.08 46.0576 164.297 45.5846 164.173C44.2529 163.825 41.4985 163.2 38.9 163.2C35.7484 163.2 33.7368 163.643 32.8825 163.881C32.612 163.956 32.3 164.119 32.3 164.4V164.4C32.3 165 32.6833 167.588 32.9 168C33.1166 168.412 33.2333 169.049 34.1 169.8C34.9667 170.551 36.5944 171 37.1 171H38.9H41.3C42.5 171 45.1 169.2 45.5 168C45.8059 167.082 45.9074 165.409 46.1 165L47.3 162.6ZM47.3 162.6L48.5 160.2L48.8209 159.649M48.8209 159.649L49.5485 158.4L51.1899 154.557L52.7 151.2L49.009 159.406C48.9664 159.501 48.902 159.584 48.8209 159.649V159.649Z" stroke="#5773FF" stroke-width="1.67"/>
<path d="M73.876 151.832H77.828C78.5427 151.832 79.188 151.949 79.764 152.184C80.3507 152.419 80.8467 152.771 81.252 153.24C81.668 153.699 81.988 154.28 82.212 154.984C82.436 155.677 82.548 156.488 82.548 157.416C82.548 158.344 82.436 159.16 82.212 159.864C81.988 160.557 81.668 161.139 81.252 161.608C80.8467 162.067 80.3507 162.413 79.764 162.648C79.188 162.883 78.5427 163 77.828 163H73.876V151.832ZM77.828 161.4C78.66 161.4 79.332 161.139 79.844 160.616C80.356 160.093 80.612 159.325 80.612 158.312V156.52C80.612 155.507 80.356 154.739 79.844 154.216C79.332 153.693 78.66 153.432 77.828 153.432H75.684V161.4H77.828ZM85.7099 153.192C85.3472 153.192 85.0805 153.107 84.9099 152.936C84.7499 152.765 84.6699 152.547 84.6699 152.28V152.008C84.6699 151.741 84.7499 151.523 84.9099 151.352C85.0805 151.181 85.3472 151.096 85.7099 151.096C86.0725 151.096 86.3339 151.181 86.4939 151.352C86.6539 151.523 86.7339 151.741 86.7339 152.008V152.28C86.7339 152.547 86.6539 152.765 86.4939 152.936C86.3339 153.107 86.0725 153.192 85.7099 153.192ZM84.8299 154.68H86.5739V163H84.8299V154.68ZM91.8642 163.192C91.0749 163.192 90.4136 163.053 89.8802 162.776C89.3469 162.499 88.8829 162.115 88.4882 161.624L89.6082 160.6C89.9176 160.973 90.2589 161.267 90.6322 161.48C91.0162 161.683 91.4589 161.784 91.9602 161.784C92.4722 161.784 92.8509 161.688 93.0963 161.496C93.3522 161.293 93.4802 161.016 93.4802 160.664C93.4802 160.397 93.3896 160.173 93.2083 159.992C93.0376 159.8 92.7336 159.677 92.2962 159.624L91.5282 159.528C90.6749 159.421 90.0029 159.176 89.5122 158.792C89.0322 158.397 88.7922 157.816 88.7922 157.048C88.7922 156.643 88.8669 156.285 89.0162 155.976C89.1656 155.656 89.3736 155.389 89.6402 155.176C89.9176 154.952 90.2429 154.781 90.6162 154.664C91.0002 154.547 91.4216 154.488 91.8802 154.488C92.6269 154.488 93.2349 154.605 93.7042 154.84C94.1843 155.075 94.6109 155.4 94.9843 155.816L93.9123 156.84C93.6989 156.584 93.4162 156.365 93.0642 156.184C92.7229 155.992 92.3282 155.896 91.8802 155.896C91.4002 155.896 91.0429 155.992 90.8082 156.184C90.5842 156.376 90.4722 156.627 90.4722 156.936C90.4722 157.256 90.5736 157.496 90.7762 157.656C90.9789 157.816 91.3042 157.933 91.7522 158.008L92.5202 158.104C93.4376 158.243 94.1042 158.515 94.5202 158.92C94.9469 159.315 95.1603 159.848 95.1603 160.52C95.1603 160.925 95.0803 161.293 94.9202 161.624C94.7709 161.944 94.5522 162.221 94.2642 162.456C93.9763 162.691 93.6296 162.872 93.2242 163C92.8189 163.128 92.3656 163.192 91.8642 163.192ZM99.4851 163C98.8771 163 98.4185 162.845 98.1091 162.536C97.7998 162.216 97.6451 161.768 97.6451 161.192V156.104H96.3491V154.68H97.0531C97.3411 154.68 97.5385 154.616 97.6451 154.488C97.7625 154.36 97.8211 154.152 97.8211 153.864V152.408H99.3891V154.68H101.133V156.104H99.3891V161.576H101.005V163H99.4851ZM109.281 163C108.822 163 108.47 162.872 108.225 162.616C107.98 162.349 107.83 162.013 107.777 161.608H107.697C107.537 162.131 107.244 162.525 106.817 162.792C106.39 163.059 105.873 163.192 105.265 163.192C104.401 163.192 103.734 162.968 103.265 162.52C102.806 162.072 102.577 161.469 102.577 160.712C102.577 159.88 102.876 159.256 103.473 158.84C104.081 158.424 104.966 158.216 106.129 158.216H107.633V157.512C107.633 157 107.494 156.605 107.217 156.328C106.94 156.051 106.508 155.912 105.921 155.912C105.43 155.912 105.03 156.019 104.721 156.232C104.412 156.445 104.15 156.717 103.937 157.048L102.897 156.104C103.174 155.635 103.564 155.251 104.065 154.952C104.566 154.643 105.222 154.488 106.033 154.488C107.11 154.488 107.937 154.739 108.513 155.24C109.089 155.741 109.377 156.461 109.377 157.4V161.576H110.257V163H109.281ZM105.761 161.864C106.305 161.864 106.753 161.747 107.105 161.512C107.457 161.267 107.633 160.941 107.633 160.536V159.336H106.161C104.956 159.336 104.353 159.709 104.353 160.456V160.744C104.353 161.117 104.476 161.4 104.721 161.592C104.977 161.773 105.324 161.864 105.761 161.864ZM112.126 163V154.68H113.87V156.056H113.95C114.131 155.608 114.403 155.235 114.766 154.936C115.139 154.637 115.646 154.488 116.286 154.488C117.139 154.488 117.801 154.771 118.27 155.336C118.75 155.891 118.99 156.685 118.99 157.72V163H117.246V157.944C117.246 156.643 116.723 155.992 115.678 155.992C115.454 155.992 115.23 156.024 115.006 156.088C114.793 156.141 114.601 156.227 114.43 156.344C114.259 156.461 114.121 156.611 114.014 156.792C113.918 156.973 113.87 157.187 113.87 157.432V163H112.126ZM124.783 163.192C124.186 163.192 123.653 163.091 123.183 162.888C122.714 162.685 122.319 162.397 121.999 162.024C121.679 161.64 121.434 161.181 121.263 160.648C121.093 160.104 121.007 159.501 121.007 158.84C121.007 158.179 121.093 157.581 121.263 157.048C121.434 156.504 121.679 156.045 121.999 155.672C122.319 155.288 122.714 154.995 123.183 154.792C123.653 154.589 124.186 154.488 124.783 154.488C125.615 154.488 126.298 154.675 126.831 155.048C127.365 155.421 127.754 155.917 127.999 156.536L126.559 157.208C126.442 156.824 126.234 156.52 125.935 156.296C125.647 156.061 125.263 155.944 124.783 155.944C124.143 155.944 123.658 156.147 123.327 156.552C123.007 156.947 122.847 157.464 122.847 158.104V159.592C122.847 160.232 123.007 160.755 123.327 161.16C123.658 161.555 124.143 161.752 124.783 161.752C125.295 161.752 125.701 161.629 125.999 161.384C126.309 161.128 126.554 160.792 126.735 160.376L128.063 161.08C127.786 161.763 127.37 162.285 126.815 162.648C126.261 163.011 125.583 163.192 124.783 163.192ZM133.054 163.192C132.457 163.192 131.923 163.091 131.454 162.888C130.985 162.685 130.585 162.397 130.254 162.024C129.923 161.64 129.667 161.181 129.486 160.648C129.315 160.104 129.23 159.501 129.23 158.84C129.23 158.179 129.315 157.581 129.486 157.048C129.667 156.504 129.923 156.045 130.254 155.672C130.585 155.288 130.985 154.995 131.454 154.792C131.923 154.589 132.457 154.488 133.054 154.488C133.662 154.488 134.195 154.595 134.654 154.808C135.123 155.021 135.513 155.32 135.822 155.704C136.131 156.077 136.361 156.515 136.51 157.016C136.67 157.517 136.75 158.056 136.75 158.632V159.288H131.038V159.56C131.038 160.2 131.225 160.728 131.598 161.144C131.982 161.549 132.526 161.752 133.23 161.752C133.742 161.752 134.174 161.64 134.526 161.416C134.878 161.192 135.177 160.888 135.422 160.504L136.446 161.512C136.137 162.024 135.689 162.435 135.102 162.744C134.515 163.043 133.833 163.192 133.054 163.192ZM133.054 155.848C132.755 155.848 132.478 155.901 132.222 156.008C131.977 156.115 131.763 156.264 131.582 156.456C131.411 156.648 131.278 156.877 131.182 157.144C131.086 157.411 131.038 157.704 131.038 158.024V158.136H134.91V157.976C134.91 157.336 134.745 156.824 134.414 156.44C134.083 156.045 133.63 155.848 133.054 155.848Z" fill="black"/>
<path d="M72.5 176C72.5 174.343 73.8431 173 75.5 173H248.25C249.907 173 251.25 174.343 251.25 176C251.25 177.657 249.907 179 248.25 179H75.5C73.8431 179 72.5 177.657 72.5 176Z" fill="#E6E6E6"/>
<path d="M72.5 176C72.5 174.343 73.8431 173 75.5 173H193.5C195.157 173 196.5 174.343 196.5 176C196.5 177.657 195.157 179 193.5 179H75.5C73.8431 179 72.5 177.657 72.5 176Z" fill="#5773FF" fill-opacity="0.2"/>
<path d="M72.5 176C72.5 174.343 73.8431 173 75.5 173H146.5C148.157 173 149.5 174.343 149.5 176C149.5 177.657 148.157 179 146.5 179H75.5C73.8431 179 72.5 177.657 72.5 176Z" fill="#5773FF"/>
<path d="M24.5 206C24.5 200.477 28.9772 196 34.5 196H50.5C56.0228 196 60.5 200.477 60.5 206V222C60.5 227.523 56.0228 232 50.5 232H34.5C28.9772 232 24.5 227.523 24.5 222V206Z" fill="#5773FF" fill-opacity="0.2"/>
<mask id="mask0_1_14952" style="mask-type:alpha" maskUnits="userSpaceOnUse" x="30" y="202" width="25" height="24">
<rect x="30.5" y="202" width="24" height="24" fill="#D9D9D9"/>
</mask>
<g mask="url(#mask0_1_14952)">
<path d="M42.5019 217.5C40.6916 217.5 39.1555 216.87 37.8933 215.609C36.6311 214.348 36 212.812 36 211.002C36 209.192 36.6305 207.655 37.8914 206.393C39.1524 205.131 40.688 204.5 42.4981 204.5C44.3084 204.5 45.8445 205.131 47.1067 206.391C48.3689 207.652 49 209.188 49 210.998C49 212.808 48.3695 214.345 47.1085 215.607C45.8476 216.869 44.312 217.5 42.5019 217.5ZM42.5 216C43.8833 216 45.0625 215.513 46.0375 214.538C47.0125 213.563 47.5 212.383 47.5 211C47.5 209.617 47.0125 208.438 46.0375 207.463C45.0625 206.488 43.8833 206 42.5 206C41.1167 206 39.9375 206.488 38.9625 207.463C37.9875 208.438 37.5 209.617 37.5 211C37.5 212.383 37.9875 213.563 38.9625 214.538C39.9375 215.513 41.1167 216 42.5 216ZM40.5 211C40.7833 211 41.0208 210.904 41.2125 210.713C41.4042 210.521 41.5 210.283 41.5 210C41.5 209.717 41.4042 209.479 41.2125 209.288C41.0208 209.096 40.7833 209 40.5 209C40.2167 209 39.9792 209.096 39.7875 209.288C39.5958 209.479 39.5 209.717 39.5 210C39.5 210.283 39.5958 210.521 39.7875 210.713C39.9792 210.904 40.2167 211 40.5 211ZM44.5 211C44.7833 211 45.0208 210.904 45.2125 210.713C45.4042 210.521 45.5 210.283 45.5 210C45.5 209.717 45.4042 209.479 45.2125 209.288C45.0208 209.096 44.7833 209 44.5 209C44.2167 209 43.9792 209.096 43.7875 209.288C43.5958 209.479 43.5 209.717 43.5 210C43.5 210.283 43.5958 210.521 43.7875 210.713C43.9792 210.904 44.2167 211 44.5 211ZM42.5 209C42.7833 209 43.0208 208.904 43.2125 208.713C43.4042 208.521 43.5 208.283 43.5 208C43.5 207.717 43.4042 207.479 43.2125 207.288C43.0208 207.096 42.7833 207 42.5 207C42.2167 207 41.9792 207.096 41.7875 207.288C41.5958 207.479 41.5 207.717 41.5 208C41.5 208.283 41.5958 208.521 41.7875 208.713C41.9792 208.904 42.2167 209 42.5 209ZM41.75 223.442V222.442C41.75 221.815 41.5318 221.284 41.0952 220.847C40.6587 220.411 40.1269 220.192 39.5 220.192H38.6346C38.4221 220.192 38.244 220.12 38.1003 219.977C37.9565 219.833 37.8846 219.655 37.8846 219.442C37.8846 219.229 37.9565 219.051 38.1003 218.908C38.244 218.764 38.4221 218.692 38.6346 218.692H46.3654C46.5779 218.692 46.756 218.764 46.8998 218.908C47.0435 219.052 47.1154 219.23 47.1154 219.443C47.1154 219.655 47.0435 219.833 46.8998 219.977C46.756 220.12 46.5779 220.192 46.3654 220.192H45.5C44.8731 220.192 44.3413 220.411 43.9048 220.847C43.4683 221.284 43.25 221.815 43.25 222.442V223.442H41.75Z" fill="#5773FF"/>
</g>
<path d="M73.876 203.832H78.82C79.748 203.832 80.4733 204.093 80.996 204.616C81.5293 205.139 81.796 205.837 81.796 206.712C81.796 207.128 81.7373 207.485 81.62 207.784C81.5027 208.072 81.3533 208.312 81.172 208.504C80.9907 208.685 80.7827 208.824 80.548 208.92C80.3133 209.005 80.084 209.059 79.86 209.08V209.176C80.084 209.187 80.3293 209.24 80.596 209.336C80.8733 209.432 81.1293 209.587 81.364 209.8C81.5987 210.003 81.796 210.269 81.956 210.6C82.116 210.92 82.196 211.315 82.196 211.784C82.196 212.232 82.1213 212.653 81.972 213.048C81.8333 213.443 81.636 213.784 81.38 214.072C81.124 214.36 80.82 214.589 80.468 214.76C80.116 214.92 79.732 215 79.316 215H73.876V203.832ZM75.684 213.448H78.788C79.2573 213.448 79.6253 213.325 79.892 213.08C80.1587 212.835 80.292 212.483 80.292 212.024V211.48C80.292 211.021 80.1587 210.669 79.892 210.424C79.6253 210.179 79.2573 210.056 78.788 210.056H75.684V213.448ZM75.684 208.552H78.484C78.932 208.552 79.2787 208.44 79.524 208.216C79.7693 207.981 79.892 207.651 79.892 207.224V206.712C79.892 206.285 79.7693 205.96 79.524 205.736C79.2787 205.501 78.932 205.384 78.484 205.384H75.684V208.552ZM90.5509 215C90.0922 215 89.7402 214.872 89.4949 214.616C89.2495 214.349 89.1002 214.013 89.0469 213.608H88.9669C88.8069 214.131 88.5135 214.525 88.0869 214.792C87.6602 215.059 87.1429 215.192 86.5349 215.192C85.6709 215.192 85.0042 214.968 84.5349 214.52C84.0762 214.072 83.8469 213.469 83.8469 212.712C83.8469 211.88 84.1455 211.256 84.7429 210.84C85.3509 210.424 86.2362 210.216 87.3989 210.216H88.9029V209.512C88.9029 209 88.7642 208.605 88.4869 208.328C88.2095 208.051 87.7775 207.912 87.1909 207.912C86.7002 207.912 86.3002 208.019 85.9909 208.232C85.6815 208.445 85.4202 208.717 85.2069 209.048L84.1669 208.104C84.4442 207.635 84.8335 207.251 85.3349 206.952C85.8362 206.643 86.4922 206.488 87.3029 206.488C88.3802 206.488 89.2069 206.739 89.7829 207.24C90.3589 207.741 90.6469 208.461 90.6469 209.4V213.576H91.5269V215H90.5509ZM87.0309 213.864C87.5749 213.864 88.0229 213.747 88.3749 213.512C88.7269 213.267 88.9029 212.941 88.9029 212.536V211.336H87.4309C86.2255 211.336 85.6229 211.709 85.6229 212.456V212.744C85.6229 213.117 85.7455 213.4 85.9909 213.592C86.2469 213.773 86.5935 213.864 87.0309 213.864ZM95.1721 215C94.5748 215 94.1268 214.851 93.8281 214.552C93.5401 214.243 93.3961 213.816 93.3961 213.272V203.16H95.1401V213.576H96.2921V215H95.1721ZM99.8009 215C99.2035 215 98.7555 214.851 98.4569 214.552C98.1689 214.243 98.0249 213.816 98.0249 213.272V203.16H99.7689V213.576H100.921V215H99.8009ZM106.817 215V203.832H113.793V205.432H108.625V208.536H113.217V210.136H108.625V215H106.817ZM117.75 215C117.152 215 116.704 214.851 116.406 214.552C116.118 214.243 115.974 213.816 115.974 213.272V203.16H117.718V213.576H118.87V215H117.75ZM121.576 205.192C121.213 205.192 120.947 205.107 120.776 204.936C120.616 204.765 120.536 204.547 120.536 204.28V204.008C120.536 203.741 120.616 203.523 120.776 203.352C120.947 203.181 121.213 203.096 121.576 203.096C121.939 203.096 122.2 203.181 122.36 203.352C122.52 203.523 122.6 203.741 122.6 204.008V204.28C122.6 204.547 122.52 204.765 122.36 204.936C122.2 205.107 121.939 205.192 121.576 205.192ZM120.696 206.68H122.44V215H120.696V206.68ZM132.386 215.784C132.386 216.648 132.056 217.299 131.394 217.736C130.733 218.173 129.656 218.392 128.162 218.392C127.48 218.392 126.898 218.344 126.418 218.248C125.949 218.163 125.56 218.035 125.25 217.864C124.952 217.693 124.733 217.485 124.594 217.24C124.456 216.995 124.386 216.712 124.386 216.392C124.386 215.933 124.509 215.576 124.754 215.32C125.01 215.064 125.362 214.888 125.81 214.792V214.616C125.181 214.413 124.866 213.987 124.866 213.336C124.866 212.909 125.01 212.584 125.298 212.36C125.586 212.125 125.933 211.96 126.338 211.864V211.8C125.848 211.565 125.469 211.24 125.202 210.824C124.946 210.397 124.818 209.901 124.818 209.336C124.818 208.483 125.101 207.795 125.666 207.272C126.242 206.749 127.064 206.488 128.13 206.488C128.717 206.488 129.218 206.573 129.634 206.744V206.52C129.634 206.147 129.72 205.859 129.89 205.656C130.072 205.443 130.349 205.336 130.722 205.336H132.002V206.744H130.306V207.08C130.68 207.325 130.968 207.645 131.17 208.04C131.373 208.424 131.474 208.856 131.474 209.336C131.474 210.179 131.186 210.861 130.61 211.384C130.034 211.896 129.213 212.152 128.146 212.152C127.741 212.152 127.378 212.109 127.058 212.024C126.845 212.099 126.658 212.205 126.498 212.344C126.338 212.472 126.258 212.643 126.258 212.856C126.258 213.08 126.36 213.24 126.562 213.336C126.765 213.432 127.053 213.48 127.426 213.48H129.474C130.498 213.48 131.24 213.688 131.698 214.104C132.157 214.509 132.386 215.069 132.386 215.784ZM130.754 215.976C130.754 215.688 130.642 215.459 130.418 215.288C130.205 215.117 129.81 215.032 129.234 215.032H126.418C126.034 215.256 125.842 215.576 125.842 215.992C125.842 216.333 125.976 216.605 126.242 216.808C126.52 217.021 126.984 217.128 127.634 217.128H128.722C130.077 217.128 130.754 216.744 130.754 215.976ZM128.146 210.888C128.658 210.888 129.053 210.776 129.33 210.552C129.618 210.317 129.762 209.96 129.762 209.48V209.16C129.762 208.68 129.618 208.328 129.33 208.104C129.053 207.869 128.658 207.752 128.146 207.752C127.634 207.752 127.234 207.869 126.946 208.104C126.669 208.328 126.53 208.68 126.53 209.16V209.48C126.53 209.96 126.669 210.317 126.946 210.552C127.234 210.776 127.634 210.888 128.146 210.888ZM133.844 203.16H135.588V208.056H135.668C135.85 207.608 136.122 207.235 136.484 206.936C136.858 206.637 137.364 206.488 138.004 206.488C138.858 206.488 139.519 206.771 139.988 207.336C140.468 207.891 140.708 208.685 140.708 209.72V215H138.964V209.928C138.964 208.637 138.442 207.992 137.396 207.992C137.172 207.992 136.948 208.024 136.724 208.088C136.511 208.141 136.319 208.227 136.148 208.344C135.978 208.461 135.839 208.611 135.732 208.792C135.636 208.973 135.588 209.181 135.588 209.416V215H133.844V203.16ZM145.589 215C144.981 215 144.523 214.845 144.213 214.536C143.904 214.216 143.749 213.768 143.749 213.192V208.104H142.453V206.68H143.157C143.445 206.68 143.643 206.616 143.749 206.488C143.867 206.36 143.925 206.152 143.925 205.864V204.408H145.493V206.68H147.237V208.104H145.493V213.576H147.109V215H145.589Z" fill="black"/>
<path d="M72.5 228C72.5 226.343 73.8431 225 75.5 225H248.25C249.907 225 251.25 226.343 251.25 228C251.25 229.657 249.907 231 248.25 231H75.5C73.8431 231 72.5 229.657 72.5 228Z" fill="#E6E6E6"/>
<path d="M72.5 228C72.5 226.343 73.8431 225 75.5 225H187.5C189.157 225 190.5 226.343 190.5 228C190.5 229.657 189.157 231 187.5 231H75.5C73.8431 231 72.5 229.657 72.5 228Z" fill="#5773FF" fill-opacity="0.2"/>
<path d="M72.5 228C72.5 226.343 73.8431 225 75.5 225H145.5C147.157 225 148.5 226.343 148.5 228C148.5 229.657 147.157 231 145.5 231H75.5C73.8431 231 72.5 229.657 72.5 228Z" fill="#5773FF"/>
</svg>
