<svg width="567" height="439" viewBox="0 0 567 439" fill="none" xmlns="http://www.w3.org/2000/svg">
<path d="M0.5 16C0.5 7.16344 7.66344 0 16.5 0H550.5C559.337 0 566.5 7.16344 566.5 16V423C566.5 431.837 559.337 439 550.5 439H16.5C7.66346 439 0.5 431.837 0.5 423V16Z" fill="#F7F7F7"/>
<path opacity="0.7" d="M17.704 20.228H22.03C22.842 20.228 23.4767 20.4567 23.934 20.914C24.4007 21.3713 24.634 21.9827 24.634 22.748C24.634 23.112 24.5827 23.4247 24.48 23.686C24.3773 23.938 24.2467 24.148 24.088 24.316C23.9293 24.4747 23.7473 24.596 23.542 24.68C23.3367 24.7547 23.136 24.8013 22.94 24.82V24.904C23.136 24.9133 23.3507 24.96 23.584 25.044C23.8267 25.128 24.0507 25.2633 24.256 25.45C24.4613 25.6273 24.634 25.8607 24.774 26.15C24.914 26.43 24.984 26.7753 24.984 27.186C24.984 27.578 24.9187 27.9467 24.788 28.292C24.6667 28.6373 24.494 28.936 24.27 29.188C24.046 29.44 23.78 29.6407 23.472 29.79C23.164 29.93 22.828 30 22.464 30H17.704V20.228ZM19.286 28.642H22.002C22.4127 28.642 22.7347 28.5347 22.968 28.32C23.2013 28.1053 23.318 27.7973 23.318 27.396V26.92C23.318 26.5187 23.2013 26.2107 22.968 25.996C22.7347 25.7813 22.4127 25.674 22.002 25.674H19.286V28.642ZM19.286 24.358H21.736C22.128 24.358 22.4313 24.26 22.646 24.064C22.8607 23.8587 22.968 23.5693 22.968 23.196V22.748C22.968 22.3747 22.8607 22.09 22.646 21.894C22.4313 21.6887 22.128 21.586 21.736 21.586H19.286V24.358ZM26.9805 30V22.72H28.5065V24.12H28.5765C28.6792 23.7467 28.8938 23.42 29.2205 23.14C29.5472 22.86 29.9998 22.72 30.5785 22.72H30.9845V24.19H30.3825C29.7758 24.19 29.3092 24.288 28.9825 24.484C28.6652 24.68 28.5065 24.9693 28.5065 25.352V30H26.9805ZM35.2875 30.168C34.7649 30.168 34.2982 30.0793 33.8875 29.902C33.4769 29.7247 33.1269 29.4727 32.8375 29.146C32.5482 28.81 32.3242 28.4087 32.1655 27.942C32.0162 27.466 31.9415 26.9387 31.9415 26.36C31.9415 25.7813 32.0162 25.2587 32.1655 24.792C32.3242 24.316 32.5482 23.9147 32.8375 23.588C33.1269 23.252 33.4769 22.9953 33.8875 22.818C34.2982 22.6407 34.7649 22.552 35.2875 22.552C35.8195 22.552 36.2862 22.6453 36.6875 22.832C37.0982 23.0187 37.4389 23.28 37.7095 23.616C37.9802 23.9427 38.1809 24.3253 38.3115 24.764C38.4515 25.2027 38.5215 25.674 38.5215 26.178V26.752H33.5235V26.99C33.5235 27.55 33.6869 28.012 34.0135 28.376C34.3495 28.7307 34.8255 28.908 35.4415 28.908C35.8895 28.908 36.2675 28.81 36.5755 28.614C36.8835 28.418 37.1449 28.152 37.3595 27.816L38.2555 28.698C37.9849 29.146 37.5929 29.5053 37.0795 29.776C36.5662 30.0373 35.9689 30.168 35.2875 30.168ZM35.2875 23.742C35.0262 23.742 34.7835 23.7887 34.5595 23.882C34.3449 23.9753 34.1582 24.106 33.9995 24.274C33.8502 24.442 33.7335 24.6427 33.6495 24.876C33.5655 25.1093 33.5235 25.366 33.5235 25.646V25.744H36.9115V25.604C36.9115 25.044 36.7669 24.596 36.4775 24.26C36.1882 23.9147 35.7915 23.742 35.2875 23.742ZM45.7048 30C45.3035 30 44.9955 29.888 44.7808 29.664C44.5662 29.4307 44.4355 29.1367 44.3888 28.782H44.3188C44.1788 29.2393 43.9222 29.5847 43.5488 29.818C43.1755 30.0513 42.7228 30.168 42.1908 30.168C41.4348 30.168 40.8515 29.972 40.4408 29.58C40.0395 29.188 39.8388 28.6607 39.8388 27.998C39.8388 27.27 40.1002 26.724 40.6228 26.36C41.1548 25.996 41.9295 25.814 42.9468 25.814H44.2628V25.198C44.2628 24.75 44.1415 24.4047 43.8988 24.162C43.6562 23.9193 43.2782 23.798 42.7648 23.798C42.3355 23.798 41.9855 23.8913 41.7148 24.078C41.4442 24.2647 41.2155 24.5027 41.0288 24.792L40.1188 23.966C40.3615 23.5553 40.7022 23.2193 41.1408 22.958C41.5795 22.6873 42.1535 22.552 42.8628 22.552C43.8055 22.552 44.5288 22.7713 45.0328 23.21C45.5368 23.6487 45.7888 24.2787 45.7888 25.1V28.754H46.5588V30H45.7048ZM42.6248 29.006C43.1008 29.006 43.4928 28.9033 43.8008 28.698C44.1088 28.4833 44.2628 28.1987 44.2628 27.844V26.794H42.9748C41.9202 26.794 41.3928 27.1207 41.3928 27.774V28.026C41.3928 28.3527 41.5002 28.6 41.7148 28.768C41.9388 28.9267 42.2422 29.006 42.6248 29.006ZM48.2144 19.64H49.7404V25.996H49.8104L50.8184 24.694L52.5684 22.72H54.3464L51.7984 25.534L54.6544 30H52.8344L50.7484 26.528L49.7404 27.62V30H48.2144V19.64ZM66.0233 23.868C66.0233 24.5773 65.9159 25.2447 65.7013 25.87C65.4866 26.4953 65.2113 27.0693 64.8753 27.592C64.5393 28.1147 64.1613 28.5813 63.7413 28.992C63.3306 29.4027 62.9246 29.7387 62.5233 30H60.4233C60.9739 29.5987 61.4686 29.2113 61.9073 28.838C62.3459 28.4647 62.7286 28.082 63.0553 27.69C63.3819 27.298 63.6526 26.8827 63.8673 26.444C64.0913 26.0053 64.2639 25.5247 64.3853 25.002L64.2873 24.974C64.1846 25.17 64.0633 25.3567 63.9233 25.534C63.7926 25.702 63.6339 25.8513 63.4473 25.982C63.2699 26.1127 63.0646 26.2153 62.8313 26.29C62.5979 26.3647 62.3273 26.402 62.0193 26.402C61.6086 26.402 61.2259 26.332 60.8713 26.192C60.5259 26.052 60.2226 25.8513 59.9613 25.59C59.7093 25.3193 59.5086 25.002 59.3593 24.638C59.2193 24.2647 59.1493 23.8447 59.1493 23.378C59.1493 22.8927 59.2286 22.4447 59.3873 22.034C59.5553 21.6233 59.7886 21.2733 60.0873 20.984C60.3859 20.6947 60.7453 20.4707 61.1653 20.312C61.5853 20.144 62.0566 20.06 62.5793 20.06C63.1206 20.06 63.6013 20.1487 64.0213 20.326C64.4506 20.5033 64.8099 20.76 65.0993 21.096C65.3979 21.4227 65.6266 21.8193 65.7853 22.286C65.9439 22.7527 66.0233 23.28 66.0233 23.868ZM62.5793 25.128C63.1486 25.128 63.5919 24.9787 63.9093 24.68C64.2266 24.372 64.3853 23.924 64.3853 23.336V23.14C64.3853 22.552 64.2266 22.1087 63.9093 21.81C63.5919 21.502 63.1486 21.348 62.5793 21.348C62.0099 21.348 61.5666 21.502 61.2493 21.81C60.9319 22.1087 60.7733 22.552 60.7733 23.14V23.336C60.7733 23.924 60.9319 24.372 61.2493 24.68C61.5666 24.9787 62.0099 25.128 62.5793 25.128ZM71.1618 30.168C70.5551 30.168 70.0278 30.056 69.5798 29.832C69.1318 29.5987 68.7631 29.2673 68.4738 28.838C68.1845 28.4087 67.9698 27.8813 67.8298 27.256C67.6898 26.6307 67.6198 25.9167 67.6198 25.114C67.6198 24.3207 67.6898 23.6113 67.8298 22.986C67.9698 22.3513 68.1845 21.8193 68.4738 21.39C68.7631 20.9607 69.1318 20.634 69.5798 20.41C70.0278 20.1767 70.5551 20.06 71.1618 20.06C72.3751 20.06 73.2665 20.5033 73.8358 21.39C74.4145 22.2767 74.7038 23.518 74.7038 25.114C74.7038 26.71 74.4145 27.9513 73.8358 28.838C73.2665 29.7247 72.3751 30.168 71.1618 30.168ZM71.1618 28.824C71.4978 28.824 71.7825 28.7587 72.0158 28.628C72.2585 28.488 72.4545 28.292 72.6038 28.04C72.7531 27.788 72.8605 27.4893 72.9258 27.144C72.9911 26.7893 73.0238 26.3973 73.0238 25.968V24.26C73.0238 23.8307 72.9911 23.4433 72.9258 23.098C72.8605 22.7433 72.7531 22.44 72.6038 22.188C72.4545 21.936 72.2585 21.7447 72.0158 21.614C71.7825 21.474 71.4978 21.404 71.1618 21.404C70.8258 21.404 70.5365 21.474 70.2938 21.614C70.0605 21.7447 69.8691 21.936 69.7198 22.188C69.5705 22.44 69.4631 22.7433 69.3978 23.098C69.3325 23.4433 69.2998 23.8307 69.2998 24.26V25.968C69.2998 26.3973 69.3325 26.7893 69.3978 27.144C69.4631 27.4893 69.5705 27.788 69.7198 28.04C69.8691 28.292 70.0605 28.488 70.2938 28.628C70.5365 28.7587 70.8258 28.824 71.1618 28.824Z" fill="black"/>
<path d="M91.5 25H549.637" stroke="black" stroke-width="0.5" stroke-linecap="round" stroke-dasharray="0.1 4"/>
<path opacity="0.7" d="M17.704 214.728H22.03C22.842 214.728 23.4767 214.957 23.934 215.414C24.4007 215.871 24.634 216.483 24.634 217.248C24.634 217.612 24.5827 217.925 24.48 218.186C24.3773 218.438 24.2467 218.648 24.088 218.816C23.9293 218.975 23.7473 219.096 23.542 219.18C23.3367 219.255 23.136 219.301 22.94 219.32V219.404C23.136 219.413 23.3507 219.46 23.584 219.544C23.8267 219.628 24.0507 219.763 24.256 219.95C24.4613 220.127 24.634 220.361 24.774 220.65C24.914 220.93 24.984 221.275 24.984 221.686C24.984 222.078 24.9187 222.447 24.788 222.792C24.6667 223.137 24.494 223.436 24.27 223.688C24.046 223.94 23.78 224.141 23.472 224.29C23.164 224.43 22.828 224.5 22.464 224.5H17.704V214.728ZM19.286 223.142H22.002C22.4127 223.142 22.7347 223.035 22.968 222.82C23.2013 222.605 23.318 222.297 23.318 221.896V221.42C23.318 221.019 23.2013 220.711 22.968 220.496C22.7347 220.281 22.4127 220.174 22.002 220.174H19.286V223.142ZM19.286 218.858H21.736C22.128 218.858 22.4313 218.76 22.646 218.564C22.8607 218.359 22.968 218.069 22.968 217.696V217.248C22.968 216.875 22.8607 216.59 22.646 216.394C22.4313 216.189 22.128 216.086 21.736 216.086H19.286V218.858ZM26.9805 224.5V217.22H28.5065V218.62H28.5765C28.6792 218.247 28.8938 217.92 29.2205 217.64C29.5472 217.36 29.9998 217.22 30.5785 217.22H30.9845V218.69H30.3825C29.7758 218.69 29.3092 218.788 28.9825 218.984C28.6652 219.18 28.5065 219.469 28.5065 219.852V224.5H26.9805ZM35.2875 224.668C34.7649 224.668 34.2982 224.579 33.8875 224.402C33.4769 224.225 33.1269 223.973 32.8375 223.646C32.5482 223.31 32.3242 222.909 32.1655 222.442C32.0162 221.966 31.9415 221.439 31.9415 220.86C31.9415 220.281 32.0162 219.759 32.1655 219.292C32.3242 218.816 32.5482 218.415 32.8375 218.088C33.1269 217.752 33.4769 217.495 33.8875 217.318C34.2982 217.141 34.7649 217.052 35.2875 217.052C35.8195 217.052 36.2862 217.145 36.6875 217.332C37.0982 217.519 37.4389 217.78 37.7095 218.116C37.9802 218.443 38.1809 218.825 38.3115 219.264C38.4515 219.703 38.5215 220.174 38.5215 220.678V221.252H33.5235V221.49C33.5235 222.05 33.6869 222.512 34.0135 222.876C34.3495 223.231 34.8255 223.408 35.4415 223.408C35.8895 223.408 36.2675 223.31 36.5755 223.114C36.8835 222.918 37.1449 222.652 37.3595 222.316L38.2555 223.198C37.9849 223.646 37.5929 224.005 37.0795 224.276C36.5662 224.537 35.9689 224.668 35.2875 224.668ZM35.2875 218.242C35.0262 218.242 34.7835 218.289 34.5595 218.382C34.3449 218.475 34.1582 218.606 33.9995 218.774C33.8502 218.942 33.7335 219.143 33.6495 219.376C33.5655 219.609 33.5235 219.866 33.5235 220.146V220.244H36.9115V220.104C36.9115 219.544 36.7669 219.096 36.4775 218.76C36.1882 218.415 35.7915 218.242 35.2875 218.242ZM45.7048 224.5C45.3035 224.5 44.9955 224.388 44.7808 224.164C44.5662 223.931 44.4355 223.637 44.3888 223.282H44.3188C44.1788 223.739 43.9222 224.085 43.5488 224.318C43.1755 224.551 42.7228 224.668 42.1908 224.668C41.4348 224.668 40.8515 224.472 40.4408 224.08C40.0395 223.688 39.8388 223.161 39.8388 222.498C39.8388 221.77 40.1002 221.224 40.6228 220.86C41.1548 220.496 41.9295 220.314 42.9468 220.314H44.2628V219.698C44.2628 219.25 44.1415 218.905 43.8988 218.662C43.6562 218.419 43.2782 218.298 42.7648 218.298C42.3355 218.298 41.9855 218.391 41.7148 218.578C41.4442 218.765 41.2155 219.003 41.0288 219.292L40.1188 218.466C40.3615 218.055 40.7022 217.719 41.1408 217.458C41.5795 217.187 42.1535 217.052 42.8628 217.052C43.8055 217.052 44.5288 217.271 45.0328 217.71C45.5368 218.149 45.7888 218.779 45.7888 219.6V223.254H46.5588V224.5H45.7048ZM42.6248 223.506C43.1008 223.506 43.4928 223.403 43.8008 223.198C44.1088 222.983 44.2628 222.699 44.2628 222.344V221.294H42.9748C41.9202 221.294 41.3928 221.621 41.3928 222.274V222.526C41.3928 222.853 41.5002 223.1 41.7148 223.268C41.9388 223.427 42.2422 223.506 42.6248 223.506ZM48.2144 214.14H49.7404V220.496H49.8104L50.8184 219.194L52.5684 217.22H54.3464L51.7984 220.034L54.6544 224.5H52.8344L50.7484 221.028L49.7404 222.12V224.5H48.2144V214.14ZM62.6073 224.668C62.0379 224.668 61.5339 224.598 61.0953 224.458C60.6659 224.309 60.3019 224.108 60.0033 223.856C59.7139 223.604 59.4899 223.305 59.3313 222.96C59.1819 222.615 59.1073 222.241 59.1073 221.84C59.1073 221.187 59.2846 220.664 59.6393 220.272C60.0033 219.871 60.4793 219.591 61.0673 219.432V219.32C60.5633 219.143 60.1573 218.863 59.8493 218.48C59.5506 218.097 59.4013 217.626 59.4013 217.066C59.4013 216.693 59.4713 216.352 59.6113 216.044C59.7606 215.736 59.9706 215.475 60.2413 215.26C60.5119 215.036 60.8479 214.863 61.2493 214.742C61.6506 214.621 62.1033 214.56 62.6073 214.56C63.1113 214.56 63.5639 214.621 63.9653 214.742C64.3666 214.863 64.7026 215.036 64.9733 215.26C65.2439 215.475 65.4493 215.736 65.5893 216.044C65.7386 216.352 65.8133 216.693 65.8133 217.066C65.8133 217.626 65.6593 218.097 65.3513 218.48C65.0526 218.863 64.6513 219.143 64.1473 219.32V219.432C64.7353 219.591 65.2066 219.871 65.5613 220.272C65.9253 220.664 66.1073 221.187 66.1073 221.84C66.1073 222.241 66.0279 222.615 65.8693 222.96C65.7199 223.305 65.4959 223.604 65.1973 223.856C64.9079 224.108 64.5439 224.309 64.1053 224.458C63.6759 224.598 63.1766 224.668 62.6073 224.668ZM62.6073 223.394C63.1953 223.394 63.6479 223.259 63.9653 222.988C64.2919 222.717 64.4553 222.339 64.4553 221.854V221.574C64.4553 221.089 64.2919 220.711 63.9653 220.44C63.6479 220.169 63.1953 220.034 62.6073 220.034C62.0193 220.034 61.5619 220.169 61.2353 220.44C60.9179 220.711 60.7593 221.089 60.7593 221.574V221.854C60.7593 222.339 60.9179 222.717 61.2353 222.988C61.5619 223.259 62.0193 223.394 62.6073 223.394ZM62.6073 218.816C63.1486 218.816 63.5593 218.699 63.8393 218.466C64.1286 218.233 64.2733 217.892 64.2733 217.444V217.206C64.2733 216.758 64.1286 216.417 63.8393 216.184C63.5593 215.951 63.1486 215.834 62.6073 215.834C62.0659 215.834 61.6506 215.951 61.3613 216.184C61.0813 216.417 60.9413 216.758 60.9413 217.206V217.444C60.9413 217.892 61.0813 218.233 61.3613 218.466C61.6506 218.699 62.0659 218.816 62.6073 218.816ZM71.1618 224.668C70.5551 224.668 70.0278 224.556 69.5798 224.332C69.1318 224.099 68.7631 223.767 68.4738 223.338C68.1845 222.909 67.9698 222.381 67.8298 221.756C67.6898 221.131 67.6198 220.417 67.6198 219.614C67.6198 218.821 67.6898 218.111 67.8298 217.486C67.9698 216.851 68.1845 216.319 68.4738 215.89C68.7631 215.461 69.1318 215.134 69.5798 214.91C70.0278 214.677 70.5551 214.56 71.1618 214.56C72.3751 214.56 73.2665 215.003 73.8358 215.89C74.4145 216.777 74.7038 218.018 74.7038 219.614C74.7038 221.21 74.4145 222.451 73.8358 223.338C73.2665 224.225 72.3751 224.668 71.1618 224.668ZM71.1618 223.324C71.4978 223.324 71.7825 223.259 72.0158 223.128C72.2585 222.988 72.4545 222.792 72.6038 222.54C72.7531 222.288 72.8605 221.989 72.9258 221.644C72.9911 221.289 73.0238 220.897 73.0238 220.468V218.76C73.0238 218.331 72.9911 217.943 72.9258 217.598C72.8605 217.243 72.7531 216.94 72.6038 216.688C72.4545 216.436 72.2585 216.245 72.0158 216.114C71.7825 215.974 71.4978 215.904 71.1618 215.904C70.8258 215.904 70.5365 215.974 70.2938 216.114C70.0605 216.245 69.8691 216.436 69.7198 216.688C69.5705 216.94 69.4631 217.243 69.3978 217.598C69.3325 217.943 69.2998 218.331 69.2998 218.76V220.468C69.2998 220.897 69.3325 221.289 69.3978 221.644C69.4631 221.989 69.5705 222.288 69.7198 222.54C69.8691 222.792 70.0605 222.988 70.2938 223.128C70.5365 223.259 70.8258 223.324 71.1618 223.324Z" fill="black"/>
<path d="M91.5 219.5H549.637" stroke="black" stroke-width="0.5" stroke-linecap="round" stroke-dasharray="0.1 4"/>
<path opacity="0.7" d="M17.704 409.228H22.03C22.842 409.228 23.4767 409.457 23.934 409.914C24.4007 410.371 24.634 410.983 24.634 411.748C24.634 412.112 24.5827 412.425 24.48 412.686C24.3773 412.938 24.2467 413.148 24.088 413.316C23.9293 413.475 23.7473 413.596 23.542 413.68C23.3367 413.755 23.136 413.801 22.94 413.82V413.904C23.136 413.913 23.3507 413.96 23.584 414.044C23.8267 414.128 24.0507 414.263 24.256 414.45C24.4613 414.627 24.634 414.861 24.774 415.15C24.914 415.43 24.984 415.775 24.984 416.186C24.984 416.578 24.9187 416.947 24.788 417.292C24.6667 417.637 24.494 417.936 24.27 418.188C24.046 418.44 23.78 418.641 23.472 418.79C23.164 418.93 22.828 419 22.464 419H17.704V409.228ZM19.286 417.642H22.002C22.4127 417.642 22.7347 417.535 22.968 417.32C23.2013 417.105 23.318 416.797 23.318 416.396V415.92C23.318 415.519 23.2013 415.211 22.968 414.996C22.7347 414.781 22.4127 414.674 22.002 414.674H19.286V417.642ZM19.286 413.358H21.736C22.128 413.358 22.4313 413.26 22.646 413.064C22.8607 412.859 22.968 412.569 22.968 412.196V411.748C22.968 411.375 22.8607 411.09 22.646 410.894C22.4313 410.689 22.128 410.586 21.736 410.586H19.286V413.358ZM26.9805 419V411.72H28.5065V413.12H28.5765C28.6792 412.747 28.8938 412.42 29.2205 412.14C29.5472 411.86 29.9998 411.72 30.5785 411.72H30.9845V413.19H30.3825C29.7758 413.19 29.3092 413.288 28.9825 413.484C28.6652 413.68 28.5065 413.969 28.5065 414.352V419H26.9805ZM35.2875 419.168C34.7649 419.168 34.2982 419.079 33.8875 418.902C33.4769 418.725 33.1269 418.473 32.8375 418.146C32.5482 417.81 32.3242 417.409 32.1655 416.942C32.0162 416.466 31.9415 415.939 31.9415 415.36C31.9415 414.781 32.0162 414.259 32.1655 413.792C32.3242 413.316 32.5482 412.915 32.8375 412.588C33.1269 412.252 33.4769 411.995 33.8875 411.818C34.2982 411.641 34.7649 411.552 35.2875 411.552C35.8195 411.552 36.2862 411.645 36.6875 411.832C37.0982 412.019 37.4389 412.28 37.7095 412.616C37.9802 412.943 38.1809 413.325 38.3115 413.764C38.4515 414.203 38.5215 414.674 38.5215 415.178V415.752H33.5235V415.99C33.5235 416.55 33.6869 417.012 34.0135 417.376C34.3495 417.731 34.8255 417.908 35.4415 417.908C35.8895 417.908 36.2675 417.81 36.5755 417.614C36.8835 417.418 37.1449 417.152 37.3595 416.816L38.2555 417.698C37.9849 418.146 37.5929 418.505 37.0795 418.776C36.5662 419.037 35.9689 419.168 35.2875 419.168ZM35.2875 412.742C35.0262 412.742 34.7835 412.789 34.5595 412.882C34.3449 412.975 34.1582 413.106 33.9995 413.274C33.8502 413.442 33.7335 413.643 33.6495 413.876C33.5655 414.109 33.5235 414.366 33.5235 414.646V414.744H36.9115V414.604C36.9115 414.044 36.7669 413.596 36.4775 413.26C36.1882 412.915 35.7915 412.742 35.2875 412.742ZM45.7048 419C45.3035 419 44.9955 418.888 44.7808 418.664C44.5662 418.431 44.4355 418.137 44.3888 417.782H44.3188C44.1788 418.239 43.9222 418.585 43.5488 418.818C43.1755 419.051 42.7228 419.168 42.1908 419.168C41.4348 419.168 40.8515 418.972 40.4408 418.58C40.0395 418.188 39.8388 417.661 39.8388 416.998C39.8388 416.27 40.1002 415.724 40.6228 415.36C41.1548 414.996 41.9295 414.814 42.9468 414.814H44.2628V414.198C44.2628 413.75 44.1415 413.405 43.8988 413.162C43.6562 412.919 43.2782 412.798 42.7648 412.798C42.3355 412.798 41.9855 412.891 41.7148 413.078C41.4442 413.265 41.2155 413.503 41.0288 413.792L40.1188 412.966C40.3615 412.555 40.7022 412.219 41.1408 411.958C41.5795 411.687 42.1535 411.552 42.8628 411.552C43.8055 411.552 44.5288 411.771 45.0328 412.21C45.5368 412.649 45.7888 413.279 45.7888 414.1V417.754H46.5588V419H45.7048ZM42.6248 418.006C43.1008 418.006 43.4928 417.903 43.8008 417.698C44.1088 417.483 44.2628 417.199 44.2628 416.844V415.794H42.9748C41.9202 415.794 41.3928 416.121 41.3928 416.774V417.026C41.3928 417.353 41.5002 417.6 41.7148 417.768C41.9388 417.927 42.2422 418.006 42.6248 418.006ZM48.2144 408.64H49.7404V414.996H49.8104L50.8184 413.694L52.5684 411.72H54.3464L51.7984 414.534L54.6544 419H52.8344L50.7484 415.528L49.7404 416.62V419H48.2144V408.64ZM60.8013 419L64.3433 410.53H60.6473V412.336H59.2893V409.228H65.9113V410.6L62.4673 419H60.8013ZM74.0738 410.6H69.7338L69.4818 414.058H69.5798C69.6918 413.862 69.8085 413.689 69.9298 413.54C70.0511 413.381 70.1911 413.246 70.3498 413.134C70.5085 413.022 70.6905 412.938 70.8958 412.882C71.1011 412.817 71.3438 412.784 71.6238 412.784C72.0438 412.784 72.4311 412.854 72.7858 412.994C73.1498 413.134 73.4625 413.335 73.7238 413.596C73.9945 413.857 74.2045 414.179 74.3538 414.562C74.5031 414.935 74.5778 415.36 74.5778 415.836C74.5778 416.321 74.4985 416.769 74.3398 417.18C74.1905 417.591 73.9665 417.945 73.6678 418.244C73.3691 418.533 73.0005 418.762 72.5618 418.93C72.1325 419.089 71.6425 419.168 71.0918 419.168C70.6531 419.168 70.2658 419.117 69.9298 419.014C69.5938 418.921 69.2951 418.795 69.0338 418.636C68.7818 418.468 68.5578 418.281 68.3618 418.076C68.1751 417.861 68.0071 417.642 67.8578 417.418L69.0058 416.508C69.1271 416.704 69.2531 416.881 69.3838 417.04C69.5145 417.199 69.6638 417.339 69.8318 417.46C69.9998 417.581 70.1865 417.675 70.3918 417.74C70.6065 417.805 70.8491 417.838 71.1198 417.838C71.6985 417.838 72.1418 417.679 72.4498 417.362C72.7671 417.045 72.9258 416.606 72.9258 416.046V415.878C72.9258 415.318 72.7671 414.879 72.4498 414.562C72.1418 414.245 71.6985 414.086 71.1198 414.086C70.6998 414.086 70.3638 414.165 70.1118 414.324C69.8598 414.483 69.6451 414.66 69.4678 414.856L68.1658 414.674L68.5298 409.228H74.0738V410.6Z" fill="black"/>
<path d="M91.5 414H549.637" stroke="black" stroke-width="0.5" stroke-linecap="round" stroke-dasharray="0.1 4"/>
<path d="M82.5 84C392.284 84 173.364 306 549.5 306" stroke="#5773FF" stroke-width="4" stroke-linecap="round"/>
<path d="M126.5 106L132.5 100L138.5 106H126.5Z" fill="black"/>
<g clip-path="url(#clip0_1_14950)">
<path d="M119.884 133.824L118.652 131.456H118.604V140H116.876V128.832H118.892L122.54 135.008L123.772 137.376H123.82V128.832H125.548V140H123.532L119.884 133.824ZM131.594 140.192C131.018 140.192 130.49 140.091 130.01 139.888C129.541 139.685 129.141 139.397 128.81 139.024C128.479 138.64 128.223 138.181 128.042 137.648C127.861 137.104 127.77 136.501 127.77 135.84C127.77 135.179 127.861 134.581 128.042 134.048C128.223 133.504 128.479 133.045 128.81 132.672C129.141 132.288 129.541 131.995 130.01 131.792C130.49 131.589 131.018 131.488 131.594 131.488C132.17 131.488 132.693 131.589 133.162 131.792C133.642 131.995 134.047 132.288 134.378 132.672C134.709 133.045 134.965 133.504 135.146 134.048C135.327 134.581 135.418 135.179 135.418 135.84C135.418 136.501 135.327 137.104 135.146 137.648C134.965 138.181 134.709 138.64 134.378 139.024C134.047 139.397 133.642 139.685 133.162 139.888C132.693 140.091 132.17 140.192 131.594 140.192ZM131.594 138.752C132.191 138.752 132.671 138.571 133.034 138.208C133.397 137.835 133.578 137.28 133.578 136.544V135.136C133.578 134.4 133.397 133.851 133.034 133.488C132.671 133.115 132.191 132.928 131.594 132.928C130.997 132.928 130.517 133.115 130.154 133.488C129.791 133.851 129.61 134.4 129.61 135.136V136.544C129.61 137.28 129.791 137.835 130.154 138.208C130.517 138.571 130.997 138.752 131.594 138.752ZM136.58 131.68H138.276L139.124 135.168L139.876 138.32H139.924L140.788 135.168L141.796 131.68H143.364L144.388 135.168L145.268 138.32H145.316L146.052 135.168L146.916 131.68H148.532L146.292 140H144.324L143.236 136.208L142.564 133.872H142.532L141.876 136.208L140.772 140H138.852L136.58 131.68Z" fill="white"/>
<rect x="99.5" y="106" width="66" height="56" rx="2" fill="black"/>
</g>
<path d="M457 329L463 323L469 329H457Z" fill="#5773FF"/>
<g clip-path="url(#clip1_1_14950)">
<path d="M405.852 363L404.844 359.976H400.668L399.692 363H397.852L401.66 351.832H403.932L407.74 363H405.852ZM402.796 353.496H402.716L401.1 358.424H404.396L402.796 353.496ZM409.934 356.104H408.67V354.68H409.934V353.304C409.934 352.632 410.11 352.109 410.462 351.736C410.814 351.352 411.342 351.16 412.046 351.16H413.422V352.584H411.678V354.68H413.422V356.104H411.678V363H409.934V356.104ZM417.403 363C416.795 363 416.337 362.845 416.027 362.536C415.718 362.216 415.563 361.768 415.563 361.192V356.104H414.267V354.68H414.971C415.259 354.68 415.457 354.616 415.563 354.488C415.681 354.36 415.739 354.152 415.739 353.864V352.408H417.307V354.68H419.051V356.104H417.307V361.576H418.923V363H417.403ZM424.304 363.192C423.707 363.192 423.174 363.091 422.704 362.888C422.235 362.685 421.835 362.397 421.504 362.024C421.174 361.64 420.918 361.181 420.736 360.648C420.566 360.104 420.48 359.501 420.48 358.84C420.48 358.179 420.566 357.581 420.736 357.048C420.918 356.504 421.174 356.045 421.504 355.672C421.835 355.288 422.235 354.995 422.704 354.792C423.174 354.589 423.707 354.488 424.304 354.488C424.912 354.488 425.446 354.595 425.905 354.808C426.374 355.021 426.763 355.32 427.072 355.704C427.382 356.077 427.611 356.515 427.76 357.016C427.92 357.517 428 358.056 428 358.632V359.288H422.288V359.56C422.288 360.2 422.475 360.728 422.848 361.144C423.232 361.549 423.776 361.752 424.48 361.752C424.992 361.752 425.424 361.64 425.776 361.416C426.128 361.192 426.427 360.888 426.672 360.504L427.696 361.512C427.387 362.024 426.939 362.435 426.352 362.744C425.766 363.043 425.083 363.192 424.304 363.192ZM424.304 355.848C424.006 355.848 423.728 355.901 423.472 356.008C423.227 356.115 423.014 356.264 422.832 356.456C422.662 356.648 422.528 356.877 422.432 357.144C422.336 357.411 422.288 357.704 422.288 358.024V358.136H426.161V357.976C426.161 357.336 425.995 356.824 425.664 356.44C425.334 356.045 424.88 355.848 424.304 355.848ZM430.091 363V354.68H431.835V356.28H431.915C432.032 355.853 432.278 355.48 432.651 355.16C433.024 354.84 433.542 354.68 434.203 354.68H434.667V356.36H433.979C433.286 356.36 432.752 356.472 432.379 356.696C432.016 356.92 431.835 357.251 431.835 357.688V363H430.091ZM447.309 358.136H442.253V363H440.445V351.832H442.253V356.536H447.309V351.832H449.117V363H447.309V358.136ZM457.995 363C457.537 363 457.185 362.872 456.939 362.616C456.694 362.349 456.545 362.013 456.491 361.608H456.411C456.251 362.131 455.958 362.525 455.531 362.792C455.105 363.059 454.587 363.192 453.979 363.192C453.115 363.192 452.449 362.968 451.979 362.52C451.521 362.072 451.291 361.469 451.291 360.712C451.291 359.88 451.59 359.256 452.187 358.84C452.795 358.424 453.681 358.216 454.843 358.216H456.347V357.512C456.347 357 456.209 356.605 455.931 356.328C455.654 356.051 455.222 355.912 454.635 355.912C454.145 355.912 453.745 356.019 453.435 356.232C453.126 356.445 452.865 356.717 452.651 357.048L451.611 356.104C451.889 355.635 452.278 355.251 452.779 354.952C453.281 354.643 453.937 354.488 454.747 354.488C455.825 354.488 456.651 354.739 457.227 355.24C457.803 355.741 458.091 356.461 458.091 357.4V361.576H458.971V363H457.995ZM454.475 361.864C455.019 361.864 455.467 361.747 455.819 361.512C456.171 361.267 456.347 360.941 456.347 360.536V359.336H454.875C453.67 359.336 453.067 359.709 453.067 360.456V360.744C453.067 361.117 453.19 361.4 453.435 361.592C453.691 361.773 454.038 361.864 454.475 361.864ZM464.056 363.192C463.459 363.192 462.926 363.091 462.456 362.888C461.987 362.685 461.592 362.397 461.272 362.024C460.952 361.64 460.707 361.181 460.536 360.648C460.366 360.104 460.28 359.501 460.28 358.84C460.28 358.179 460.366 357.581 460.536 357.048C460.707 356.504 460.952 356.045 461.272 355.672C461.592 355.288 461.987 354.995 462.456 354.792C462.926 354.589 463.459 354.488 464.056 354.488C464.888 354.488 465.571 354.675 466.104 355.048C466.638 355.421 467.027 355.917 467.272 356.536L465.832 357.208C465.715 356.824 465.507 356.52 465.208 356.296C464.92 356.061 464.536 355.944 464.056 355.944C463.416 355.944 462.931 356.147 462.6 356.552C462.28 356.947 462.12 357.464 462.12 358.104V359.592C462.12 360.232 462.28 360.755 462.6 361.16C462.931 361.555 463.416 361.752 464.056 361.752C464.568 361.752 464.974 361.629 465.272 361.384C465.582 361.128 465.827 360.792 466.008 360.376L467.336 361.08C467.059 361.763 466.643 362.285 466.088 362.648C465.534 363.011 464.856 363.192 464.056 363.192ZM469.157 351.16H470.901V358.424H470.981L472.133 356.936L474.133 354.68H476.165L473.253 357.896L476.517 363H474.437L472.053 359.032L470.901 360.28V363H469.157V351.16ZM486.739 354.456H486.659L485.779 356.264L483.331 360.728L480.883 356.264L480.003 354.456H479.923V363H478.195V351.832H480.339L483.331 357.512H483.427L486.419 351.832H488.467V363H486.739V354.456ZM494.522 363.192C493.946 363.192 493.418 363.091 492.938 362.888C492.469 362.685 492.069 362.397 491.738 362.024C491.407 361.64 491.151 361.181 490.97 360.648C490.789 360.104 490.698 359.501 490.698 358.84C490.698 358.179 490.789 357.581 490.97 357.048C491.151 356.504 491.407 356.045 491.738 355.672C492.069 355.288 492.469 354.995 492.938 354.792C493.418 354.589 493.946 354.488 494.522 354.488C495.098 354.488 495.621 354.589 496.09 354.792C496.57 354.995 496.975 355.288 497.306 355.672C497.637 356.045 497.893 356.504 498.074 357.048C498.255 357.581 498.346 358.179 498.346 358.84C498.346 359.501 498.255 360.104 498.074 360.648C497.893 361.181 497.637 361.64 497.306 362.024C496.975 362.397 496.57 362.685 496.09 362.888C495.621 363.091 495.098 363.192 494.522 363.192ZM494.522 361.752C495.119 361.752 495.599 361.571 495.962 361.208C496.325 360.835 496.506 360.28 496.506 359.544V358.136C496.506 357.4 496.325 356.851 495.962 356.488C495.599 356.115 495.119 355.928 494.522 355.928C493.925 355.928 493.445 356.115 493.082 356.488C492.719 356.851 492.538 357.4 492.538 358.136V359.544C492.538 360.28 492.719 360.835 493.082 361.208C493.445 361.571 493.925 361.752 494.522 361.752ZM502.706 363C502.098 363 501.64 362.845 501.33 362.536C501.021 362.216 500.866 361.768 500.866 361.192V356.104H499.57V354.68H500.274C500.562 354.68 500.76 354.616 500.866 354.488C500.984 354.36 501.042 354.152 501.042 353.864V352.408H502.61V354.68H504.354V356.104H502.61V361.576H504.226V363H502.706ZM507.286 353.192C506.923 353.192 506.657 353.107 506.486 352.936C506.326 352.765 506.246 352.547 506.246 352.28V352.008C506.246 351.741 506.326 351.523 506.486 351.352C506.657 351.181 506.923 351.096 507.286 351.096C507.649 351.096 507.91 351.181 508.07 351.352C508.23 351.523 508.31 351.741 508.31 352.008V352.28C508.31 352.547 508.23 352.765 508.07 352.936C507.91 353.107 507.649 353.192 507.286 353.192ZM506.406 354.68H508.15V363H506.406V354.68ZM514.064 363.192C513.488 363.192 512.96 363.091 512.48 362.888C512.011 362.685 511.611 362.397 511.28 362.024C510.95 361.64 510.694 361.181 510.512 360.648C510.331 360.104 510.24 359.501 510.24 358.84C510.24 358.179 510.331 357.581 510.512 357.048C510.694 356.504 510.95 356.045 511.28 355.672C511.611 355.288 512.011 354.995 512.48 354.792C512.96 354.589 513.488 354.488 514.064 354.488C514.64 354.488 515.163 354.589 515.632 354.792C516.112 354.995 516.518 355.288 516.848 355.672C517.179 356.045 517.435 356.504 517.616 357.048C517.798 357.581 517.888 358.179 517.888 358.84C517.888 359.501 517.798 360.104 517.616 360.648C517.435 361.181 517.179 361.64 516.848 362.024C516.518 362.397 516.112 362.685 515.632 362.888C515.163 363.091 514.64 363.192 514.064 363.192ZM514.064 361.752C514.662 361.752 515.142 361.571 515.504 361.208C515.867 360.835 516.048 360.28 516.048 359.544V358.136C516.048 357.4 515.867 356.851 515.504 356.488C515.142 356.115 514.662 355.928 514.064 355.928C513.467 355.928 512.987 356.115 512.624 356.488C512.262 356.851 512.08 357.4 512.08 358.136V359.544C512.08 360.28 512.262 360.835 512.624 361.208C512.987 361.571 513.467 361.752 514.064 361.752ZM519.992 363V354.68H521.736V356.056H521.816C521.997 355.608 522.269 355.235 522.632 354.936C523.005 354.637 523.512 354.488 524.152 354.488C525.005 354.488 525.666 354.771 526.136 355.336C526.616 355.891 526.856 356.685 526.856 357.72V363H525.112V357.944C525.112 356.643 524.589 355.992 523.544 355.992C523.32 355.992 523.096 356.024 522.872 356.088C522.658 356.141 522.466 356.227 522.296 356.344C522.125 356.461 521.986 356.611 521.88 356.792C521.784 356.973 521.736 357.187 521.736 357.432V363H519.992Z" fill="white"/>
<rect x="381.5" y="329" width="163" height="56" rx="2" fill="#5773FF"/>
</g>
<defs>
<clipPath id="clip0_1_14950">
<path d="M99.5 116C99.5 110.477 103.977 106 109.5 106H155.5C161.023 106 165.5 110.477 165.5 116V152C165.5 157.523 161.023 162 155.5 162H109.5C103.977 162 99.5 157.523 99.5 152V116Z" fill="white"/>
</clipPath>
<clipPath id="clip1_1_14950">
<path d="M381.5 339C381.5 333.477 385.977 329 391.5 329H534.5C540.023 329 544.5 333.477 544.5 339V375C544.5 380.523 540.023 385 534.5 385H391.5C385.977 385 381.5 380.523 381.5 375V339Z" fill="white"/>
</clipPath>
</defs>
</svg>
