<svg width="328" height="323" viewBox="0 0 328 323" fill="none" xmlns="http://www.w3.org/2000/svg">
<path d="M0 16C0 7.16345 7.16344 0 16 0H312C320.837 0 328 7.16344 328 16V307C328 315.837 320.837 323 312 323H16C7.16345 323 0 315.837 0 307V16Z" fill="#F7F7F7"/>
<path opacity="0.7" d="M17.232 30V28.684H19.976V21.376H19.864L17.596 23.798L16.63 22.93L19.122 20.228H21.53V28.684H23.91V30H17.232ZM28.7545 30.168C28.1479 30.168 27.6205 30.056 27.1725 29.832C26.7245 29.5987 26.3559 29.2673 26.0665 28.838C25.7772 28.4087 25.5625 27.8813 25.4225 27.256C25.2825 26.6307 25.2125 25.9167 25.2125 25.114C25.2125 24.3207 25.2825 23.6113 25.4225 22.986C25.5625 22.3513 25.7772 21.8193 26.0665 21.39C26.3559 20.9607 26.7245 20.634 27.1725 20.41C27.6205 20.1767 28.1479 20.06 28.7545 20.06C29.9679 20.06 30.8592 20.5033 31.4285 21.39C32.0072 22.2767 32.2965 23.518 32.2965 25.114C32.2965 26.71 32.0072 27.9513 31.4285 28.838C30.8592 29.7247 29.9679 30.168 28.7545 30.168ZM28.7545 28.824C29.0905 28.824 29.3752 28.7587 29.6085 28.628C29.8512 28.488 30.0472 28.292 30.1965 28.04C30.3459 27.788 30.4532 27.4893 30.5185 27.144C30.5839 26.7893 30.6165 26.3973 30.6165 25.968V24.26C30.6165 23.8307 30.5839 23.4433 30.5185 23.098C30.4532 22.7433 30.3459 22.44 30.1965 22.188C30.0472 21.936 29.8512 21.7447 29.6085 21.614C29.3752 21.474 29.0905 21.404 28.7545 21.404C28.4185 21.404 28.1292 21.474 27.8865 21.614C27.6532 21.7447 27.4619 21.936 27.3125 22.188C27.1632 22.44 27.0559 22.7433 26.9905 23.098C26.9252 23.4433 26.8925 23.8307 26.8925 24.26V25.968C26.8925 26.3973 26.9252 26.7893 26.9905 27.144C27.0559 27.4893 27.1632 27.788 27.3125 28.04C27.4619 28.292 27.6532 28.488 27.8865 28.628C28.1292 28.7587 28.4185 28.824 28.7545 28.824ZM37.3091 30.168C36.7024 30.168 36.1751 30.056 35.7271 29.832C35.2791 29.5987 34.9104 29.2673 34.6211 28.838C34.3317 28.4087 34.1171 27.8813 33.9771 27.256C33.8371 26.6307 33.7671 25.9167 33.7671 25.114C33.7671 24.3207 33.8371 23.6113 33.9771 22.986C34.1171 22.3513 34.3317 21.8193 34.6211 21.39C34.9104 20.9607 35.2791 20.634 35.7271 20.41C36.1751 20.1767 36.7024 20.06 37.3091 20.06C38.5224 20.06 39.4137 20.5033 39.9831 21.39C40.5617 22.2767 40.8511 23.518 40.8511 25.114C40.8511 26.71 40.5617 27.9513 39.9831 28.838C39.4137 29.7247 38.5224 30.168 37.3091 30.168ZM37.3091 28.824C37.6451 28.824 37.9297 28.7587 38.1631 28.628C38.4057 28.488 38.6017 28.292 38.7511 28.04C38.9004 27.788 39.0077 27.4893 39.0731 27.144C39.1384 26.7893 39.1711 26.3973 39.1711 25.968V24.26C39.1711 23.8307 39.1384 23.4433 39.0731 23.098C39.0077 22.7433 38.9004 22.44 38.7511 22.188C38.6017 21.936 38.4057 21.7447 38.1631 21.614C37.9297 21.474 37.6451 21.404 37.3091 21.404C36.9731 21.404 36.6837 21.474 36.4411 21.614C36.2077 21.7447 36.0164 21.936 35.8671 22.188C35.7177 22.44 35.6104 22.7433 35.5451 23.098C35.4797 23.4433 35.4471 23.8307 35.4471 24.26V25.968C35.4471 26.3973 35.4797 26.7893 35.5451 27.144C35.6104 27.4893 35.7177 27.788 35.8671 28.04C36.0164 28.292 36.2077 28.488 36.4411 28.628C36.6837 28.7587 36.9731 28.824 37.3091 28.824ZM45.1776 29.118V26.346H42.6016V25.1H45.1776V22.328H46.5496V25.1H49.1256V26.346H46.5496V29.118H45.1776Z" fill="black"/>
<path d="M67 25H311.522" stroke="black" stroke-width="0.5" stroke-linecap="round" stroke-dasharray="0.1 4"/>
<path opacity="0.7" d="M17.204 156.728H21.53C22.342 156.728 22.9767 156.957 23.434 157.414C23.9007 157.871 24.134 158.483 24.134 159.248C24.134 159.612 24.0827 159.925 23.98 160.186C23.8773 160.438 23.7467 160.648 23.588 160.816C23.4293 160.975 23.2473 161.096 23.042 161.18C22.8367 161.255 22.636 161.301 22.44 161.32V161.404C22.636 161.413 22.8507 161.46 23.084 161.544C23.3267 161.628 23.5507 161.763 23.756 161.95C23.9613 162.127 24.134 162.361 24.274 162.65C24.414 162.93 24.484 163.275 24.484 163.686C24.484 164.078 24.4187 164.447 24.288 164.792C24.1667 165.137 23.994 165.436 23.77 165.688C23.546 165.94 23.28 166.141 22.972 166.29C22.664 166.43 22.328 166.5 21.964 166.5H17.204V156.728ZM18.786 165.142H21.502C21.9127 165.142 22.2347 165.035 22.468 164.82C22.7013 164.605 22.818 164.297 22.818 163.896V163.42C22.818 163.019 22.7013 162.711 22.468 162.496C22.2347 162.281 21.9127 162.174 21.502 162.174H18.786V165.142ZM18.786 160.858H21.236C21.628 160.858 21.9313 160.76 22.146 160.564C22.3607 160.359 22.468 160.069 22.468 159.696V159.248C22.468 158.875 22.3607 158.59 22.146 158.394C21.9313 158.189 21.628 158.086 21.236 158.086H18.786V160.858ZM26.4805 166.5V159.22H28.0065V160.62H28.0765C28.1792 160.247 28.3938 159.92 28.7205 159.64C29.0472 159.36 29.4998 159.22 30.0785 159.22H30.4845V160.69H29.8825C29.2758 160.69 28.8092 160.788 28.4825 160.984C28.1652 161.18 28.0065 161.469 28.0065 161.852V166.5H26.4805ZM34.7875 166.668C34.2649 166.668 33.7982 166.579 33.3875 166.402C32.9769 166.225 32.6269 165.973 32.3375 165.646C32.0482 165.31 31.8242 164.909 31.6655 164.442C31.5162 163.966 31.4415 163.439 31.4415 162.86C31.4415 162.281 31.5162 161.759 31.6655 161.292C31.8242 160.816 32.0482 160.415 32.3375 160.088C32.6269 159.752 32.9769 159.495 33.3875 159.318C33.7982 159.141 34.2649 159.052 34.7875 159.052C35.3195 159.052 35.7862 159.145 36.1875 159.332C36.5982 159.519 36.9389 159.78 37.2095 160.116C37.4802 160.443 37.6809 160.825 37.8115 161.264C37.9515 161.703 38.0215 162.174 38.0215 162.678V163.252H33.0235V163.49C33.0235 164.05 33.1869 164.512 33.5135 164.876C33.8495 165.231 34.3255 165.408 34.9415 165.408C35.3895 165.408 35.7675 165.31 36.0755 165.114C36.3835 164.918 36.6449 164.652 36.8595 164.316L37.7555 165.198C37.4849 165.646 37.0929 166.005 36.5795 166.276C36.0662 166.537 35.4689 166.668 34.7875 166.668ZM34.7875 160.242C34.5262 160.242 34.2835 160.289 34.0595 160.382C33.8449 160.475 33.6582 160.606 33.4995 160.774C33.3502 160.942 33.2335 161.143 33.1495 161.376C33.0655 161.609 33.0235 161.866 33.0235 162.146V162.244H36.4115V162.104C36.4115 161.544 36.2669 161.096 35.9775 160.76C35.6882 160.415 35.2915 160.242 34.7875 160.242ZM45.2048 166.5C44.8035 166.5 44.4955 166.388 44.2808 166.164C44.0662 165.931 43.9355 165.637 43.8888 165.282H43.8188C43.6788 165.739 43.4222 166.085 43.0488 166.318C42.6755 166.551 42.2228 166.668 41.6908 166.668C40.9348 166.668 40.3515 166.472 39.9408 166.08C39.5395 165.688 39.3388 165.161 39.3388 164.498C39.3388 163.77 39.6002 163.224 40.1228 162.86C40.6548 162.496 41.4295 162.314 42.4468 162.314H43.7628V161.698C43.7628 161.25 43.6415 160.905 43.3988 160.662C43.1562 160.419 42.7782 160.298 42.2648 160.298C41.8355 160.298 41.4855 160.391 41.2148 160.578C40.9442 160.765 40.7155 161.003 40.5288 161.292L39.6188 160.466C39.8615 160.055 40.2022 159.719 40.6408 159.458C41.0795 159.187 41.6535 159.052 42.3628 159.052C43.3055 159.052 44.0288 159.271 44.5328 159.71C45.0368 160.149 45.2888 160.779 45.2888 161.6V165.254H46.0588V166.5H45.2048ZM42.1248 165.506C42.6008 165.506 42.9928 165.403 43.3008 165.198C43.6088 164.983 43.7628 164.699 43.7628 164.344V163.294H42.4748C41.4202 163.294 40.8928 163.621 40.8928 164.274V164.526C40.8928 164.853 41.0002 165.1 41.2148 165.268C41.4388 165.427 41.7422 165.506 42.1248 165.506ZM47.7144 156.14H49.2404V162.496H49.3104L50.3184 161.194L52.0684 159.22H53.8464L51.2984 162.034L54.1544 166.5H52.3344L50.2484 163.028L49.2404 164.12V166.5H47.7144V156.14ZM59.1393 166.5V165.184H61.8833V157.876H61.7713L59.5033 160.298L58.5373 159.43L61.0293 156.728H63.4373V165.184H65.8173V166.5H59.1393ZM70.6618 166.668C70.0551 166.668 69.5278 166.556 69.0798 166.332C68.6318 166.099 68.2631 165.767 67.9738 165.338C67.6845 164.909 67.4698 164.381 67.3298 163.756C67.1898 163.131 67.1198 162.417 67.1198 161.614C67.1198 160.821 67.1898 160.111 67.3298 159.486C67.4698 158.851 67.6845 158.319 67.9738 157.89C68.2631 157.461 68.6318 157.134 69.0798 156.91C69.5278 156.677 70.0551 156.56 70.6618 156.56C71.8751 156.56 72.7665 157.003 73.3358 157.89C73.9145 158.777 74.2038 160.018 74.2038 161.614C74.2038 163.21 73.9145 164.451 73.3358 165.338C72.7665 166.225 71.8751 166.668 70.6618 166.668ZM70.6618 165.324C70.9978 165.324 71.2825 165.259 71.5158 165.128C71.7585 164.988 71.9545 164.792 72.1038 164.54C72.2531 164.288 72.3605 163.989 72.4258 163.644C72.4911 163.289 72.5238 162.897 72.5238 162.468V160.76C72.5238 160.331 72.4911 159.943 72.4258 159.598C72.3605 159.243 72.2531 158.94 72.1038 158.688C71.9545 158.436 71.7585 158.245 71.5158 158.114C71.2825 157.974 70.9978 157.904 70.6618 157.904C70.3258 157.904 70.0365 157.974 69.7938 158.114C69.5605 158.245 69.3691 158.436 69.2198 158.688C69.0705 158.94 68.9631 159.243 68.8978 159.598C68.8325 159.943 68.7998 160.331 68.7998 160.76V162.468C68.7998 162.897 68.8325 163.289 68.8978 163.644C68.9631 163.989 69.0705 164.288 69.2198 164.54C69.3691 164.792 69.5605 164.988 69.7938 165.128C70.0365 165.259 70.3258 165.324 70.6618 165.324ZM79.2163 166.668C78.6097 166.668 78.0823 166.556 77.6343 166.332C77.1863 166.099 76.8177 165.767 76.5283 165.338C76.239 164.909 76.0243 164.381 75.8843 163.756C75.7443 163.131 75.6743 162.417 75.6743 161.614C75.6743 160.821 75.7443 160.111 75.8843 159.486C76.0243 158.851 76.239 158.319 76.5283 157.89C76.8177 157.461 77.1863 157.134 77.6343 156.91C78.0823 156.677 78.6097 156.56 79.2163 156.56C80.4297 156.56 81.321 157.003 81.8903 157.89C82.469 158.777 82.7583 160.018 82.7583 161.614C82.7583 163.21 82.469 164.451 81.8903 165.338C81.321 166.225 80.4297 166.668 79.2163 166.668ZM79.2163 165.324C79.5523 165.324 79.837 165.259 80.0703 165.128C80.313 164.988 80.509 164.792 80.6583 164.54C80.8077 164.288 80.915 163.989 80.9803 163.644C81.0457 163.289 81.0783 162.897 81.0783 162.468V160.76C81.0783 160.331 81.0457 159.943 80.9803 159.598C80.915 159.243 80.8077 158.94 80.6583 158.688C80.509 158.436 80.313 158.245 80.0703 158.114C79.837 157.974 79.5523 157.904 79.2163 157.904C78.8803 157.904 78.591 157.974 78.3483 158.114C78.115 158.245 77.9237 158.436 77.7743 158.688C77.625 158.94 77.5177 159.243 77.4523 159.598C77.387 159.943 77.3543 160.331 77.3543 160.76V162.468C77.3543 162.897 77.387 163.289 77.4523 163.644C77.5177 163.989 77.625 164.288 77.7743 164.54C77.9237 164.792 78.115 164.988 78.3483 165.128C78.591 165.259 78.8803 165.324 79.2163 165.324Z" fill="black"/>
<path d="M100 161.5H311.522" stroke="black" stroke-width="0.5" stroke-linecap="round" stroke-dasharray="0.1 4"/>
<path opacity="0.7" d="M17.204 293.228H21.53C22.342 293.228 22.9767 293.457 23.434 293.914C23.9007 294.371 24.134 294.983 24.134 295.748C24.134 296.112 24.0827 296.425 23.98 296.686C23.8773 296.938 23.7467 297.148 23.588 297.316C23.4293 297.475 23.2473 297.596 23.042 297.68C22.8367 297.755 22.636 297.801 22.44 297.82V297.904C22.636 297.913 22.8507 297.96 23.084 298.044C23.3267 298.128 23.5507 298.263 23.756 298.45C23.9613 298.627 24.134 298.861 24.274 299.15C24.414 299.43 24.484 299.775 24.484 300.186C24.484 300.578 24.4187 300.947 24.288 301.292C24.1667 301.637 23.994 301.936 23.77 302.188C23.546 302.44 23.28 302.641 22.972 302.79C22.664 302.93 22.328 303 21.964 303H17.204V293.228ZM18.786 301.642H21.502C21.9127 301.642 22.2347 301.535 22.468 301.32C22.7013 301.105 22.818 300.797 22.818 300.396V299.92C22.818 299.519 22.7013 299.211 22.468 298.996C22.2347 298.781 21.9127 298.674 21.502 298.674H18.786V301.642ZM18.786 297.358H21.236C21.628 297.358 21.9313 297.26 22.146 297.064C22.3607 296.859 22.468 296.569 22.468 296.196V295.748C22.468 295.375 22.3607 295.09 22.146 294.894C21.9313 294.689 21.628 294.586 21.236 294.586H18.786V297.358ZM26.4805 303V295.72H28.0065V297.12H28.0765C28.1792 296.747 28.3938 296.42 28.7205 296.14C29.0472 295.86 29.4998 295.72 30.0785 295.72H30.4845V297.19H29.8825C29.2758 297.19 28.8092 297.288 28.4825 297.484C28.1652 297.68 28.0065 297.969 28.0065 298.352V303H26.4805ZM34.7875 303.168C34.2649 303.168 33.7982 303.079 33.3875 302.902C32.9769 302.725 32.6269 302.473 32.3375 302.146C32.0482 301.81 31.8242 301.409 31.6655 300.942C31.5162 300.466 31.4415 299.939 31.4415 299.36C31.4415 298.781 31.5162 298.259 31.6655 297.792C31.8242 297.316 32.0482 296.915 32.3375 296.588C32.6269 296.252 32.9769 295.995 33.3875 295.818C33.7982 295.641 34.2649 295.552 34.7875 295.552C35.3195 295.552 35.7862 295.645 36.1875 295.832C36.5982 296.019 36.9389 296.28 37.2095 296.616C37.4802 296.943 37.6809 297.325 37.8115 297.764C37.9515 298.203 38.0215 298.674 38.0215 299.178V299.752H33.0235V299.99C33.0235 300.55 33.1869 301.012 33.5135 301.376C33.8495 301.731 34.3255 301.908 34.9415 301.908C35.3895 301.908 35.7675 301.81 36.0755 301.614C36.3835 301.418 36.6449 301.152 36.8595 300.816L37.7555 301.698C37.4849 302.146 37.0929 302.505 36.5795 302.776C36.0662 303.037 35.4689 303.168 34.7875 303.168ZM34.7875 296.742C34.5262 296.742 34.2835 296.789 34.0595 296.882C33.8449 296.975 33.6582 297.106 33.4995 297.274C33.3502 297.442 33.2335 297.643 33.1495 297.876C33.0655 298.109 33.0235 298.366 33.0235 298.646V298.744H36.4115V298.604C36.4115 298.044 36.2669 297.596 35.9775 297.26C35.6882 296.915 35.2915 296.742 34.7875 296.742ZM45.2048 303C44.8035 303 44.4955 302.888 44.2808 302.664C44.0662 302.431 43.9355 302.137 43.8888 301.782H43.8188C43.6788 302.239 43.4222 302.585 43.0488 302.818C42.6755 303.051 42.2228 303.168 41.6908 303.168C40.9348 303.168 40.3515 302.972 39.9408 302.58C39.5395 302.188 39.3388 301.661 39.3388 300.998C39.3388 300.27 39.6002 299.724 40.1228 299.36C40.6548 298.996 41.4295 298.814 42.4468 298.814H43.7628V298.198C43.7628 297.75 43.6415 297.405 43.3988 297.162C43.1562 296.919 42.7782 296.798 42.2648 296.798C41.8355 296.798 41.4855 296.891 41.2148 297.078C40.9442 297.265 40.7155 297.503 40.5288 297.792L39.6188 296.966C39.8615 296.555 40.2022 296.219 40.6408 295.958C41.0795 295.687 41.6535 295.552 42.3628 295.552C43.3055 295.552 44.0288 295.771 44.5328 296.21C45.0368 296.649 45.2888 297.279 45.2888 298.1V301.754H46.0588V303H45.2048ZM42.1248 302.006C42.6008 302.006 42.9928 301.903 43.3008 301.698C43.6088 301.483 43.7628 301.199 43.7628 300.844V299.794H42.4748C41.4202 299.794 40.8928 300.121 40.8928 300.774V301.026C40.8928 301.353 41.0002 301.6 41.2148 301.768C41.4388 301.927 41.7422 302.006 42.1248 302.006ZM47.7144 292.64H49.2404V298.996H49.3104L50.3184 297.694L52.0684 295.72H53.8464L51.2984 298.534L54.1544 303H52.3344L50.2484 299.528L49.2404 300.62V303H47.7144V292.64ZM65.5233 296.868C65.5233 297.577 65.4159 298.245 65.2013 298.87C64.9866 299.495 64.7113 300.069 64.3753 300.592C64.0393 301.115 63.6613 301.581 63.2413 301.992C62.8306 302.403 62.4246 302.739 62.0233 303H59.9233C60.4739 302.599 60.9686 302.211 61.4073 301.838C61.8459 301.465 62.2286 301.082 62.5553 300.69C62.8819 300.298 63.1526 299.883 63.3673 299.444C63.5913 299.005 63.7639 298.525 63.8853 298.002L63.7873 297.974C63.6846 298.17 63.5633 298.357 63.4233 298.534C63.2926 298.702 63.1339 298.851 62.9473 298.982C62.7699 299.113 62.5646 299.215 62.3313 299.29C62.0979 299.365 61.8273 299.402 61.5193 299.402C61.1086 299.402 60.7259 299.332 60.3713 299.192C60.0259 299.052 59.7226 298.851 59.4613 298.59C59.2093 298.319 59.0086 298.002 58.8593 297.638C58.7193 297.265 58.6493 296.845 58.6493 296.378C58.6493 295.893 58.7286 295.445 58.8873 295.034C59.0553 294.623 59.2886 294.273 59.5873 293.984C59.8859 293.695 60.2453 293.471 60.6653 293.312C61.0853 293.144 61.5566 293.06 62.0793 293.06C62.6206 293.06 63.1013 293.149 63.5213 293.326C63.9506 293.503 64.3099 293.76 64.5993 294.096C64.8979 294.423 65.1266 294.819 65.2853 295.286C65.4439 295.753 65.5233 296.28 65.5233 296.868ZM62.0793 298.128C62.6486 298.128 63.0919 297.979 63.4093 297.68C63.7266 297.372 63.8853 296.924 63.8853 296.336V296.14C63.8853 295.552 63.7266 295.109 63.4093 294.81C63.0919 294.502 62.6486 294.348 62.0793 294.348C61.5099 294.348 61.0666 294.502 60.7493 294.81C60.4319 295.109 60.2733 295.552 60.2733 296.14V296.336C60.2733 296.924 60.4319 297.372 60.7493 297.68C61.0666 297.979 61.5099 298.128 62.0793 298.128ZM70.6618 303.168C70.0551 303.168 69.5278 303.056 69.0798 302.832C68.6318 302.599 68.2631 302.267 67.9738 301.838C67.6845 301.409 67.4698 300.881 67.3298 300.256C67.1898 299.631 67.1198 298.917 67.1198 298.114C67.1198 297.321 67.1898 296.611 67.3298 295.986C67.4698 295.351 67.6845 294.819 67.9738 294.39C68.2631 293.961 68.6318 293.634 69.0798 293.41C69.5278 293.177 70.0551 293.06 70.6618 293.06C71.8751 293.06 72.7665 293.503 73.3358 294.39C73.9145 295.277 74.2038 296.518 74.2038 298.114C74.2038 299.71 73.9145 300.951 73.3358 301.838C72.7665 302.725 71.8751 303.168 70.6618 303.168ZM70.6618 301.824C70.9978 301.824 71.2825 301.759 71.5158 301.628C71.7585 301.488 71.9545 301.292 72.1038 301.04C72.2531 300.788 72.3605 300.489 72.4258 300.144C72.4911 299.789 72.5238 299.397 72.5238 298.968V297.26C72.5238 296.831 72.4911 296.443 72.4258 296.098C72.3605 295.743 72.2531 295.44 72.1038 295.188C71.9545 294.936 71.7585 294.745 71.5158 294.614C71.2825 294.474 70.9978 294.404 70.6618 294.404C70.3258 294.404 70.0365 294.474 69.7938 294.614C69.5605 294.745 69.3691 294.936 69.2198 295.188C69.0705 295.44 68.9631 295.743 68.8978 296.098C68.8325 296.443 68.7998 296.831 68.7998 297.26V298.968C68.7998 299.397 68.8325 299.789 68.8978 300.144C68.9631 300.489 69.0705 300.788 69.2198 301.04C69.3691 301.292 69.5605 301.488 69.7938 301.628C70.0365 301.759 70.3258 301.824 70.6618 301.824Z" fill="black"/>
<path d="M91 298H311.522" stroke="black" stroke-width="0.5" stroke-linecap="round" stroke-dasharray="0.1 4"/>
</svg>
